M48
; DRILL file {KiCad (6.0.2)} date Wed Sep 28 01:57:33 2022
; FORMAT={-:-/ absolute / metric / decimal}
; #@! TF.CreationDate,2022-09-28T01:57:33+02:00
; #@! TF.GenerationSoftware,Kicad,Pcbnew,(6.0.2)
; #@! TF.FileFunction,Plated,1,2,PTH
FMAT,2
METRIC
; #@! TA.AperFunction,Plated,PTH,ViaDrill
T1C0.400
; #@! TA.AperFunction,Plated,PTH,ComponentDrill
T2C0.400
; #@! TA.AperFunction,Plated,PTH,ComponentDrill
T3C0.800
; #@! TA.AperFunction,Plated,PTH,ComponentDrill
T4C1.000
; #@! TA.AperFunction,Plated,PTH,ComponentDrill
T5C1.100
; #@! TA.AperFunction,Plated,PTH,ComponentDrill
T6C2.200
%
G90
G05
T1
X137.26Y-94.95
X138.3Y-85.0
X145.8Y-92.1
X161.1Y-82.5
T2
X137.15Y-70.5
X137.633Y-69.333
X137.633Y-71.667
X138.8Y-68.85
X138.8Y-72.15
X139.967Y-69.333
X139.967Y-71.667
X140.45Y-70.5
X159.65Y-70.5
X160.133Y-69.333
X160.133Y-71.667
X161.3Y-68.85
X161.3Y-72.15
X162.467Y-69.333
X162.467Y-71.667
X162.95Y-70.5
T3
X143.045Y-70.78
X143.045Y-72.78
X143.045Y-74.78
X143.045Y-76.78
X143.045Y-78.78
X143.045Y-80.78
X143.045Y-82.78
X143.045Y-84.78
X146.25Y-69.595
X146.25Y-72.135
X146.25Y-74.675
X146.25Y-77.215
X146.25Y-79.755
X146.25Y-82.295
X146.25Y-84.835
X146.25Y-87.375
X153.87Y-69.595
X153.87Y-72.135
X153.87Y-74.675
X153.87Y-77.215
X153.87Y-79.755
X153.87Y-82.295
X153.87Y-84.835
X153.87Y-87.375
X157.045Y-70.78
X157.045Y-72.78
X157.045Y-74.78
X157.045Y-76.78
X157.045Y-78.78
X157.045Y-80.78
X157.045Y-82.78
X157.045Y-84.78
T4
X155.12Y-89.65
X155.12Y-92.19
X157.66Y-89.65
X157.66Y-92.19
X160.2Y-89.65
X160.2Y-92.19
T5
X148.8Y-93.1
X151.34Y-93.1
T6
X138.8Y-70.5
X161.3Y-70.5
T0
M30
