%FSLAX45Y45*%
G04 Gerber Fmt 4.5, Leading zero omitted, Abs format (unit mm)*
G04 Created by KiCad (PCBNEW (6.0.2)) date 2022-09-28 01:57:34*
%MOMM*%
%LPD*%
G01*
G04 APERTURE LIST*
%TA.AperFunction,Profile*%
%ADD10C,0.050000*%
%TD*%
%ADD11C,0.200000*%
G04 APERTURE END LIST*
D10*
X13630000Y-9440000D02*
X13630000Y-7000000D01*
X13830000Y-6800000D02*
X16180000Y-6800000D01*
X16180000Y-9640000D02*
G75*
G03*
X16380000Y-9440000I0J200000D01*
G01*
X16380000Y-7000000D02*
G75*
G03*
X16180000Y-6800000I-200000J0D01*
G01*
X13830000Y-6800000D02*
G75*
G03*
X13630000Y-7000000I0J-200000D01*
G01*
X13630000Y-9440000D02*
G75*
G03*
X13830000Y-9640000I200000J0D01*
G01*
X16180000Y-9640000D02*
X13830000Y-9640000D01*
X16380000Y-7000000D02*
X16380000Y-9440000D01*
D11*
X13885119Y-9952976D02*
X13885119Y-9752976D01*
X13932738Y-9752976D01*
X13961309Y-9762500D01*
X13980357Y-9781548D01*
X13989881Y-9800595D01*
X13999405Y-9838690D01*
X13999405Y-9867262D01*
X13989881Y-9905357D01*
X13980357Y-9924405D01*
X13961309Y-9943452D01*
X13932738Y-9952976D01*
X13885119Y-9952976D01*
X14085119Y-9952976D02*
X14085119Y-9819643D01*
X14085119Y-9857738D02*
X14094643Y-9838690D01*
X14104167Y-9829167D01*
X14123214Y-9819643D01*
X14142262Y-9819643D01*
X14208928Y-9952976D02*
X14208928Y-9819643D01*
X14208928Y-9752976D02*
X14199405Y-9762500D01*
X14208928Y-9772024D01*
X14218452Y-9762500D01*
X14208928Y-9752976D01*
X14208928Y-9772024D01*
X14332738Y-9952976D02*
X14313690Y-9943452D01*
X14304167Y-9924405D01*
X14304167Y-9752976D01*
X14437500Y-9952976D02*
X14418452Y-9943452D01*
X14408928Y-9924405D01*
X14408928Y-9752976D01*
X14666071Y-9952976D02*
X14666071Y-9752976D01*
X14732738Y-9895833D01*
X14799405Y-9752976D01*
X14799405Y-9952976D01*
X14980357Y-9952976D02*
X14980357Y-9848214D01*
X14970833Y-9829167D01*
X14951786Y-9819643D01*
X14913690Y-9819643D01*
X14894643Y-9829167D01*
X14980357Y-9943452D02*
X14961309Y-9952976D01*
X14913690Y-9952976D01*
X14894643Y-9943452D01*
X14885119Y-9924405D01*
X14885119Y-9905357D01*
X14894643Y-9886310D01*
X14913690Y-9876786D01*
X14961309Y-9876786D01*
X14980357Y-9867262D01*
X15075595Y-9819643D02*
X15075595Y-10019643D01*
X15075595Y-9829167D02*
X15094643Y-9819643D01*
X15132738Y-9819643D01*
X15151786Y-9829167D01*
X15161309Y-9838690D01*
X15170833Y-9857738D01*
X15170833Y-9914881D01*
X15161309Y-9933929D01*
X15151786Y-9943452D01*
X15132738Y-9952976D01*
X15094643Y-9952976D01*
X15075595Y-9943452D01*
X15256548Y-9933929D02*
X15266071Y-9943452D01*
X15256548Y-9952976D01*
X15247024Y-9943452D01*
X15256548Y-9933929D01*
X15256548Y-9952976D01*
X15256548Y-9829167D02*
X15266071Y-9838690D01*
X15256548Y-9848214D01*
X15247024Y-9838690D01*
X15256548Y-9829167D01*
X15256548Y-9848214D01*
M02*
