%FSLAX45Y45*%
G04 Gerber Fmt 4.5, Leading zero omitted, Abs format (unit mm)*
G04 Created by KiCad (PCBNEW (6.0.2)) date 2022-09-28 01:57:34*
%MOMM*%
%LPD*%
G01*
G04 APERTURE LIST*
%TA.AperFunction,Profile*%
%ADD10C,0.050000*%
%TD*%
%ADD11C,0.200000*%
%ADD12C,0.040000*%
%ADD13C,0.080000*%
%ADD14C,0.100000*%
%ADD15C,0.110000*%
%ADD16C,0.220000*%
G04 APERTURE END LIST*
D10*
X13630000Y-9440000D02*
X13630000Y-7000000D01*
X13830000Y-6800000D02*
X16180000Y-6800000D01*
X16180000Y-9640000D02*
G75*
G03*
X16380000Y-9440000I0J200000D01*
G01*
X16380000Y-7000000D02*
G75*
G03*
X16180000Y-6800000I-200000J0D01*
G01*
X13830000Y-6800000D02*
G75*
G03*
X13630000Y-7000000I0J-200000D01*
G01*
X13630000Y-9440000D02*
G75*
G03*
X13830000Y-9640000I200000J0D01*
G01*
X16180000Y-9640000D02*
X13830000Y-9640000D01*
X16380000Y-7000000D02*
X16380000Y-9440000D01*
D11*
D12*
X13706000Y-9475000D02*
X13746000Y-9515000D01*
X13746000Y-9475000D02*
X13706000Y-9515000D01*
X13810000Y-8480000D02*
X13850000Y-8520000D01*
X13850000Y-8480000D02*
X13810000Y-8520000D01*
X14560000Y-9190000D02*
X14600000Y-9230000D01*
X14600000Y-9190000D02*
X14560000Y-9230000D01*
X16090000Y-8230000D02*
X16130000Y-8270000D01*
X16130000Y-8230000D02*
X16090000Y-8270000D01*
X13735000Y-7050000D02*
G75*
G03*
X13735000Y-7050000I-20000J0D01*
G01*
X13783327Y-6933327D02*
G75*
G03*
X13783327Y-6933327I-20000J0D01*
G01*
X13783327Y-7166673D02*
G75*
G03*
X13783327Y-7166673I-20000J0D01*
G01*
X13900000Y-6885000D02*
G75*
G03*
X13900000Y-6885000I-20000J0D01*
G01*
X13900000Y-7215000D02*
G75*
G03*
X13900000Y-7215000I-20000J0D01*
G01*
X14016673Y-6933327D02*
G75*
G03*
X14016673Y-6933327I-20000J0D01*
G01*
X14016673Y-7166673D02*
G75*
G03*
X14016673Y-7166673I-20000J0D01*
G01*
X14065000Y-7050000D02*
G75*
G03*
X14065000Y-7050000I-20000J0D01*
G01*
X15985000Y-7050000D02*
G75*
G03*
X15985000Y-7050000I-20000J0D01*
G01*
X16033327Y-6933327D02*
G75*
G03*
X16033327Y-6933327I-20000J0D01*
G01*
X16033327Y-7166673D02*
G75*
G03*
X16033327Y-7166673I-20000J0D01*
G01*
X16150000Y-6885000D02*
G75*
G03*
X16150000Y-6885000I-20000J0D01*
G01*
X16150000Y-7215000D02*
G75*
G03*
X16150000Y-7215000I-20000J0D01*
G01*
X16266673Y-6933327D02*
G75*
G03*
X16266673Y-6933327I-20000J0D01*
G01*
X16266673Y-7166673D02*
G75*
G03*
X16266673Y-7166673I-20000J0D01*
G01*
X16315000Y-7050000D02*
G75*
G03*
X16315000Y-7050000I-20000J0D01*
G01*
D13*
X14304500Y-7038000D02*
X14304500Y-7118000D01*
X14264500Y-7078000D02*
X14344500Y-7078000D01*
X14304500Y-7238000D02*
X14304500Y-7318000D01*
X14264500Y-7278000D02*
X14344500Y-7278000D01*
X14304500Y-7438000D02*
X14304500Y-7518000D01*
X14264500Y-7478000D02*
X14344500Y-7478000D01*
X14304500Y-7638000D02*
X14304500Y-7718000D01*
X14264500Y-7678000D02*
X14344500Y-7678000D01*
X14304500Y-7838000D02*
X14304500Y-7918000D01*
X14264500Y-7878000D02*
X14344500Y-7878000D01*
X14304500Y-8038000D02*
X14304500Y-8118000D01*
X14264500Y-8078000D02*
X14344500Y-8078000D01*
X14304500Y-8238000D02*
X14304500Y-8318000D01*
X14264500Y-8278000D02*
X14344500Y-8278000D01*
X14304500Y-8438000D02*
X14304500Y-8518000D01*
X14264500Y-8478000D02*
X14344500Y-8478000D01*
X14625000Y-6919500D02*
X14625000Y-6999500D01*
X14585000Y-6959500D02*
X14665000Y-6959500D01*
X14625000Y-7173500D02*
X14625000Y-7253500D01*
X14585000Y-7213500D02*
X14665000Y-7213500D01*
X14625000Y-7427500D02*
X14625000Y-7507500D01*
X14585000Y-7467500D02*
X14665000Y-7467500D01*
X14625000Y-7681500D02*
X14625000Y-7761500D01*
X14585000Y-7721500D02*
X14665000Y-7721500D01*
X14625000Y-7935500D02*
X14625000Y-8015500D01*
X14585000Y-7975500D02*
X14665000Y-7975500D01*
X14625000Y-8189500D02*
X14625000Y-8269500D01*
X14585000Y-8229500D02*
X14665000Y-8229500D01*
X14625000Y-8443500D02*
X14625000Y-8523500D01*
X14585000Y-8483500D02*
X14665000Y-8483500D01*
X14625000Y-8697500D02*
X14625000Y-8777500D01*
X14585000Y-8737500D02*
X14665000Y-8737500D01*
X15387000Y-6919500D02*
X15387000Y-6999500D01*
X15347000Y-6959500D02*
X15427000Y-6959500D01*
X15387000Y-7173500D02*
X15387000Y-7253500D01*
X15347000Y-7213500D02*
X15427000Y-7213500D01*
X15387000Y-7427500D02*
X15387000Y-7507500D01*
X15347000Y-7467500D02*
X15427000Y-7467500D01*
X15387000Y-7681500D02*
X15387000Y-7761500D01*
X15347000Y-7721500D02*
X15427000Y-7721500D01*
X15387000Y-7935500D02*
X15387000Y-8015500D01*
X15347000Y-7975500D02*
X15427000Y-7975500D01*
X15387000Y-8189500D02*
X15387000Y-8269500D01*
X15347000Y-8229500D02*
X15427000Y-8229500D01*
X15387000Y-8443500D02*
X15387000Y-8523500D01*
X15347000Y-8483500D02*
X15427000Y-8483500D01*
X15387000Y-8697500D02*
X15387000Y-8777500D01*
X15347000Y-8737500D02*
X15427000Y-8737500D01*
X15704500Y-7038000D02*
X15704500Y-7118000D01*
X15664500Y-7078000D02*
X15744500Y-7078000D01*
X15704500Y-7238000D02*
X15704500Y-7318000D01*
X15664500Y-7278000D02*
X15744500Y-7278000D01*
X15704500Y-7438000D02*
X15704500Y-7518000D01*
X15664500Y-7478000D02*
X15744500Y-7478000D01*
X15704500Y-7638000D02*
X15704500Y-7718000D01*
X15664500Y-7678000D02*
X15744500Y-7678000D01*
X15704500Y-7838000D02*
X15704500Y-7918000D01*
X15664500Y-7878000D02*
X15744500Y-7878000D01*
X15704500Y-8038000D02*
X15704500Y-8118000D01*
X15664500Y-8078000D02*
X15744500Y-8078000D01*
X15704500Y-8238000D02*
X15704500Y-8318000D01*
X15664500Y-8278000D02*
X15744500Y-8278000D01*
X15704500Y-8438000D02*
X15704500Y-8518000D01*
X15664500Y-8478000D02*
X15744500Y-8478000D01*
D14*
X15547356Y-9000356D02*
X15547356Y-8929644D01*
X15476644Y-8929644D01*
X15476644Y-9000356D01*
X15547356Y-9000356D01*
X15547356Y-9254356D02*
X15547356Y-9183644D01*
X15476644Y-9183644D01*
X15476644Y-9254356D01*
X15547356Y-9254356D01*
X15801356Y-9000356D02*
X15801356Y-8929644D01*
X15730644Y-8929644D01*
X15730644Y-9000356D01*
X15801356Y-9000356D01*
X15801356Y-9254356D02*
X15801356Y-9183644D01*
X15730644Y-9183644D01*
X15730644Y-9254356D01*
X15801356Y-9254356D01*
X16055356Y-9000356D02*
X16055356Y-8929644D01*
X15984644Y-8929644D01*
X15984644Y-9000356D01*
X16055356Y-9000356D01*
X16055356Y-9254356D02*
X16055356Y-9183644D01*
X15984644Y-9183644D01*
X15984644Y-9254356D01*
X16055356Y-9254356D01*
D15*
X14880000Y-9365000D02*
X14935000Y-9310000D01*
X14880000Y-9255000D01*
X14825000Y-9310000D01*
X14880000Y-9365000D01*
X15134000Y-9365000D02*
X15189000Y-9310000D01*
X15134000Y-9255000D01*
X15079000Y-9310000D01*
X15134000Y-9365000D01*
D16*
X13770000Y-6940000D02*
X13990000Y-7160000D01*
X13990000Y-6940000D02*
X13770000Y-7160000D01*
X13990000Y-7050000D02*
G75*
G03*
X13990000Y-7050000I-110000J0D01*
G01*
X16020000Y-6940000D02*
X16240000Y-7160000D01*
X16240000Y-6940000D02*
X16020000Y-7160000D01*
X16240000Y-7050000D02*
G75*
G03*
X16240000Y-7050000I-110000J0D01*
G01*
D11*
X13885119Y-9952976D02*
X13885119Y-9752976D01*
X13932738Y-9752976D01*
X13961309Y-9762500D01*
X13980357Y-9781548D01*
X13989881Y-9800595D01*
X13999405Y-9838690D01*
X13999405Y-9867262D01*
X13989881Y-9905357D01*
X13980357Y-9924405D01*
X13961309Y-9943452D01*
X13932738Y-9952976D01*
X13885119Y-9952976D01*
X14085119Y-9952976D02*
X14085119Y-9819643D01*
X14085119Y-9857738D02*
X14094643Y-9838690D01*
X14104167Y-9829167D01*
X14123214Y-9819643D01*
X14142262Y-9819643D01*
X14208928Y-9952976D02*
X14208928Y-9819643D01*
X14208928Y-9752976D02*
X14199405Y-9762500D01*
X14208928Y-9772024D01*
X14218452Y-9762500D01*
X14208928Y-9752976D01*
X14208928Y-9772024D01*
X14332738Y-9952976D02*
X14313690Y-9943452D01*
X14304167Y-9924405D01*
X14304167Y-9752976D01*
X14437500Y-9952976D02*
X14418452Y-9943452D01*
X14408928Y-9924405D01*
X14408928Y-9752976D01*
X14666071Y-9952976D02*
X14666071Y-9752976D01*
X14732738Y-9895833D01*
X14799405Y-9752976D01*
X14799405Y-9952976D01*
X14980357Y-9952976D02*
X14980357Y-9848214D01*
X14970833Y-9829167D01*
X14951786Y-9819643D01*
X14913690Y-9819643D01*
X14894643Y-9829167D01*
X14980357Y-9943452D02*
X14961309Y-9952976D01*
X14913690Y-9952976D01*
X14894643Y-9943452D01*
X14885119Y-9924405D01*
X14885119Y-9905357D01*
X14894643Y-9886310D01*
X14913690Y-9876786D01*
X14961309Y-9876786D01*
X14980357Y-9867262D01*
X15075595Y-9819643D02*
X15075595Y-10019643D01*
X15075595Y-9829167D02*
X15094643Y-9819643D01*
X15132738Y-9819643D01*
X15151786Y-9829167D01*
X15161309Y-9838690D01*
X15170833Y-9857738D01*
X15170833Y-9914881D01*
X15161309Y-9933929D01*
X15151786Y-9943452D01*
X15132738Y-9952976D01*
X15094643Y-9952976D01*
X15075595Y-9943452D01*
X15256548Y-9933929D02*
X15266071Y-9943452D01*
X15256548Y-9952976D01*
X15247024Y-9943452D01*
X15256548Y-9933929D01*
X15256548Y-9952976D01*
X15256548Y-9829167D02*
X15266071Y-9838690D01*
X15256548Y-9848214D01*
X15247024Y-9838690D01*
X15256548Y-9829167D01*
X15256548Y-9848214D01*
D12*
X13587500Y-10262500D02*
X13627500Y-10302500D01*
X13627500Y-10262500D02*
X13587500Y-10302500D01*
D11*
X13923214Y-10172976D02*
X13942262Y-10172976D01*
X13961309Y-10182500D01*
X13970833Y-10192024D01*
X13980357Y-10211071D01*
X13989881Y-10249167D01*
X13989881Y-10296786D01*
X13980357Y-10334881D01*
X13970833Y-10353929D01*
X13961309Y-10363452D01*
X13942262Y-10372976D01*
X13923214Y-10372976D01*
X13904167Y-10363452D01*
X13894643Y-10353929D01*
X13885119Y-10334881D01*
X13875595Y-10296786D01*
X13875595Y-10249167D01*
X13885119Y-10211071D01*
X13894643Y-10192024D01*
X13904167Y-10182500D01*
X13923214Y-10172976D01*
X14075595Y-10353929D02*
X14085119Y-10363452D01*
X14075595Y-10372976D01*
X14066071Y-10363452D01*
X14075595Y-10353929D01*
X14075595Y-10372976D01*
X14256548Y-10239643D02*
X14256548Y-10372976D01*
X14208928Y-10163452D02*
X14161309Y-10306310D01*
X14285119Y-10306310D01*
X14399405Y-10172976D02*
X14418452Y-10172976D01*
X14437500Y-10182500D01*
X14447024Y-10192024D01*
X14456548Y-10211071D01*
X14466071Y-10249167D01*
X14466071Y-10296786D01*
X14456548Y-10334881D01*
X14447024Y-10353929D01*
X14437500Y-10363452D01*
X14418452Y-10372976D01*
X14399405Y-10372976D01*
X14380357Y-10363452D01*
X14370833Y-10353929D01*
X14361309Y-10334881D01*
X14351786Y-10296786D01*
X14351786Y-10249167D01*
X14361309Y-10211071D01*
X14370833Y-10192024D01*
X14380357Y-10182500D01*
X14399405Y-10172976D01*
X14589881Y-10172976D02*
X14608928Y-10172976D01*
X14627976Y-10182500D01*
X14637500Y-10192024D01*
X14647024Y-10211071D01*
X14656548Y-10249167D01*
X14656548Y-10296786D01*
X14647024Y-10334881D01*
X14637500Y-10353929D01*
X14627976Y-10363452D01*
X14608928Y-10372976D01*
X14589881Y-10372976D01*
X14570833Y-10363452D01*
X14561309Y-10353929D01*
X14551786Y-10334881D01*
X14542262Y-10296786D01*
X14542262Y-10249167D01*
X14551786Y-10211071D01*
X14561309Y-10192024D01*
X14570833Y-10182500D01*
X14589881Y-10172976D01*
X14742262Y-10372976D02*
X14742262Y-10239643D01*
X14742262Y-10258690D02*
X14751786Y-10249167D01*
X14770833Y-10239643D01*
X14799405Y-10239643D01*
X14818452Y-10249167D01*
X14827976Y-10268214D01*
X14827976Y-10372976D01*
X14827976Y-10268214D02*
X14837500Y-10249167D01*
X14856548Y-10239643D01*
X14885119Y-10239643D01*
X14904167Y-10249167D01*
X14913690Y-10268214D01*
X14913690Y-10372976D01*
X15008928Y-10372976D02*
X15008928Y-10239643D01*
X15008928Y-10258690D02*
X15018452Y-10249167D01*
X15037500Y-10239643D01*
X15066071Y-10239643D01*
X15085119Y-10249167D01*
X15094643Y-10268214D01*
X15094643Y-10372976D01*
X15094643Y-10268214D02*
X15104167Y-10249167D01*
X15123214Y-10239643D01*
X15151786Y-10239643D01*
X15170833Y-10249167D01*
X15180357Y-10268214D01*
X15180357Y-10372976D01*
X15570833Y-10163452D02*
X15399405Y-10420595D01*
X15827976Y-10172976D02*
X15847024Y-10172976D01*
X15866071Y-10182500D01*
X15875595Y-10192024D01*
X15885119Y-10211071D01*
X15894643Y-10249167D01*
X15894643Y-10296786D01*
X15885119Y-10334881D01*
X15875595Y-10353929D01*
X15866071Y-10363452D01*
X15847024Y-10372976D01*
X15827976Y-10372976D01*
X15808928Y-10363452D01*
X15799405Y-10353929D01*
X15789881Y-10334881D01*
X15780357Y-10296786D01*
X15780357Y-10249167D01*
X15789881Y-10211071D01*
X15799405Y-10192024D01*
X15808928Y-10182500D01*
X15827976Y-10172976D01*
X15980357Y-10353929D02*
X15989881Y-10363452D01*
X15980357Y-10372976D01*
X15970833Y-10363452D01*
X15980357Y-10353929D01*
X15980357Y-10372976D01*
X16113690Y-10172976D02*
X16132738Y-10172976D01*
X16151786Y-10182500D01*
X16161309Y-10192024D01*
X16170833Y-10211071D01*
X16180357Y-10249167D01*
X16180357Y-10296786D01*
X16170833Y-10334881D01*
X16161309Y-10353929D01*
X16151786Y-10363452D01*
X16132738Y-10372976D01*
X16113690Y-10372976D01*
X16094643Y-10363452D01*
X16085119Y-10353929D01*
X16075595Y-10334881D01*
X16066071Y-10296786D01*
X16066071Y-10249167D01*
X16075595Y-10211071D01*
X16085119Y-10192024D01*
X16094643Y-10182500D01*
X16113690Y-10172976D01*
X16370833Y-10372976D02*
X16256548Y-10372976D01*
X16313690Y-10372976D02*
X16313690Y-10172976D01*
X16294643Y-10201548D01*
X16275595Y-10220595D01*
X16256548Y-10230119D01*
X16551786Y-10172976D02*
X16456548Y-10172976D01*
X16447024Y-10268214D01*
X16456548Y-10258690D01*
X16475595Y-10249167D01*
X16523214Y-10249167D01*
X16542262Y-10258690D01*
X16551786Y-10268214D01*
X16561309Y-10287262D01*
X16561309Y-10334881D01*
X16551786Y-10353929D01*
X16542262Y-10363452D01*
X16523214Y-10372976D01*
X16475595Y-10372976D01*
X16456548Y-10363452D01*
X16447024Y-10353929D01*
X16627976Y-10172976D02*
X16761309Y-10172976D01*
X16675595Y-10372976D01*
X16827976Y-10172976D02*
X16827976Y-10211071D01*
X16904167Y-10172976D02*
X16904167Y-10211071D01*
X17199405Y-10449167D02*
X17189881Y-10439643D01*
X17170833Y-10411071D01*
X17161310Y-10392024D01*
X17151786Y-10363452D01*
X17142262Y-10315833D01*
X17142262Y-10277738D01*
X17151786Y-10230119D01*
X17161310Y-10201548D01*
X17170833Y-10182500D01*
X17189881Y-10153929D01*
X17199405Y-10144405D01*
X17361310Y-10239643D02*
X17361310Y-10372976D01*
X17313690Y-10163452D02*
X17266071Y-10306310D01*
X17389881Y-10306310D01*
X17618452Y-10372976D02*
X17618452Y-10172976D01*
X17704167Y-10372976D02*
X17704167Y-10268214D01*
X17694643Y-10249167D01*
X17675595Y-10239643D01*
X17647024Y-10239643D01*
X17627976Y-10249167D01*
X17618452Y-10258690D01*
X17827976Y-10372976D02*
X17808929Y-10363452D01*
X17799405Y-10353929D01*
X17789881Y-10334881D01*
X17789881Y-10277738D01*
X17799405Y-10258690D01*
X17808929Y-10249167D01*
X17827976Y-10239643D01*
X17856548Y-10239643D01*
X17875595Y-10249167D01*
X17885119Y-10258690D01*
X17894643Y-10277738D01*
X17894643Y-10334881D01*
X17885119Y-10353929D01*
X17875595Y-10363452D01*
X17856548Y-10372976D01*
X17827976Y-10372976D01*
X18008929Y-10372976D02*
X17989881Y-10363452D01*
X17980357Y-10344405D01*
X17980357Y-10172976D01*
X18161310Y-10363452D02*
X18142262Y-10372976D01*
X18104167Y-10372976D01*
X18085119Y-10363452D01*
X18075595Y-10344405D01*
X18075595Y-10268214D01*
X18085119Y-10249167D01*
X18104167Y-10239643D01*
X18142262Y-10239643D01*
X18161310Y-10249167D01*
X18170833Y-10268214D01*
X18170833Y-10287262D01*
X18075595Y-10306310D01*
X18247024Y-10363452D02*
X18266071Y-10372976D01*
X18304167Y-10372976D01*
X18323214Y-10363452D01*
X18332738Y-10344405D01*
X18332738Y-10334881D01*
X18323214Y-10315833D01*
X18304167Y-10306310D01*
X18275595Y-10306310D01*
X18256548Y-10296786D01*
X18247024Y-10277738D01*
X18247024Y-10268214D01*
X18256548Y-10249167D01*
X18275595Y-10239643D01*
X18304167Y-10239643D01*
X18323214Y-10249167D01*
X18399405Y-10449167D02*
X18408929Y-10439643D01*
X18427976Y-10411071D01*
X18437500Y-10392024D01*
X18447024Y-10363452D01*
X18456548Y-10315833D01*
X18456548Y-10277738D01*
X18447024Y-10230119D01*
X18437500Y-10201548D01*
X18427976Y-10182500D01*
X18408929Y-10153929D01*
X18399405Y-10144405D01*
D12*
X13627500Y-10546500D02*
G75*
G03*
X13627500Y-10546500I-20000J0D01*
G01*
D11*
X13923214Y-10436976D02*
X13942262Y-10436976D01*
X13961309Y-10446500D01*
X13970833Y-10456024D01*
X13980357Y-10475071D01*
X13989881Y-10513167D01*
X13989881Y-10560786D01*
X13980357Y-10598881D01*
X13970833Y-10617929D01*
X13961309Y-10627452D01*
X13942262Y-10636976D01*
X13923214Y-10636976D01*
X13904167Y-10627452D01*
X13894643Y-10617929D01*
X13885119Y-10598881D01*
X13875595Y-10560786D01*
X13875595Y-10513167D01*
X13885119Y-10475071D01*
X13894643Y-10456024D01*
X13904167Y-10446500D01*
X13923214Y-10436976D01*
X14075595Y-10617929D02*
X14085119Y-10627452D01*
X14075595Y-10636976D01*
X14066071Y-10627452D01*
X14075595Y-10617929D01*
X14075595Y-10636976D01*
X14256548Y-10503643D02*
X14256548Y-10636976D01*
X14208928Y-10427452D02*
X14161309Y-10570310D01*
X14285119Y-10570310D01*
X14399405Y-10436976D02*
X14418452Y-10436976D01*
X14437500Y-10446500D01*
X14447024Y-10456024D01*
X14456548Y-10475071D01*
X14466071Y-10513167D01*
X14466071Y-10560786D01*
X14456548Y-10598881D01*
X14447024Y-10617929D01*
X14437500Y-10627452D01*
X14418452Y-10636976D01*
X14399405Y-10636976D01*
X14380357Y-10627452D01*
X14370833Y-10617929D01*
X14361309Y-10598881D01*
X14351786Y-10560786D01*
X14351786Y-10513167D01*
X14361309Y-10475071D01*
X14370833Y-10456024D01*
X14380357Y-10446500D01*
X14399405Y-10436976D01*
X14589881Y-10436976D02*
X14608928Y-10436976D01*
X14627976Y-10446500D01*
X14637500Y-10456024D01*
X14647024Y-10475071D01*
X14656548Y-10513167D01*
X14656548Y-10560786D01*
X14647024Y-10598881D01*
X14637500Y-10617929D01*
X14627976Y-10627452D01*
X14608928Y-10636976D01*
X14589881Y-10636976D01*
X14570833Y-10627452D01*
X14561309Y-10617929D01*
X14551786Y-10598881D01*
X14542262Y-10560786D01*
X14542262Y-10513167D01*
X14551786Y-10475071D01*
X14561309Y-10456024D01*
X14570833Y-10446500D01*
X14589881Y-10436976D01*
X14742262Y-10636976D02*
X14742262Y-10503643D01*
X14742262Y-10522690D02*
X14751786Y-10513167D01*
X14770833Y-10503643D01*
X14799405Y-10503643D01*
X14818452Y-10513167D01*
X14827976Y-10532214D01*
X14827976Y-10636976D01*
X14827976Y-10532214D02*
X14837500Y-10513167D01*
X14856548Y-10503643D01*
X14885119Y-10503643D01*
X14904167Y-10513167D01*
X14913690Y-10532214D01*
X14913690Y-10636976D01*
X15008928Y-10636976D02*
X15008928Y-10503643D01*
X15008928Y-10522690D02*
X15018452Y-10513167D01*
X15037500Y-10503643D01*
X15066071Y-10503643D01*
X15085119Y-10513167D01*
X15094643Y-10532214D01*
X15094643Y-10636976D01*
X15094643Y-10532214D02*
X15104167Y-10513167D01*
X15123214Y-10503643D01*
X15151786Y-10503643D01*
X15170833Y-10513167D01*
X15180357Y-10532214D01*
X15180357Y-10636976D01*
X15570833Y-10427452D02*
X15399405Y-10684595D01*
X15827976Y-10436976D02*
X15847024Y-10436976D01*
X15866071Y-10446500D01*
X15875595Y-10456024D01*
X15885119Y-10475071D01*
X15894643Y-10513167D01*
X15894643Y-10560786D01*
X15885119Y-10598881D01*
X15875595Y-10617929D01*
X15866071Y-10627452D01*
X15847024Y-10636976D01*
X15827976Y-10636976D01*
X15808928Y-10627452D01*
X15799405Y-10617929D01*
X15789881Y-10598881D01*
X15780357Y-10560786D01*
X15780357Y-10513167D01*
X15789881Y-10475071D01*
X15799405Y-10456024D01*
X15808928Y-10446500D01*
X15827976Y-10436976D01*
X15980357Y-10617929D02*
X15989881Y-10627452D01*
X15980357Y-10636976D01*
X15970833Y-10627452D01*
X15980357Y-10617929D01*
X15980357Y-10636976D01*
X16113690Y-10436976D02*
X16132738Y-10436976D01*
X16151786Y-10446500D01*
X16161309Y-10456024D01*
X16170833Y-10475071D01*
X16180357Y-10513167D01*
X16180357Y-10560786D01*
X16170833Y-10598881D01*
X16161309Y-10617929D01*
X16151786Y-10627452D01*
X16132738Y-10636976D01*
X16113690Y-10636976D01*
X16094643Y-10627452D01*
X16085119Y-10617929D01*
X16075595Y-10598881D01*
X16066071Y-10560786D01*
X16066071Y-10513167D01*
X16075595Y-10475071D01*
X16085119Y-10456024D01*
X16094643Y-10446500D01*
X16113690Y-10436976D01*
X16370833Y-10636976D02*
X16256548Y-10636976D01*
X16313690Y-10636976D02*
X16313690Y-10436976D01*
X16294643Y-10465548D01*
X16275595Y-10484595D01*
X16256548Y-10494119D01*
X16551786Y-10436976D02*
X16456548Y-10436976D01*
X16447024Y-10532214D01*
X16456548Y-10522690D01*
X16475595Y-10513167D01*
X16523214Y-10513167D01*
X16542262Y-10522690D01*
X16551786Y-10532214D01*
X16561309Y-10551262D01*
X16561309Y-10598881D01*
X16551786Y-10617929D01*
X16542262Y-10627452D01*
X16523214Y-10636976D01*
X16475595Y-10636976D01*
X16456548Y-10627452D01*
X16447024Y-10617929D01*
X16627976Y-10436976D02*
X16761309Y-10436976D01*
X16675595Y-10636976D01*
X16827976Y-10436976D02*
X16827976Y-10475071D01*
X16904167Y-10436976D02*
X16904167Y-10475071D01*
X17199405Y-10713167D02*
X17189881Y-10703643D01*
X17170833Y-10675071D01*
X17161310Y-10656024D01*
X17151786Y-10627452D01*
X17142262Y-10579833D01*
X17142262Y-10541738D01*
X17151786Y-10494119D01*
X17161310Y-10465548D01*
X17170833Y-10446500D01*
X17189881Y-10417929D01*
X17199405Y-10408405D01*
X17380357Y-10636976D02*
X17266071Y-10636976D01*
X17323214Y-10636976D02*
X17323214Y-10436976D01*
X17304167Y-10465548D01*
X17285119Y-10484595D01*
X17266071Y-10494119D01*
X17551786Y-10436976D02*
X17513690Y-10436976D01*
X17494643Y-10446500D01*
X17485119Y-10456024D01*
X17466071Y-10484595D01*
X17456548Y-10522690D01*
X17456548Y-10598881D01*
X17466071Y-10617929D01*
X17475595Y-10627452D01*
X17494643Y-10636976D01*
X17532738Y-10636976D01*
X17551786Y-10627452D01*
X17561310Y-10617929D01*
X17570833Y-10598881D01*
X17570833Y-10551262D01*
X17561310Y-10532214D01*
X17551786Y-10522690D01*
X17532738Y-10513167D01*
X17494643Y-10513167D01*
X17475595Y-10522690D01*
X17466071Y-10532214D01*
X17456548Y-10551262D01*
X17808929Y-10636976D02*
X17808929Y-10436976D01*
X17894643Y-10636976D02*
X17894643Y-10532214D01*
X17885119Y-10513167D01*
X17866071Y-10503643D01*
X17837500Y-10503643D01*
X17818452Y-10513167D01*
X17808929Y-10522690D01*
X18018452Y-10636976D02*
X17999405Y-10627452D01*
X17989881Y-10617929D01*
X17980357Y-10598881D01*
X17980357Y-10541738D01*
X17989881Y-10522690D01*
X17999405Y-10513167D01*
X18018452Y-10503643D01*
X18047024Y-10503643D01*
X18066071Y-10513167D01*
X18075595Y-10522690D01*
X18085119Y-10541738D01*
X18085119Y-10598881D01*
X18075595Y-10617929D01*
X18066071Y-10627452D01*
X18047024Y-10636976D01*
X18018452Y-10636976D01*
X18199405Y-10636976D02*
X18180357Y-10627452D01*
X18170833Y-10608405D01*
X18170833Y-10436976D01*
X18351786Y-10627452D02*
X18332738Y-10636976D01*
X18294643Y-10636976D01*
X18275595Y-10627452D01*
X18266071Y-10608405D01*
X18266071Y-10532214D01*
X18275595Y-10513167D01*
X18294643Y-10503643D01*
X18332738Y-10503643D01*
X18351786Y-10513167D01*
X18361310Y-10532214D01*
X18361310Y-10551262D01*
X18266071Y-10570310D01*
X18437500Y-10627452D02*
X18456548Y-10636976D01*
X18494643Y-10636976D01*
X18513690Y-10627452D01*
X18523214Y-10608405D01*
X18523214Y-10598881D01*
X18513690Y-10579833D01*
X18494643Y-10570310D01*
X18466071Y-10570310D01*
X18447024Y-10560786D01*
X18437500Y-10541738D01*
X18437500Y-10532214D01*
X18447024Y-10513167D01*
X18466071Y-10503643D01*
X18494643Y-10503643D01*
X18513690Y-10513167D01*
X18589881Y-10713167D02*
X18599405Y-10703643D01*
X18618452Y-10675071D01*
X18627976Y-10656024D01*
X18637500Y-10627452D01*
X18647024Y-10579833D01*
X18647024Y-10541738D01*
X18637500Y-10494119D01*
X18627976Y-10465548D01*
X18618452Y-10446500D01*
X18599405Y-10417929D01*
X18589881Y-10408405D01*
D13*
X13587500Y-10770500D02*
X13587500Y-10850500D01*
X13547500Y-10810500D02*
X13627500Y-10810500D01*
D11*
X13923214Y-10700976D02*
X13942262Y-10700976D01*
X13961309Y-10710500D01*
X13970833Y-10720024D01*
X13980357Y-10739071D01*
X13989881Y-10777167D01*
X13989881Y-10824786D01*
X13980357Y-10862881D01*
X13970833Y-10881929D01*
X13961309Y-10891452D01*
X13942262Y-10900976D01*
X13923214Y-10900976D01*
X13904167Y-10891452D01*
X13894643Y-10881929D01*
X13885119Y-10862881D01*
X13875595Y-10824786D01*
X13875595Y-10777167D01*
X13885119Y-10739071D01*
X13894643Y-10720024D01*
X13904167Y-10710500D01*
X13923214Y-10700976D01*
X14075595Y-10881929D02*
X14085119Y-10891452D01*
X14075595Y-10900976D01*
X14066071Y-10891452D01*
X14075595Y-10881929D01*
X14075595Y-10900976D01*
X14199405Y-10786690D02*
X14180357Y-10777167D01*
X14170833Y-10767643D01*
X14161309Y-10748595D01*
X14161309Y-10739071D01*
X14170833Y-10720024D01*
X14180357Y-10710500D01*
X14199405Y-10700976D01*
X14237500Y-10700976D01*
X14256548Y-10710500D01*
X14266071Y-10720024D01*
X14275595Y-10739071D01*
X14275595Y-10748595D01*
X14266071Y-10767643D01*
X14256548Y-10777167D01*
X14237500Y-10786690D01*
X14199405Y-10786690D01*
X14180357Y-10796214D01*
X14170833Y-10805738D01*
X14161309Y-10824786D01*
X14161309Y-10862881D01*
X14170833Y-10881929D01*
X14180357Y-10891452D01*
X14199405Y-10900976D01*
X14237500Y-10900976D01*
X14256548Y-10891452D01*
X14266071Y-10881929D01*
X14275595Y-10862881D01*
X14275595Y-10824786D01*
X14266071Y-10805738D01*
X14256548Y-10796214D01*
X14237500Y-10786690D01*
X14399405Y-10700976D02*
X14418452Y-10700976D01*
X14437500Y-10710500D01*
X14447024Y-10720024D01*
X14456548Y-10739071D01*
X14466071Y-10777167D01*
X14466071Y-10824786D01*
X14456548Y-10862881D01*
X14447024Y-10881929D01*
X14437500Y-10891452D01*
X14418452Y-10900976D01*
X14399405Y-10900976D01*
X14380357Y-10891452D01*
X14370833Y-10881929D01*
X14361309Y-10862881D01*
X14351786Y-10824786D01*
X14351786Y-10777167D01*
X14361309Y-10739071D01*
X14370833Y-10720024D01*
X14380357Y-10710500D01*
X14399405Y-10700976D01*
X14589881Y-10700976D02*
X14608928Y-10700976D01*
X14627976Y-10710500D01*
X14637500Y-10720024D01*
X14647024Y-10739071D01*
X14656548Y-10777167D01*
X14656548Y-10824786D01*
X14647024Y-10862881D01*
X14637500Y-10881929D01*
X14627976Y-10891452D01*
X14608928Y-10900976D01*
X14589881Y-10900976D01*
X14570833Y-10891452D01*
X14561309Y-10881929D01*
X14551786Y-10862881D01*
X14542262Y-10824786D01*
X14542262Y-10777167D01*
X14551786Y-10739071D01*
X14561309Y-10720024D01*
X14570833Y-10710500D01*
X14589881Y-10700976D01*
X14742262Y-10900976D02*
X14742262Y-10767643D01*
X14742262Y-10786690D02*
X14751786Y-10777167D01*
X14770833Y-10767643D01*
X14799405Y-10767643D01*
X14818452Y-10777167D01*
X14827976Y-10796214D01*
X14827976Y-10900976D01*
X14827976Y-10796214D02*
X14837500Y-10777167D01*
X14856548Y-10767643D01*
X14885119Y-10767643D01*
X14904167Y-10777167D01*
X14913690Y-10796214D01*
X14913690Y-10900976D01*
X15008928Y-10900976D02*
X15008928Y-10767643D01*
X15008928Y-10786690D02*
X15018452Y-10777167D01*
X15037500Y-10767643D01*
X15066071Y-10767643D01*
X15085119Y-10777167D01*
X15094643Y-10796214D01*
X15094643Y-10900976D01*
X15094643Y-10796214D02*
X15104167Y-10777167D01*
X15123214Y-10767643D01*
X15151786Y-10767643D01*
X15170833Y-10777167D01*
X15180357Y-10796214D01*
X15180357Y-10900976D01*
X15570833Y-10691452D02*
X15399405Y-10948595D01*
X15827976Y-10700976D02*
X15847024Y-10700976D01*
X15866071Y-10710500D01*
X15875595Y-10720024D01*
X15885119Y-10739071D01*
X15894643Y-10777167D01*
X15894643Y-10824786D01*
X15885119Y-10862881D01*
X15875595Y-10881929D01*
X15866071Y-10891452D01*
X15847024Y-10900976D01*
X15827976Y-10900976D01*
X15808928Y-10891452D01*
X15799405Y-10881929D01*
X15789881Y-10862881D01*
X15780357Y-10824786D01*
X15780357Y-10777167D01*
X15789881Y-10739071D01*
X15799405Y-10720024D01*
X15808928Y-10710500D01*
X15827976Y-10700976D01*
X15980357Y-10881929D02*
X15989881Y-10891452D01*
X15980357Y-10900976D01*
X15970833Y-10891452D01*
X15980357Y-10881929D01*
X15980357Y-10900976D01*
X16113690Y-10700976D02*
X16132738Y-10700976D01*
X16151786Y-10710500D01*
X16161309Y-10720024D01*
X16170833Y-10739071D01*
X16180357Y-10777167D01*
X16180357Y-10824786D01*
X16170833Y-10862881D01*
X16161309Y-10881929D01*
X16151786Y-10891452D01*
X16132738Y-10900976D01*
X16113690Y-10900976D01*
X16094643Y-10891452D01*
X16085119Y-10881929D01*
X16075595Y-10862881D01*
X16066071Y-10824786D01*
X16066071Y-10777167D01*
X16075595Y-10739071D01*
X16085119Y-10720024D01*
X16094643Y-10710500D01*
X16113690Y-10700976D01*
X16247024Y-10700976D02*
X16370833Y-10700976D01*
X16304167Y-10777167D01*
X16332738Y-10777167D01*
X16351786Y-10786690D01*
X16361309Y-10796214D01*
X16370833Y-10815262D01*
X16370833Y-10862881D01*
X16361309Y-10881929D01*
X16351786Y-10891452D01*
X16332738Y-10900976D01*
X16275595Y-10900976D01*
X16256548Y-10891452D01*
X16247024Y-10881929D01*
X16561309Y-10900976D02*
X16447024Y-10900976D01*
X16504167Y-10900976D02*
X16504167Y-10700976D01*
X16485119Y-10729548D01*
X16466071Y-10748595D01*
X16447024Y-10758119D01*
X16742262Y-10700976D02*
X16647024Y-10700976D01*
X16637500Y-10796214D01*
X16647024Y-10786690D01*
X16666071Y-10777167D01*
X16713690Y-10777167D01*
X16732738Y-10786690D01*
X16742262Y-10796214D01*
X16751786Y-10815262D01*
X16751786Y-10862881D01*
X16742262Y-10881929D01*
X16732738Y-10891452D01*
X16713690Y-10900976D01*
X16666071Y-10900976D01*
X16647024Y-10891452D01*
X16637500Y-10881929D01*
X16827976Y-10700976D02*
X16827976Y-10739071D01*
X16904167Y-10700976D02*
X16904167Y-10739071D01*
X17199405Y-10977167D02*
X17189881Y-10967643D01*
X17170833Y-10939071D01*
X17161310Y-10920024D01*
X17151786Y-10891452D01*
X17142262Y-10843833D01*
X17142262Y-10805738D01*
X17151786Y-10758119D01*
X17161310Y-10729548D01*
X17170833Y-10710500D01*
X17189881Y-10681929D01*
X17199405Y-10672405D01*
X17256548Y-10700976D02*
X17380357Y-10700976D01*
X17313690Y-10777167D01*
X17342262Y-10777167D01*
X17361310Y-10786690D01*
X17370833Y-10796214D01*
X17380357Y-10815262D01*
X17380357Y-10862881D01*
X17370833Y-10881929D01*
X17361310Y-10891452D01*
X17342262Y-10900976D01*
X17285119Y-10900976D01*
X17266071Y-10891452D01*
X17256548Y-10881929D01*
X17456548Y-10720024D02*
X17466071Y-10710500D01*
X17485119Y-10700976D01*
X17532738Y-10700976D01*
X17551786Y-10710500D01*
X17561310Y-10720024D01*
X17570833Y-10739071D01*
X17570833Y-10758119D01*
X17561310Y-10786690D01*
X17447024Y-10900976D01*
X17570833Y-10900976D01*
X17808929Y-10900976D02*
X17808929Y-10700976D01*
X17894643Y-10900976D02*
X17894643Y-10796214D01*
X17885119Y-10777167D01*
X17866071Y-10767643D01*
X17837500Y-10767643D01*
X17818452Y-10777167D01*
X17808929Y-10786690D01*
X18018452Y-10900976D02*
X17999405Y-10891452D01*
X17989881Y-10881929D01*
X17980357Y-10862881D01*
X17980357Y-10805738D01*
X17989881Y-10786690D01*
X17999405Y-10777167D01*
X18018452Y-10767643D01*
X18047024Y-10767643D01*
X18066071Y-10777167D01*
X18075595Y-10786690D01*
X18085119Y-10805738D01*
X18085119Y-10862881D01*
X18075595Y-10881929D01*
X18066071Y-10891452D01*
X18047024Y-10900976D01*
X18018452Y-10900976D01*
X18199405Y-10900976D02*
X18180357Y-10891452D01*
X18170833Y-10872405D01*
X18170833Y-10700976D01*
X18351786Y-10891452D02*
X18332738Y-10900976D01*
X18294643Y-10900976D01*
X18275595Y-10891452D01*
X18266071Y-10872405D01*
X18266071Y-10796214D01*
X18275595Y-10777167D01*
X18294643Y-10767643D01*
X18332738Y-10767643D01*
X18351786Y-10777167D01*
X18361310Y-10796214D01*
X18361310Y-10815262D01*
X18266071Y-10834310D01*
X18437500Y-10891452D02*
X18456548Y-10900976D01*
X18494643Y-10900976D01*
X18513690Y-10891452D01*
X18523214Y-10872405D01*
X18523214Y-10862881D01*
X18513690Y-10843833D01*
X18494643Y-10834310D01*
X18466071Y-10834310D01*
X18447024Y-10824786D01*
X18437500Y-10805738D01*
X18437500Y-10796214D01*
X18447024Y-10777167D01*
X18466071Y-10767643D01*
X18494643Y-10767643D01*
X18513690Y-10777167D01*
X18589881Y-10977167D02*
X18599405Y-10967643D01*
X18618452Y-10939071D01*
X18627976Y-10920024D01*
X18637500Y-10891452D01*
X18647024Y-10843833D01*
X18647024Y-10805738D01*
X18637500Y-10758119D01*
X18627976Y-10729548D01*
X18618452Y-10710500D01*
X18599405Y-10681929D01*
X18589881Y-10672405D01*
D14*
X13612856Y-11109856D02*
X13612856Y-11039144D01*
X13542144Y-11039144D01*
X13542144Y-11109856D01*
X13612856Y-11109856D01*
D11*
X13989881Y-11164976D02*
X13875595Y-11164976D01*
X13932738Y-11164976D02*
X13932738Y-10964976D01*
X13913690Y-10993548D01*
X13894643Y-11012595D01*
X13875595Y-11022119D01*
X14075595Y-11145929D02*
X14085119Y-11155452D01*
X14075595Y-11164976D01*
X14066071Y-11155452D01*
X14075595Y-11145929D01*
X14075595Y-11164976D01*
X14208928Y-10964976D02*
X14227976Y-10964976D01*
X14247024Y-10974500D01*
X14256548Y-10984024D01*
X14266071Y-11003071D01*
X14275595Y-11041167D01*
X14275595Y-11088786D01*
X14266071Y-11126881D01*
X14256548Y-11145929D01*
X14247024Y-11155452D01*
X14227976Y-11164976D01*
X14208928Y-11164976D01*
X14189881Y-11155452D01*
X14180357Y-11145929D01*
X14170833Y-11126881D01*
X14161309Y-11088786D01*
X14161309Y-11041167D01*
X14170833Y-11003071D01*
X14180357Y-10984024D01*
X14189881Y-10974500D01*
X14208928Y-10964976D01*
X14399405Y-10964976D02*
X14418452Y-10964976D01*
X14437500Y-10974500D01*
X14447024Y-10984024D01*
X14456548Y-11003071D01*
X14466071Y-11041167D01*
X14466071Y-11088786D01*
X14456548Y-11126881D01*
X14447024Y-11145929D01*
X14437500Y-11155452D01*
X14418452Y-11164976D01*
X14399405Y-11164976D01*
X14380357Y-11155452D01*
X14370833Y-11145929D01*
X14361309Y-11126881D01*
X14351786Y-11088786D01*
X14351786Y-11041167D01*
X14361309Y-11003071D01*
X14370833Y-10984024D01*
X14380357Y-10974500D01*
X14399405Y-10964976D01*
X14589881Y-10964976D02*
X14608928Y-10964976D01*
X14627976Y-10974500D01*
X14637500Y-10984024D01*
X14647024Y-11003071D01*
X14656548Y-11041167D01*
X14656548Y-11088786D01*
X14647024Y-11126881D01*
X14637500Y-11145929D01*
X14627976Y-11155452D01*
X14608928Y-11164976D01*
X14589881Y-11164976D01*
X14570833Y-11155452D01*
X14561309Y-11145929D01*
X14551786Y-11126881D01*
X14542262Y-11088786D01*
X14542262Y-11041167D01*
X14551786Y-11003071D01*
X14561309Y-10984024D01*
X14570833Y-10974500D01*
X14589881Y-10964976D01*
X14742262Y-11164976D02*
X14742262Y-11031643D01*
X14742262Y-11050690D02*
X14751786Y-11041167D01*
X14770833Y-11031643D01*
X14799405Y-11031643D01*
X14818452Y-11041167D01*
X14827976Y-11060214D01*
X14827976Y-11164976D01*
X14827976Y-11060214D02*
X14837500Y-11041167D01*
X14856548Y-11031643D01*
X14885119Y-11031643D01*
X14904167Y-11041167D01*
X14913690Y-11060214D01*
X14913690Y-11164976D01*
X15008928Y-11164976D02*
X15008928Y-11031643D01*
X15008928Y-11050690D02*
X15018452Y-11041167D01*
X15037500Y-11031643D01*
X15066071Y-11031643D01*
X15085119Y-11041167D01*
X15094643Y-11060214D01*
X15094643Y-11164976D01*
X15094643Y-11060214D02*
X15104167Y-11041167D01*
X15123214Y-11031643D01*
X15151786Y-11031643D01*
X15170833Y-11041167D01*
X15180357Y-11060214D01*
X15180357Y-11164976D01*
X15570833Y-10955452D02*
X15399405Y-11212595D01*
X15827976Y-10964976D02*
X15847024Y-10964976D01*
X15866071Y-10974500D01*
X15875595Y-10984024D01*
X15885119Y-11003071D01*
X15894643Y-11041167D01*
X15894643Y-11088786D01*
X15885119Y-11126881D01*
X15875595Y-11145929D01*
X15866071Y-11155452D01*
X15847024Y-11164976D01*
X15827976Y-11164976D01*
X15808928Y-11155452D01*
X15799405Y-11145929D01*
X15789881Y-11126881D01*
X15780357Y-11088786D01*
X15780357Y-11041167D01*
X15789881Y-11003071D01*
X15799405Y-10984024D01*
X15808928Y-10974500D01*
X15827976Y-10964976D01*
X15980357Y-11145929D02*
X15989881Y-11155452D01*
X15980357Y-11164976D01*
X15970833Y-11155452D01*
X15980357Y-11145929D01*
X15980357Y-11164976D01*
X16113690Y-10964976D02*
X16132738Y-10964976D01*
X16151786Y-10974500D01*
X16161309Y-10984024D01*
X16170833Y-11003071D01*
X16180357Y-11041167D01*
X16180357Y-11088786D01*
X16170833Y-11126881D01*
X16161309Y-11145929D01*
X16151786Y-11155452D01*
X16132738Y-11164976D01*
X16113690Y-11164976D01*
X16094643Y-11155452D01*
X16085119Y-11145929D01*
X16075595Y-11126881D01*
X16066071Y-11088786D01*
X16066071Y-11041167D01*
X16075595Y-11003071D01*
X16085119Y-10984024D01*
X16094643Y-10974500D01*
X16113690Y-10964976D01*
X16247024Y-10964976D02*
X16370833Y-10964976D01*
X16304167Y-11041167D01*
X16332738Y-11041167D01*
X16351786Y-11050690D01*
X16361309Y-11060214D01*
X16370833Y-11079262D01*
X16370833Y-11126881D01*
X16361309Y-11145929D01*
X16351786Y-11155452D01*
X16332738Y-11164976D01*
X16275595Y-11164976D01*
X16256548Y-11155452D01*
X16247024Y-11145929D01*
X16466071Y-11164976D02*
X16504167Y-11164976D01*
X16523214Y-11155452D01*
X16532738Y-11145929D01*
X16551786Y-11117357D01*
X16561309Y-11079262D01*
X16561309Y-11003071D01*
X16551786Y-10984024D01*
X16542262Y-10974500D01*
X16523214Y-10964976D01*
X16485119Y-10964976D01*
X16466071Y-10974500D01*
X16456548Y-10984024D01*
X16447024Y-11003071D01*
X16447024Y-11050690D01*
X16456548Y-11069738D01*
X16466071Y-11079262D01*
X16485119Y-11088786D01*
X16523214Y-11088786D01*
X16542262Y-11079262D01*
X16551786Y-11069738D01*
X16561309Y-11050690D01*
X16732738Y-11031643D02*
X16732738Y-11164976D01*
X16685119Y-10955452D02*
X16637500Y-11098310D01*
X16761309Y-11098310D01*
X16827976Y-10964976D02*
X16827976Y-11003071D01*
X16904167Y-10964976D02*
X16904167Y-11003071D01*
X17199405Y-11241167D02*
X17189881Y-11231643D01*
X17170833Y-11203071D01*
X17161310Y-11184024D01*
X17151786Y-11155452D01*
X17142262Y-11107833D01*
X17142262Y-11069738D01*
X17151786Y-11022119D01*
X17161310Y-10993548D01*
X17170833Y-10974500D01*
X17189881Y-10945929D01*
X17199405Y-10936405D01*
X17361310Y-10964976D02*
X17323214Y-10964976D01*
X17304167Y-10974500D01*
X17294643Y-10984024D01*
X17275595Y-11012595D01*
X17266071Y-11050690D01*
X17266071Y-11126881D01*
X17275595Y-11145929D01*
X17285119Y-11155452D01*
X17304167Y-11164976D01*
X17342262Y-11164976D01*
X17361310Y-11155452D01*
X17370833Y-11145929D01*
X17380357Y-11126881D01*
X17380357Y-11079262D01*
X17370833Y-11060214D01*
X17361310Y-11050690D01*
X17342262Y-11041167D01*
X17304167Y-11041167D01*
X17285119Y-11050690D01*
X17275595Y-11060214D01*
X17266071Y-11079262D01*
X17618452Y-11164976D02*
X17618452Y-10964976D01*
X17704167Y-11164976D02*
X17704167Y-11060214D01*
X17694643Y-11041167D01*
X17675595Y-11031643D01*
X17647024Y-11031643D01*
X17627976Y-11041167D01*
X17618452Y-11050690D01*
X17827976Y-11164976D02*
X17808929Y-11155452D01*
X17799405Y-11145929D01*
X17789881Y-11126881D01*
X17789881Y-11069738D01*
X17799405Y-11050690D01*
X17808929Y-11041167D01*
X17827976Y-11031643D01*
X17856548Y-11031643D01*
X17875595Y-11041167D01*
X17885119Y-11050690D01*
X17894643Y-11069738D01*
X17894643Y-11126881D01*
X17885119Y-11145929D01*
X17875595Y-11155452D01*
X17856548Y-11164976D01*
X17827976Y-11164976D01*
X18008929Y-11164976D02*
X17989881Y-11155452D01*
X17980357Y-11136405D01*
X17980357Y-10964976D01*
X18161310Y-11155452D02*
X18142262Y-11164976D01*
X18104167Y-11164976D01*
X18085119Y-11155452D01*
X18075595Y-11136405D01*
X18075595Y-11060214D01*
X18085119Y-11041167D01*
X18104167Y-11031643D01*
X18142262Y-11031643D01*
X18161310Y-11041167D01*
X18170833Y-11060214D01*
X18170833Y-11079262D01*
X18075595Y-11098310D01*
X18247024Y-11155452D02*
X18266071Y-11164976D01*
X18304167Y-11164976D01*
X18323214Y-11155452D01*
X18332738Y-11136405D01*
X18332738Y-11126881D01*
X18323214Y-11107833D01*
X18304167Y-11098310D01*
X18275595Y-11098310D01*
X18256548Y-11088786D01*
X18247024Y-11069738D01*
X18247024Y-11060214D01*
X18256548Y-11041167D01*
X18275595Y-11031643D01*
X18304167Y-11031643D01*
X18323214Y-11041167D01*
X18399405Y-11241167D02*
X18408929Y-11231643D01*
X18427976Y-11203071D01*
X18437500Y-11184024D01*
X18447024Y-11155452D01*
X18456548Y-11107833D01*
X18456548Y-11069738D01*
X18447024Y-11022119D01*
X18437500Y-10993548D01*
X18427976Y-10974500D01*
X18408929Y-10945929D01*
X18399405Y-10936405D01*
D15*
X13572500Y-11393500D02*
X13627500Y-11338500D01*
X13572500Y-11283500D01*
X13517500Y-11338500D01*
X13572500Y-11393500D01*
D11*
X13989881Y-11428976D02*
X13875595Y-11428976D01*
X13932738Y-11428976D02*
X13932738Y-11228976D01*
X13913690Y-11257548D01*
X13894643Y-11276595D01*
X13875595Y-11286119D01*
X14075595Y-11409928D02*
X14085119Y-11419452D01*
X14075595Y-11428976D01*
X14066071Y-11419452D01*
X14075595Y-11409928D01*
X14075595Y-11428976D01*
X14275595Y-11428976D02*
X14161309Y-11428976D01*
X14218452Y-11428976D02*
X14218452Y-11228976D01*
X14199405Y-11257548D01*
X14180357Y-11276595D01*
X14161309Y-11286119D01*
X14399405Y-11228976D02*
X14418452Y-11228976D01*
X14437500Y-11238500D01*
X14447024Y-11248024D01*
X14456548Y-11267071D01*
X14466071Y-11305167D01*
X14466071Y-11352786D01*
X14456548Y-11390881D01*
X14447024Y-11409928D01*
X14437500Y-11419452D01*
X14418452Y-11428976D01*
X14399405Y-11428976D01*
X14380357Y-11419452D01*
X14370833Y-11409928D01*
X14361309Y-11390881D01*
X14351786Y-11352786D01*
X14351786Y-11305167D01*
X14361309Y-11267071D01*
X14370833Y-11248024D01*
X14380357Y-11238500D01*
X14399405Y-11228976D01*
X14589881Y-11228976D02*
X14608928Y-11228976D01*
X14627976Y-11238500D01*
X14637500Y-11248024D01*
X14647024Y-11267071D01*
X14656548Y-11305167D01*
X14656548Y-11352786D01*
X14647024Y-11390881D01*
X14637500Y-11409928D01*
X14627976Y-11419452D01*
X14608928Y-11428976D01*
X14589881Y-11428976D01*
X14570833Y-11419452D01*
X14561309Y-11409928D01*
X14551786Y-11390881D01*
X14542262Y-11352786D01*
X14542262Y-11305167D01*
X14551786Y-11267071D01*
X14561309Y-11248024D01*
X14570833Y-11238500D01*
X14589881Y-11228976D01*
X14742262Y-11428976D02*
X14742262Y-11295643D01*
X14742262Y-11314690D02*
X14751786Y-11305167D01*
X14770833Y-11295643D01*
X14799405Y-11295643D01*
X14818452Y-11305167D01*
X14827976Y-11324214D01*
X14827976Y-11428976D01*
X14827976Y-11324214D02*
X14837500Y-11305167D01*
X14856548Y-11295643D01*
X14885119Y-11295643D01*
X14904167Y-11305167D01*
X14913690Y-11324214D01*
X14913690Y-11428976D01*
X15008928Y-11428976D02*
X15008928Y-11295643D01*
X15008928Y-11314690D02*
X15018452Y-11305167D01*
X15037500Y-11295643D01*
X15066071Y-11295643D01*
X15085119Y-11305167D01*
X15094643Y-11324214D01*
X15094643Y-11428976D01*
X15094643Y-11324214D02*
X15104167Y-11305167D01*
X15123214Y-11295643D01*
X15151786Y-11295643D01*
X15170833Y-11305167D01*
X15180357Y-11324214D01*
X15180357Y-11428976D01*
X15570833Y-11219452D02*
X15399405Y-11476595D01*
X15827976Y-11228976D02*
X15847024Y-11228976D01*
X15866071Y-11238500D01*
X15875595Y-11248024D01*
X15885119Y-11267071D01*
X15894643Y-11305167D01*
X15894643Y-11352786D01*
X15885119Y-11390881D01*
X15875595Y-11409928D01*
X15866071Y-11419452D01*
X15847024Y-11428976D01*
X15827976Y-11428976D01*
X15808928Y-11419452D01*
X15799405Y-11409928D01*
X15789881Y-11390881D01*
X15780357Y-11352786D01*
X15780357Y-11305167D01*
X15789881Y-11267071D01*
X15799405Y-11248024D01*
X15808928Y-11238500D01*
X15827976Y-11228976D01*
X15980357Y-11409928D02*
X15989881Y-11419452D01*
X15980357Y-11428976D01*
X15970833Y-11419452D01*
X15980357Y-11409928D01*
X15980357Y-11428976D01*
X16113690Y-11228976D02*
X16132738Y-11228976D01*
X16151786Y-11238500D01*
X16161309Y-11248024D01*
X16170833Y-11267071D01*
X16180357Y-11305167D01*
X16180357Y-11352786D01*
X16170833Y-11390881D01*
X16161309Y-11409928D01*
X16151786Y-11419452D01*
X16132738Y-11428976D01*
X16113690Y-11428976D01*
X16094643Y-11419452D01*
X16085119Y-11409928D01*
X16075595Y-11390881D01*
X16066071Y-11352786D01*
X16066071Y-11305167D01*
X16075595Y-11267071D01*
X16085119Y-11248024D01*
X16094643Y-11238500D01*
X16113690Y-11228976D01*
X16351786Y-11295643D02*
X16351786Y-11428976D01*
X16304167Y-11219452D02*
X16256548Y-11362309D01*
X16380357Y-11362309D01*
X16437500Y-11228976D02*
X16561309Y-11228976D01*
X16494643Y-11305167D01*
X16523214Y-11305167D01*
X16542262Y-11314690D01*
X16551786Y-11324214D01*
X16561309Y-11343262D01*
X16561309Y-11390881D01*
X16551786Y-11409928D01*
X16542262Y-11419452D01*
X16523214Y-11428976D01*
X16466071Y-11428976D01*
X16447024Y-11419452D01*
X16437500Y-11409928D01*
X16627976Y-11228976D02*
X16751786Y-11228976D01*
X16685119Y-11305167D01*
X16713690Y-11305167D01*
X16732738Y-11314690D01*
X16742262Y-11324214D01*
X16751786Y-11343262D01*
X16751786Y-11390881D01*
X16742262Y-11409928D01*
X16732738Y-11419452D01*
X16713690Y-11428976D01*
X16656548Y-11428976D01*
X16637500Y-11419452D01*
X16627976Y-11409928D01*
X16827976Y-11228976D02*
X16827976Y-11267071D01*
X16904167Y-11228976D02*
X16904167Y-11267071D01*
X17199405Y-11505167D02*
X17189881Y-11495643D01*
X17170833Y-11467071D01*
X17161310Y-11448024D01*
X17151786Y-11419452D01*
X17142262Y-11371833D01*
X17142262Y-11333738D01*
X17151786Y-11286119D01*
X17161310Y-11257548D01*
X17170833Y-11238500D01*
X17189881Y-11209928D01*
X17199405Y-11200405D01*
X17266071Y-11248024D02*
X17275595Y-11238500D01*
X17294643Y-11228976D01*
X17342262Y-11228976D01*
X17361310Y-11238500D01*
X17370833Y-11248024D01*
X17380357Y-11267071D01*
X17380357Y-11286119D01*
X17370833Y-11314690D01*
X17256548Y-11428976D01*
X17380357Y-11428976D01*
X17618452Y-11428976D02*
X17618452Y-11228976D01*
X17704167Y-11428976D02*
X17704167Y-11324214D01*
X17694643Y-11305167D01*
X17675595Y-11295643D01*
X17647024Y-11295643D01*
X17627976Y-11305167D01*
X17618452Y-11314690D01*
X17827976Y-11428976D02*
X17808929Y-11419452D01*
X17799405Y-11409928D01*
X17789881Y-11390881D01*
X17789881Y-11333738D01*
X17799405Y-11314690D01*
X17808929Y-11305167D01*
X17827976Y-11295643D01*
X17856548Y-11295643D01*
X17875595Y-11305167D01*
X17885119Y-11314690D01*
X17894643Y-11333738D01*
X17894643Y-11390881D01*
X17885119Y-11409928D01*
X17875595Y-11419452D01*
X17856548Y-11428976D01*
X17827976Y-11428976D01*
X18008929Y-11428976D02*
X17989881Y-11419452D01*
X17980357Y-11400405D01*
X17980357Y-11228976D01*
X18161310Y-11419452D02*
X18142262Y-11428976D01*
X18104167Y-11428976D01*
X18085119Y-11419452D01*
X18075595Y-11400405D01*
X18075595Y-11324214D01*
X18085119Y-11305167D01*
X18104167Y-11295643D01*
X18142262Y-11295643D01*
X18161310Y-11305167D01*
X18170833Y-11324214D01*
X18170833Y-11343262D01*
X18075595Y-11362309D01*
X18247024Y-11419452D02*
X18266071Y-11428976D01*
X18304167Y-11428976D01*
X18323214Y-11419452D01*
X18332738Y-11400405D01*
X18332738Y-11390881D01*
X18323214Y-11371833D01*
X18304167Y-11362309D01*
X18275595Y-11362309D01*
X18256548Y-11352786D01*
X18247024Y-11333738D01*
X18247024Y-11324214D01*
X18256548Y-11305167D01*
X18275595Y-11295643D01*
X18304167Y-11295643D01*
X18323214Y-11305167D01*
X18399405Y-11505167D02*
X18408929Y-11495643D01*
X18427976Y-11467071D01*
X18437500Y-11448024D01*
X18447024Y-11419452D01*
X18456548Y-11371833D01*
X18456548Y-11333738D01*
X18447024Y-11286119D01*
X18437500Y-11257548D01*
X18427976Y-11238500D01*
X18408929Y-11209928D01*
X18399405Y-11200405D01*
X13427500Y-11502500D02*
X13627500Y-11702500D01*
X13627500Y-11502500D02*
X13427500Y-11702500D01*
X13627500Y-11602500D02*
G75*
G03*
X13627500Y-11602500I-100000J0D01*
G01*
X13875595Y-11512024D02*
X13885119Y-11502500D01*
X13904167Y-11492976D01*
X13951786Y-11492976D01*
X13970833Y-11502500D01*
X13980357Y-11512024D01*
X13989881Y-11531071D01*
X13989881Y-11550119D01*
X13980357Y-11578690D01*
X13866071Y-11692976D01*
X13989881Y-11692976D01*
X14075595Y-11673928D02*
X14085119Y-11683452D01*
X14075595Y-11692976D01*
X14066071Y-11683452D01*
X14075595Y-11673928D01*
X14075595Y-11692976D01*
X14161309Y-11512024D02*
X14170833Y-11502500D01*
X14189881Y-11492976D01*
X14237500Y-11492976D01*
X14256548Y-11502500D01*
X14266071Y-11512024D01*
X14275595Y-11531071D01*
X14275595Y-11550119D01*
X14266071Y-11578690D01*
X14151786Y-11692976D01*
X14275595Y-11692976D01*
X14399405Y-11492976D02*
X14418452Y-11492976D01*
X14437500Y-11502500D01*
X14447024Y-11512024D01*
X14456548Y-11531071D01*
X14466071Y-11569167D01*
X14466071Y-11616786D01*
X14456548Y-11654881D01*
X14447024Y-11673928D01*
X14437500Y-11683452D01*
X14418452Y-11692976D01*
X14399405Y-11692976D01*
X14380357Y-11683452D01*
X14370833Y-11673928D01*
X14361309Y-11654881D01*
X14351786Y-11616786D01*
X14351786Y-11569167D01*
X14361309Y-11531071D01*
X14370833Y-11512024D01*
X14380357Y-11502500D01*
X14399405Y-11492976D01*
X14589881Y-11492976D02*
X14608928Y-11492976D01*
X14627976Y-11502500D01*
X14637500Y-11512024D01*
X14647024Y-11531071D01*
X14656548Y-11569167D01*
X14656548Y-11616786D01*
X14647024Y-11654881D01*
X14637500Y-11673928D01*
X14627976Y-11683452D01*
X14608928Y-11692976D01*
X14589881Y-11692976D01*
X14570833Y-11683452D01*
X14561309Y-11673928D01*
X14551786Y-11654881D01*
X14542262Y-11616786D01*
X14542262Y-11569167D01*
X14551786Y-11531071D01*
X14561309Y-11512024D01*
X14570833Y-11502500D01*
X14589881Y-11492976D01*
X14742262Y-11692976D02*
X14742262Y-11559643D01*
X14742262Y-11578690D02*
X14751786Y-11569167D01*
X14770833Y-11559643D01*
X14799405Y-11559643D01*
X14818452Y-11569167D01*
X14827976Y-11588214D01*
X14827976Y-11692976D01*
X14827976Y-11588214D02*
X14837500Y-11569167D01*
X14856548Y-11559643D01*
X14885119Y-11559643D01*
X14904167Y-11569167D01*
X14913690Y-11588214D01*
X14913690Y-11692976D01*
X15008928Y-11692976D02*
X15008928Y-11559643D01*
X15008928Y-11578690D02*
X15018452Y-11569167D01*
X15037500Y-11559643D01*
X15066071Y-11559643D01*
X15085119Y-11569167D01*
X15094643Y-11588214D01*
X15094643Y-11692976D01*
X15094643Y-11588214D02*
X15104167Y-11569167D01*
X15123214Y-11559643D01*
X15151786Y-11559643D01*
X15170833Y-11569167D01*
X15180357Y-11588214D01*
X15180357Y-11692976D01*
X15570833Y-11483452D02*
X15399405Y-11740595D01*
X15827976Y-11492976D02*
X15847024Y-11492976D01*
X15866071Y-11502500D01*
X15875595Y-11512024D01*
X15885119Y-11531071D01*
X15894643Y-11569167D01*
X15894643Y-11616786D01*
X15885119Y-11654881D01*
X15875595Y-11673928D01*
X15866071Y-11683452D01*
X15847024Y-11692976D01*
X15827976Y-11692976D01*
X15808928Y-11683452D01*
X15799405Y-11673928D01*
X15789881Y-11654881D01*
X15780357Y-11616786D01*
X15780357Y-11569167D01*
X15789881Y-11531071D01*
X15799405Y-11512024D01*
X15808928Y-11502500D01*
X15827976Y-11492976D01*
X15980357Y-11673928D02*
X15989881Y-11683452D01*
X15980357Y-11692976D01*
X15970833Y-11683452D01*
X15980357Y-11673928D01*
X15980357Y-11692976D01*
X16113690Y-11492976D02*
X16132738Y-11492976D01*
X16151786Y-11502500D01*
X16161309Y-11512024D01*
X16170833Y-11531071D01*
X16180357Y-11569167D01*
X16180357Y-11616786D01*
X16170833Y-11654881D01*
X16161309Y-11673928D01*
X16151786Y-11683452D01*
X16132738Y-11692976D01*
X16113690Y-11692976D01*
X16094643Y-11683452D01*
X16085119Y-11673928D01*
X16075595Y-11654881D01*
X16066071Y-11616786D01*
X16066071Y-11569167D01*
X16075595Y-11531071D01*
X16085119Y-11512024D01*
X16094643Y-11502500D01*
X16113690Y-11492976D01*
X16294643Y-11578690D02*
X16275595Y-11569167D01*
X16266071Y-11559643D01*
X16256548Y-11540595D01*
X16256548Y-11531071D01*
X16266071Y-11512024D01*
X16275595Y-11502500D01*
X16294643Y-11492976D01*
X16332738Y-11492976D01*
X16351786Y-11502500D01*
X16361309Y-11512024D01*
X16370833Y-11531071D01*
X16370833Y-11540595D01*
X16361309Y-11559643D01*
X16351786Y-11569167D01*
X16332738Y-11578690D01*
X16294643Y-11578690D01*
X16275595Y-11588214D01*
X16266071Y-11597738D01*
X16256548Y-11616786D01*
X16256548Y-11654881D01*
X16266071Y-11673928D01*
X16275595Y-11683452D01*
X16294643Y-11692976D01*
X16332738Y-11692976D01*
X16351786Y-11683452D01*
X16361309Y-11673928D01*
X16370833Y-11654881D01*
X16370833Y-11616786D01*
X16361309Y-11597738D01*
X16351786Y-11588214D01*
X16332738Y-11578690D01*
X16542262Y-11492976D02*
X16504167Y-11492976D01*
X16485119Y-11502500D01*
X16475595Y-11512024D01*
X16456548Y-11540595D01*
X16447024Y-11578690D01*
X16447024Y-11654881D01*
X16456548Y-11673928D01*
X16466071Y-11683452D01*
X16485119Y-11692976D01*
X16523214Y-11692976D01*
X16542262Y-11683452D01*
X16551786Y-11673928D01*
X16561309Y-11654881D01*
X16561309Y-11607262D01*
X16551786Y-11588214D01*
X16542262Y-11578690D01*
X16523214Y-11569167D01*
X16485119Y-11569167D01*
X16466071Y-11578690D01*
X16456548Y-11588214D01*
X16447024Y-11607262D01*
X16732738Y-11492976D02*
X16694643Y-11492976D01*
X16675595Y-11502500D01*
X16666071Y-11512024D01*
X16647024Y-11540595D01*
X16637500Y-11578690D01*
X16637500Y-11654881D01*
X16647024Y-11673928D01*
X16656548Y-11683452D01*
X16675595Y-11692976D01*
X16713690Y-11692976D01*
X16732738Y-11683452D01*
X16742262Y-11673928D01*
X16751786Y-11654881D01*
X16751786Y-11607262D01*
X16742262Y-11588214D01*
X16732738Y-11578690D01*
X16713690Y-11569167D01*
X16675595Y-11569167D01*
X16656548Y-11578690D01*
X16647024Y-11588214D01*
X16637500Y-11607262D01*
X16827976Y-11492976D02*
X16827976Y-11531071D01*
X16904167Y-11492976D02*
X16904167Y-11531071D01*
X17199405Y-11769167D02*
X17189881Y-11759643D01*
X17170833Y-11731071D01*
X17161310Y-11712024D01*
X17151786Y-11683452D01*
X17142262Y-11635833D01*
X17142262Y-11597738D01*
X17151786Y-11550119D01*
X17161310Y-11521548D01*
X17170833Y-11502500D01*
X17189881Y-11473928D01*
X17199405Y-11464405D01*
X17266071Y-11512024D02*
X17275595Y-11502500D01*
X17294643Y-11492976D01*
X17342262Y-11492976D01*
X17361310Y-11502500D01*
X17370833Y-11512024D01*
X17380357Y-11531071D01*
X17380357Y-11550119D01*
X17370833Y-11578690D01*
X17256548Y-11692976D01*
X17380357Y-11692976D01*
X17618452Y-11692976D02*
X17618452Y-11492976D01*
X17704167Y-11692976D02*
X17704167Y-11588214D01*
X17694643Y-11569167D01*
X17675595Y-11559643D01*
X17647024Y-11559643D01*
X17627976Y-11569167D01*
X17618452Y-11578690D01*
X17827976Y-11692976D02*
X17808929Y-11683452D01*
X17799405Y-11673928D01*
X17789881Y-11654881D01*
X17789881Y-11597738D01*
X17799405Y-11578690D01*
X17808929Y-11569167D01*
X17827976Y-11559643D01*
X17856548Y-11559643D01*
X17875595Y-11569167D01*
X17885119Y-11578690D01*
X17894643Y-11597738D01*
X17894643Y-11654881D01*
X17885119Y-11673928D01*
X17875595Y-11683452D01*
X17856548Y-11692976D01*
X17827976Y-11692976D01*
X18008929Y-11692976D02*
X17989881Y-11683452D01*
X17980357Y-11664405D01*
X17980357Y-11492976D01*
X18161310Y-11683452D02*
X18142262Y-11692976D01*
X18104167Y-11692976D01*
X18085119Y-11683452D01*
X18075595Y-11664405D01*
X18075595Y-11588214D01*
X18085119Y-11569167D01*
X18104167Y-11559643D01*
X18142262Y-11559643D01*
X18161310Y-11569167D01*
X18170833Y-11588214D01*
X18170833Y-11607262D01*
X18075595Y-11626309D01*
X18247024Y-11683452D02*
X18266071Y-11692976D01*
X18304167Y-11692976D01*
X18323214Y-11683452D01*
X18332738Y-11664405D01*
X18332738Y-11654881D01*
X18323214Y-11635833D01*
X18304167Y-11626309D01*
X18275595Y-11626309D01*
X18256548Y-11616786D01*
X18247024Y-11597738D01*
X18247024Y-11588214D01*
X18256548Y-11569167D01*
X18275595Y-11559643D01*
X18304167Y-11559643D01*
X18323214Y-11569167D01*
X18399405Y-11769167D02*
X18408929Y-11759643D01*
X18427976Y-11731071D01*
X18437500Y-11712024D01*
X18447024Y-11683452D01*
X18456548Y-11635833D01*
X18456548Y-11597738D01*
X18447024Y-11550119D01*
X18437500Y-11521548D01*
X18427976Y-11502500D01*
X18408929Y-11473928D01*
X18399405Y-11464405D01*
M02*
