G04 #@! TF.GenerationSoftware,KiCad,Pcbnew,(6.0.2)*
G04 #@! TF.CreationDate,2022-09-28T01:57:24+02:00*
G04 #@! TF.ProjectId,Tiny-Power-Meter,54696e79-2d50-46f7-9765-722d4d657465,rev?*
G04 #@! TF.SameCoordinates,Original*
G04 #@! TF.FileFunction,Legend,Bot*
G04 #@! TF.FilePolarity,Positive*
%FSLAX46Y46*%
G04 Gerber Fmt 4.6, Leading zero omitted, Abs format (unit mm)*
G04 Created by KiCad (PCBNEW (6.0.2)) date 2022-09-28 01:57:24*
%MOMM*%
%LPD*%
G01*
G04 APERTURE LIST*
G04 Aperture macros list*
%AMRoundRect*
0 Rectangle with rounded corners*
0 $1 Rounding radius*
0 $2 $3 $4 $5 $6 $7 $8 $9 X,Y pos of 4 corners*
0 Add a 4 corners polygon primitive as box body*
4,1,4,$2,$3,$4,$5,$6,$7,$8,$9,$2,$3,0*
0 Add four circle primitives for the rounded corners*
1,1,$1+$1,$2,$3*
1,1,$1+$1,$4,$5*
1,1,$1+$1,$6,$7*
1,1,$1+$1,$8,$9*
0 Add four rect primitives between the rounded corners*
20,1,$1+$1,$2,$3,$4,$5,0*
20,1,$1+$1,$4,$5,$6,$7,0*
20,1,$1+$1,$6,$7,$8,$9,0*
20,1,$1+$1,$8,$9,$2,$3,0*%
G04 Aperture macros list end*
%ADD10C,0.150000*%
%ADD11C,0.130000*%
%ADD12C,0.120000*%
%ADD13C,0.100000*%
%ADD14R,2.200000X2.200000*%
%ADD15C,2.200000*%
%ADD16R,1.350000X1.350000*%
%ADD17O,1.350000X1.350000*%
%ADD18C,1.350000*%
%ADD19R,1.700000X1.700000*%
%ADD20O,1.700000X1.700000*%
%ADD21C,0.700000*%
%ADD22C,4.400000*%
%ADD23RoundRect,0.250000X0.450000X-0.262500X0.450000X0.262500X-0.450000X0.262500X-0.450000X-0.262500X0*%
%ADD24RoundRect,0.250000X0.262500X0.450000X-0.262500X0.450000X-0.262500X-0.450000X0.262500X-0.450000X0*%
%ADD25RoundRect,0.250000X-0.450000X0.262500X-0.450000X-0.262500X0.450000X-0.262500X0.450000X0.262500X0*%
%ADD26O,1.600000X1.600000*%
%ADD27R,1.600000X1.600000*%
%ADD28RoundRect,0.250000X-0.250000X-0.475000X0.250000X-0.475000X0.250000X0.475000X-0.250000X0.475000X0*%
G04 APERTURE END LIST*
D10*
X157900000Y-85900000D02*
X157900000Y-86300000D01*
X156400000Y-85900000D02*
G75*
G03*
X157900000Y-85900000I750000J660052D01*
G01*
X157900000Y-85900000D02*
X157500000Y-85900000D01*
X150547619Y-83619047D02*
X149833333Y-83619047D01*
X149690476Y-83666666D01*
X149595238Y-83761904D01*
X149547619Y-83904761D01*
X149547619Y-84000000D01*
X149547619Y-82666666D02*
X149547619Y-83142857D01*
X150547619Y-83142857D01*
X149642857Y-81761904D02*
X149595238Y-81809523D01*
X149547619Y-81952380D01*
X149547619Y-82047619D01*
X149595238Y-82190476D01*
X149690476Y-82285714D01*
X149785714Y-82333333D01*
X149976190Y-82380952D01*
X150119047Y-82380952D01*
X150309523Y-82333333D01*
X150404761Y-82285714D01*
X150500000Y-82190476D01*
X150547619Y-82047619D01*
X150547619Y-81952380D01*
X150500000Y-81809523D01*
X150452380Y-81761904D01*
X150547619Y-81047619D02*
X149833333Y-81047619D01*
X149690476Y-81095238D01*
X149595238Y-81190476D01*
X149547619Y-81333333D01*
X149547619Y-81428571D01*
X149547619Y-80095238D02*
X149547619Y-80571428D01*
X150547619Y-80571428D01*
X149642857Y-79190476D02*
X149595238Y-79238095D01*
X149547619Y-79380952D01*
X149547619Y-79476190D01*
X149595238Y-79619047D01*
X149690476Y-79714285D01*
X149785714Y-79761904D01*
X149976190Y-79809523D01*
X150119047Y-79809523D01*
X150309523Y-79761904D01*
X150404761Y-79714285D01*
X150500000Y-79619047D01*
X150547619Y-79476190D01*
X150547619Y-79380952D01*
X150500000Y-79238095D01*
X150452380Y-79190476D01*
X150547619Y-78476190D02*
X149833333Y-78476190D01*
X149690476Y-78523809D01*
X149595238Y-78619047D01*
X149547619Y-78761904D01*
X149547619Y-78857142D01*
X149547619Y-77523809D02*
X149547619Y-78000000D01*
X150547619Y-78000000D01*
X149642857Y-76619047D02*
X149595238Y-76666666D01*
X149547619Y-76809523D01*
X149547619Y-76904761D01*
X149595238Y-77047619D01*
X149690476Y-77142857D01*
X149785714Y-77190476D01*
X149976190Y-77238095D01*
X150119047Y-77238095D01*
X150309523Y-77190476D01*
X150404761Y-77142857D01*
X150500000Y-77047619D01*
X150547619Y-76904761D01*
X150547619Y-76809523D01*
X150500000Y-76666666D01*
X150452380Y-76619047D01*
X150547619Y-75904761D02*
X149833333Y-75904761D01*
X149690476Y-75952380D01*
X149595238Y-76047619D01*
X149547619Y-76190476D01*
X149547619Y-76285714D01*
X149547619Y-74952380D02*
X149547619Y-75428571D01*
X150547619Y-75428571D01*
X149642857Y-74047619D02*
X149595238Y-74095238D01*
X149547619Y-74238095D01*
X149547619Y-74333333D01*
X149595238Y-74476190D01*
X149690476Y-74571428D01*
X149785714Y-74619047D01*
X149976190Y-74666666D01*
X150119047Y-74666666D01*
X150309523Y-74619047D01*
X150404761Y-74571428D01*
X150500000Y-74476190D01*
X150547619Y-74333333D01*
X150547619Y-74238095D01*
X150500000Y-74095238D01*
X150452380Y-74047619D01*
X145171428Y-93607142D02*
X145171428Y-92707142D01*
X145171428Y-93050000D02*
X145085714Y-93007142D01*
X144914285Y-93007142D01*
X144828571Y-93050000D01*
X144785714Y-93092857D01*
X144742857Y-93178571D01*
X144742857Y-93435714D01*
X144785714Y-93521428D01*
X144828571Y-93564285D01*
X144914285Y-93607142D01*
X145085714Y-93607142D01*
X145171428Y-93564285D01*
X144442857Y-93007142D02*
X144228571Y-93607142D01*
X144014285Y-93007142D02*
X144228571Y-93607142D01*
X144314285Y-93821428D01*
X144357142Y-93864285D01*
X144442857Y-93907142D01*
X143028571Y-93350000D02*
X142600000Y-93350000D01*
X143114285Y-93607142D02*
X142814285Y-92707142D01*
X142514285Y-93607142D01*
X142214285Y-93007142D02*
X142214285Y-93607142D01*
X142214285Y-93092857D02*
X142171428Y-93050000D01*
X142085714Y-93007142D01*
X141957142Y-93007142D01*
X141871428Y-93050000D01*
X141828571Y-93135714D01*
X141828571Y-93607142D01*
X141014285Y-93607142D02*
X141014285Y-92707142D01*
X141014285Y-93564285D02*
X141100000Y-93607142D01*
X141271428Y-93607142D01*
X141357142Y-93564285D01*
X141400000Y-93521428D01*
X141442857Y-93435714D01*
X141442857Y-93178571D01*
X141400000Y-93092857D01*
X141357142Y-93050000D01*
X141271428Y-93007142D01*
X141100000Y-93007142D01*
X141014285Y-93050000D01*
X140671428Y-93007142D02*
X140457142Y-93607142D01*
X140242857Y-93007142D02*
X140457142Y-93607142D01*
X140542857Y-93821428D01*
X140585714Y-93864285D01*
X140671428Y-93907142D01*
D11*
X139150000Y-93150000D02*
X138983333Y-93616666D01*
X138816666Y-93150000D01*
X138183333Y-93616666D02*
X138583333Y-93616666D01*
X138383333Y-93616666D02*
X138383333Y-92916666D01*
X138450000Y-93016666D01*
X138516666Y-93083333D01*
X138583333Y-93116666D01*
X137883333Y-93616666D02*
X137883333Y-93150000D01*
X137883333Y-93283333D02*
X137850000Y-93216666D01*
X137816666Y-93183333D01*
X137750000Y-93150000D01*
X137683333Y-93150000D01*
X137083333Y-93616666D02*
X137483333Y-93616666D01*
X137283333Y-93616666D02*
X137283333Y-92916666D01*
X137350000Y-93016666D01*
X137416666Y-93083333D01*
X137483333Y-93116666D01*
D10*
X143985714Y-88786714D02*
X143685714Y-88786714D01*
X143557142Y-89258142D02*
X143985714Y-89258142D01*
X143985714Y-88358142D01*
X143557142Y-88358142D01*
X143214285Y-89215285D02*
X143085714Y-89258142D01*
X142871428Y-89258142D01*
X142785714Y-89215285D01*
X142742857Y-89172428D01*
X142700000Y-89086714D01*
X142700000Y-89001000D01*
X142742857Y-88915285D01*
X142785714Y-88872428D01*
X142871428Y-88829571D01*
X143042857Y-88786714D01*
X143128571Y-88743857D01*
X143171428Y-88701000D01*
X143214285Y-88615285D01*
X143214285Y-88529571D01*
X143171428Y-88443857D01*
X143128571Y-88401000D01*
X143042857Y-88358142D01*
X142828571Y-88358142D01*
X142700000Y-88401000D01*
X142314285Y-89258142D02*
X142314285Y-88358142D01*
X141971428Y-88358142D01*
X141885714Y-88401000D01*
X141842857Y-88443857D01*
X141800000Y-88529571D01*
X141800000Y-88658142D01*
X141842857Y-88743857D01*
X141885714Y-88786714D01*
X141971428Y-88829571D01*
X142314285Y-88829571D01*
X141285714Y-88743857D02*
X141371428Y-88701000D01*
X141414285Y-88658142D01*
X141457142Y-88572428D01*
X141457142Y-88529571D01*
X141414285Y-88443857D01*
X141371428Y-88401000D01*
X141285714Y-88358142D01*
X141114285Y-88358142D01*
X141028571Y-88401000D01*
X140985714Y-88443857D01*
X140942857Y-88529571D01*
X140942857Y-88572428D01*
X140985714Y-88658142D01*
X141028571Y-88701000D01*
X141114285Y-88743857D01*
X141285714Y-88743857D01*
X141371428Y-88786714D01*
X141414285Y-88829571D01*
X141457142Y-88915285D01*
X141457142Y-89086714D01*
X141414285Y-89172428D01*
X141371428Y-89215285D01*
X141285714Y-89258142D01*
X141114285Y-89258142D01*
X141028571Y-89215285D01*
X140985714Y-89172428D01*
X140942857Y-89086714D01*
X140942857Y-88915285D01*
X140985714Y-88829571D01*
X141028571Y-88786714D01*
X141114285Y-88743857D01*
X140600000Y-88443857D02*
X140557142Y-88401000D01*
X140471428Y-88358142D01*
X140257142Y-88358142D01*
X140171428Y-88401000D01*
X140128571Y-88443857D01*
X140085714Y-88529571D01*
X140085714Y-88615285D01*
X140128571Y-88743857D01*
X140642857Y-89258142D01*
X140085714Y-89258142D01*
X139314285Y-88358142D02*
X139485714Y-88358142D01*
X139571428Y-88401000D01*
X139614285Y-88443857D01*
X139700000Y-88572428D01*
X139742857Y-88743857D01*
X139742857Y-89086714D01*
X139700000Y-89172428D01*
X139657142Y-89215285D01*
X139571428Y-89258142D01*
X139400000Y-89258142D01*
X139314285Y-89215285D01*
X139271428Y-89172428D01*
X139228571Y-89086714D01*
X139228571Y-88872428D01*
X139271428Y-88786714D01*
X139314285Y-88743857D01*
X139400000Y-88701000D01*
X139571428Y-88701000D01*
X139657142Y-88743857D01*
X139700000Y-88786714D01*
X139742857Y-88872428D01*
X138457142Y-88358142D02*
X138628571Y-88358142D01*
X138714285Y-88401000D01*
X138757142Y-88443857D01*
X138842857Y-88572428D01*
X138885714Y-88743857D01*
X138885714Y-89086714D01*
X138842857Y-89172428D01*
X138800000Y-89215285D01*
X138714285Y-89258142D01*
X138542857Y-89258142D01*
X138457142Y-89215285D01*
X138414285Y-89172428D01*
X138371428Y-89086714D01*
X138371428Y-88872428D01*
X138414285Y-88786714D01*
X138457142Y-88743857D01*
X138542857Y-88701000D01*
X138714285Y-88701000D01*
X138800000Y-88743857D01*
X138842857Y-88786714D01*
X138885714Y-88872428D01*
X143857142Y-89807142D02*
X143300000Y-89807142D01*
X143600000Y-90150000D01*
X143471428Y-90150000D01*
X143385714Y-90192857D01*
X143342857Y-90235714D01*
X143300000Y-90321428D01*
X143300000Y-90535714D01*
X143342857Y-90621428D01*
X143385714Y-90664285D01*
X143471428Y-90707142D01*
X143728571Y-90707142D01*
X143814285Y-90664285D01*
X143857142Y-90621428D01*
X142228571Y-90707142D02*
X142228571Y-89807142D01*
X141885714Y-89807142D01*
X141800000Y-89850000D01*
X141757142Y-89892857D01*
X141714285Y-89978571D01*
X141714285Y-90107142D01*
X141757142Y-90192857D01*
X141800000Y-90235714D01*
X141885714Y-90278571D01*
X142228571Y-90278571D01*
X141328571Y-90707142D02*
X141328571Y-89807142D01*
X140942857Y-90707142D02*
X140942857Y-90235714D01*
X140985714Y-90150000D01*
X141071428Y-90107142D01*
X141200000Y-90107142D01*
X141285714Y-90150000D01*
X141328571Y-90192857D01*
X140128571Y-90707142D02*
X140128571Y-90235714D01*
X140171428Y-90150000D01*
X140257142Y-90107142D01*
X140428571Y-90107142D01*
X140514285Y-90150000D01*
X140128571Y-90664285D02*
X140214285Y-90707142D01*
X140428571Y-90707142D01*
X140514285Y-90664285D01*
X140557142Y-90578571D01*
X140557142Y-90492857D01*
X140514285Y-90407142D01*
X140428571Y-90364285D01*
X140214285Y-90364285D01*
X140128571Y-90321428D01*
X139742857Y-90664285D02*
X139657142Y-90707142D01*
X139485714Y-90707142D01*
X139400000Y-90664285D01*
X139357142Y-90578571D01*
X139357142Y-90535714D01*
X139400000Y-90450000D01*
X139485714Y-90407142D01*
X139614285Y-90407142D01*
X139700000Y-90364285D01*
X139742857Y-90278571D01*
X139742857Y-90235714D01*
X139700000Y-90150000D01*
X139614285Y-90107142D01*
X139485714Y-90107142D01*
X139400000Y-90150000D01*
X138628571Y-90664285D02*
X138714285Y-90707142D01*
X138885714Y-90707142D01*
X138971428Y-90664285D01*
X139014285Y-90578571D01*
X139014285Y-90235714D01*
X138971428Y-90150000D01*
X138885714Y-90107142D01*
X138714285Y-90107142D01*
X138628571Y-90150000D01*
X138585714Y-90235714D01*
X138585714Y-90321428D01*
X139014285Y-90407142D01*
X145142857Y-92156142D02*
X145142857Y-91256142D01*
X144800000Y-91256142D01*
X144714285Y-91299000D01*
X144671428Y-91341857D01*
X144628571Y-91427571D01*
X144628571Y-91556142D01*
X144671428Y-91641857D01*
X144714285Y-91684714D01*
X144800000Y-91727571D01*
X145142857Y-91727571D01*
X144114285Y-92156142D02*
X144200000Y-92113285D01*
X144242857Y-92070428D01*
X144285714Y-91984714D01*
X144285714Y-91727571D01*
X144242857Y-91641857D01*
X144200000Y-91599000D01*
X144114285Y-91556142D01*
X143985714Y-91556142D01*
X143900000Y-91599000D01*
X143857142Y-91641857D01*
X143814285Y-91727571D01*
X143814285Y-91984714D01*
X143857142Y-92070428D01*
X143900000Y-92113285D01*
X143985714Y-92156142D01*
X144114285Y-92156142D01*
X143514285Y-91556142D02*
X143342857Y-92156142D01*
X143171428Y-91727571D01*
X143000000Y-92156142D01*
X142828571Y-91556142D01*
X142142857Y-92113285D02*
X142228571Y-92156142D01*
X142400000Y-92156142D01*
X142485714Y-92113285D01*
X142528571Y-92027571D01*
X142528571Y-91684714D01*
X142485714Y-91599000D01*
X142400000Y-91556142D01*
X142228571Y-91556142D01*
X142142857Y-91599000D01*
X142100000Y-91684714D01*
X142100000Y-91770428D01*
X142528571Y-91856142D01*
X141714285Y-92156142D02*
X141714285Y-91556142D01*
X141714285Y-91727571D02*
X141671428Y-91641857D01*
X141628571Y-91599000D01*
X141542857Y-91556142D01*
X141457142Y-91556142D01*
X140471428Y-92156142D02*
X140471428Y-91256142D01*
X140171428Y-91899000D01*
X139871428Y-91256142D01*
X139871428Y-92156142D01*
X139100000Y-92113285D02*
X139185714Y-92156142D01*
X139357142Y-92156142D01*
X139442857Y-92113285D01*
X139485714Y-92027571D01*
X139485714Y-91684714D01*
X139442857Y-91599000D01*
X139357142Y-91556142D01*
X139185714Y-91556142D01*
X139100000Y-91599000D01*
X139057142Y-91684714D01*
X139057142Y-91770428D01*
X139485714Y-91856142D01*
X138800000Y-91556142D02*
X138457142Y-91556142D01*
X138671428Y-91256142D02*
X138671428Y-92027571D01*
X138628571Y-92113285D01*
X138542857Y-92156142D01*
X138457142Y-92156142D01*
X137814285Y-92113285D02*
X137900000Y-92156142D01*
X138071428Y-92156142D01*
X138157142Y-92113285D01*
X138200000Y-92027571D01*
X138200000Y-91684714D01*
X138157142Y-91599000D01*
X138071428Y-91556142D01*
X137900000Y-91556142D01*
X137814285Y-91599000D01*
X137771428Y-91684714D01*
X137771428Y-91770428D01*
X138200000Y-91856142D01*
X137385714Y-92156142D02*
X137385714Y-91556142D01*
X137385714Y-91727571D02*
X137342857Y-91641857D01*
X137300000Y-91599000D01*
X137214285Y-91556142D01*
X137128571Y-91556142D01*
D12*
X160316666Y-76016666D02*
X160550000Y-75683333D01*
X160716666Y-76016666D02*
X160716666Y-75316666D01*
X160450000Y-75316666D01*
X160383333Y-75350000D01*
X160350000Y-75383333D01*
X160316666Y-75450000D01*
X160316666Y-75550000D01*
X160350000Y-75616666D01*
X160383333Y-75650000D01*
X160450000Y-75683333D01*
X160716666Y-75683333D01*
X160050000Y-75383333D02*
X160016666Y-75350000D01*
X159950000Y-75316666D01*
X159783333Y-75316666D01*
X159716666Y-75350000D01*
X159683333Y-75383333D01*
X159650000Y-75450000D01*
X159650000Y-75516666D01*
X159683333Y-75616666D01*
X160083333Y-76016666D01*
X159650000Y-76016666D01*
X161283333Y-78616666D02*
X161283333Y-79016666D01*
X161283333Y-78816666D02*
X161983333Y-78816666D01*
X161883333Y-78883333D01*
X161816666Y-78950000D01*
X161783333Y-79016666D01*
X161983333Y-78183333D02*
X161983333Y-78116666D01*
X161950000Y-78050000D01*
X161916666Y-78016666D01*
X161850000Y-77983333D01*
X161716666Y-77950000D01*
X161550000Y-77950000D01*
X161416666Y-77983333D01*
X161350000Y-78016666D01*
X161316666Y-78050000D01*
X161283333Y-78116666D01*
X161283333Y-78183333D01*
X161316666Y-78250000D01*
X161350000Y-78283333D01*
X161416666Y-78316666D01*
X161550000Y-78350000D01*
X161716666Y-78350000D01*
X161850000Y-78316666D01*
X161916666Y-78283333D01*
X161950000Y-78250000D01*
X161983333Y-78183333D01*
X161283333Y-77650000D02*
X161983333Y-77650000D01*
X161550000Y-77583333D02*
X161283333Y-77383333D01*
X161750000Y-77383333D02*
X161483333Y-77650000D01*
X161283333Y-77116666D02*
X161283333Y-76950000D01*
X161416666Y-76950000D01*
X161450000Y-77016666D01*
X161516666Y-77083333D01*
X161616666Y-77116666D01*
X161783333Y-77116666D01*
X161883333Y-77083333D01*
X161950000Y-77016666D01*
X161983333Y-76916666D01*
X161983333Y-76783333D01*
X161950000Y-76683333D01*
X161883333Y-76616666D01*
X161783333Y-76583333D01*
X161616666Y-76583333D01*
X161516666Y-76616666D01*
X161450000Y-76683333D01*
X161416666Y-76750000D01*
X161283333Y-76750000D01*
X161283333Y-76583333D01*
X140116666Y-80016666D02*
X140350000Y-79683333D01*
X140516666Y-80016666D02*
X140516666Y-79316666D01*
X140250000Y-79316666D01*
X140183333Y-79350000D01*
X140150000Y-79383333D01*
X140116666Y-79450000D01*
X140116666Y-79550000D01*
X140150000Y-79616666D01*
X140183333Y-79650000D01*
X140250000Y-79683333D01*
X140516666Y-79683333D01*
X139483333Y-79316666D02*
X139816666Y-79316666D01*
X139850000Y-79650000D01*
X139816666Y-79616666D01*
X139750000Y-79583333D01*
X139583333Y-79583333D01*
X139516666Y-79616666D01*
X139483333Y-79650000D01*
X139450000Y-79716666D01*
X139450000Y-79883333D01*
X139483333Y-79950000D01*
X139516666Y-79983333D01*
X139583333Y-80016666D01*
X139750000Y-80016666D01*
X139816666Y-79983333D01*
X139850000Y-79950000D01*
X138816666Y-83350000D02*
X138850000Y-83316666D01*
X138883333Y-83250000D01*
X138883333Y-83083333D01*
X138850000Y-83016666D01*
X138816666Y-82983333D01*
X138750000Y-82950000D01*
X138683333Y-82950000D01*
X138583333Y-82983333D01*
X138183333Y-83383333D01*
X138183333Y-82950000D01*
X138816666Y-82683333D02*
X138850000Y-82650000D01*
X138883333Y-82583333D01*
X138883333Y-82416666D01*
X138850000Y-82350000D01*
X138816666Y-82316666D01*
X138750000Y-82283333D01*
X138683333Y-82283333D01*
X138583333Y-82316666D01*
X138183333Y-82716666D01*
X138183333Y-82283333D01*
X138883333Y-81850000D02*
X138883333Y-81783333D01*
X138850000Y-81716666D01*
X138816666Y-81683333D01*
X138750000Y-81650000D01*
X138616666Y-81616666D01*
X138450000Y-81616666D01*
X138316666Y-81650000D01*
X138250000Y-81683333D01*
X138216666Y-81716666D01*
X138183333Y-81783333D01*
X138183333Y-81850000D01*
X138216666Y-81916666D01*
X138250000Y-81950000D01*
X138316666Y-81983333D01*
X138450000Y-82016666D01*
X138616666Y-82016666D01*
X138750000Y-81983333D01*
X138816666Y-81950000D01*
X138850000Y-81916666D01*
X138883333Y-81850000D01*
X138183333Y-81316666D02*
X138883333Y-81316666D01*
X138450000Y-81250000D02*
X138183333Y-81050000D01*
X138650000Y-81050000D02*
X138383333Y-81316666D01*
X138183333Y-80783333D02*
X138183333Y-80616666D01*
X138316666Y-80616666D01*
X138350000Y-80683333D01*
X138416666Y-80750000D01*
X138516666Y-80783333D01*
X138683333Y-80783333D01*
X138783333Y-80750000D01*
X138850000Y-80683333D01*
X138883333Y-80583333D01*
X138883333Y-80450000D01*
X138850000Y-80350000D01*
X138783333Y-80283333D01*
X138683333Y-80250000D01*
X138516666Y-80250000D01*
X138416666Y-80283333D01*
X138350000Y-80350000D01*
X138316666Y-80416666D01*
X138183333Y-80416666D01*
X138183333Y-80250000D01*
X137483333Y-74916666D02*
X137816666Y-75150000D01*
X137483333Y-75316666D02*
X138183333Y-75316666D01*
X138183333Y-75050000D01*
X138150000Y-74983333D01*
X138116666Y-74950000D01*
X138050000Y-74916666D01*
X137950000Y-74916666D01*
X137883333Y-74950000D01*
X137850000Y-74983333D01*
X137816666Y-75050000D01*
X137816666Y-75316666D01*
X138183333Y-74316666D02*
X138183333Y-74450000D01*
X138150000Y-74516666D01*
X138116666Y-74550000D01*
X138016666Y-74616666D01*
X137883333Y-74650000D01*
X137616666Y-74650000D01*
X137550000Y-74616666D01*
X137516666Y-74583333D01*
X137483333Y-74516666D01*
X137483333Y-74383333D01*
X137516666Y-74316666D01*
X137550000Y-74283333D01*
X137616666Y-74250000D01*
X137783333Y-74250000D01*
X137850000Y-74283333D01*
X137883333Y-74316666D01*
X137916666Y-74383333D01*
X137916666Y-74516666D01*
X137883333Y-74583333D01*
X137850000Y-74616666D01*
X137783333Y-74650000D01*
X141150000Y-76616666D02*
X141550000Y-76616666D01*
X141350000Y-76616666D02*
X141350000Y-75916666D01*
X141416666Y-76016666D01*
X141483333Y-76083333D01*
X141550000Y-76116666D01*
X140716666Y-75916666D02*
X140650000Y-75916666D01*
X140583333Y-75950000D01*
X140550000Y-75983333D01*
X140516666Y-76050000D01*
X140483333Y-76183333D01*
X140483333Y-76350000D01*
X140516666Y-76483333D01*
X140550000Y-76550000D01*
X140583333Y-76583333D01*
X140650000Y-76616666D01*
X140716666Y-76616666D01*
X140783333Y-76583333D01*
X140816666Y-76550000D01*
X140850000Y-76483333D01*
X140883333Y-76350000D01*
X140883333Y-76183333D01*
X140850000Y-76050000D01*
X140816666Y-75983333D01*
X140783333Y-75950000D01*
X140716666Y-75916666D01*
X140050000Y-75916666D02*
X139983333Y-75916666D01*
X139916666Y-75950000D01*
X139883333Y-75983333D01*
X139850000Y-76050000D01*
X139816666Y-76183333D01*
X139816666Y-76350000D01*
X139850000Y-76483333D01*
X139883333Y-76550000D01*
X139916666Y-76583333D01*
X139983333Y-76616666D01*
X140050000Y-76616666D01*
X140116666Y-76583333D01*
X140150000Y-76550000D01*
X140183333Y-76483333D01*
X140216666Y-76350000D01*
X140216666Y-76183333D01*
X140183333Y-76050000D01*
X140150000Y-75983333D01*
X140116666Y-75950000D01*
X140050000Y-75916666D01*
X139516666Y-76616666D02*
X139516666Y-75916666D01*
X139450000Y-76350000D02*
X139250000Y-76616666D01*
X139250000Y-76150000D02*
X139516666Y-76416666D01*
X138983333Y-76616666D02*
X138816666Y-76616666D01*
X138816666Y-76483333D01*
X138883333Y-76450000D01*
X138950000Y-76383333D01*
X138983333Y-76283333D01*
X138983333Y-76116666D01*
X138950000Y-76016666D01*
X138883333Y-75950000D01*
X138783333Y-75916666D01*
X138650000Y-75916666D01*
X138550000Y-75950000D01*
X138483333Y-76016666D01*
X138450000Y-76116666D01*
X138450000Y-76283333D01*
X138483333Y-76383333D01*
X138550000Y-76450000D01*
X138616666Y-76483333D01*
X138616666Y-76616666D01*
X138450000Y-76616666D01*
X159216666Y-82716666D02*
X159450000Y-82383333D01*
X159616666Y-82716666D02*
X159616666Y-82016666D01*
X159350000Y-82016666D01*
X159283333Y-82050000D01*
X159250000Y-82083333D01*
X159216666Y-82150000D01*
X159216666Y-82250000D01*
X159250000Y-82316666D01*
X159283333Y-82350000D01*
X159350000Y-82383333D01*
X159616666Y-82383333D01*
X158816666Y-82316666D02*
X158883333Y-82283333D01*
X158916666Y-82250000D01*
X158950000Y-82183333D01*
X158950000Y-82150000D01*
X158916666Y-82083333D01*
X158883333Y-82050000D01*
X158816666Y-82016666D01*
X158683333Y-82016666D01*
X158616666Y-82050000D01*
X158583333Y-82083333D01*
X158550000Y-82150000D01*
X158550000Y-82183333D01*
X158583333Y-82250000D01*
X158616666Y-82283333D01*
X158683333Y-82316666D01*
X158816666Y-82316666D01*
X158883333Y-82350000D01*
X158916666Y-82383333D01*
X158950000Y-82450000D01*
X158950000Y-82583333D01*
X158916666Y-82650000D01*
X158883333Y-82683333D01*
X158816666Y-82716666D01*
X158683333Y-82716666D01*
X158616666Y-82683333D01*
X158583333Y-82650000D01*
X158550000Y-82583333D01*
X158550000Y-82450000D01*
X158583333Y-82383333D01*
X158616666Y-82350000D01*
X158683333Y-82316666D01*
X155383333Y-85316666D02*
X155383333Y-85716666D01*
X155383333Y-85516666D02*
X156083333Y-85516666D01*
X155983333Y-85583333D01*
X155916666Y-85650000D01*
X155883333Y-85716666D01*
X156083333Y-84883333D02*
X156083333Y-84816666D01*
X156050000Y-84750000D01*
X156016666Y-84716666D01*
X155950000Y-84683333D01*
X155816666Y-84650000D01*
X155650000Y-84650000D01*
X155516666Y-84683333D01*
X155450000Y-84716666D01*
X155416666Y-84750000D01*
X155383333Y-84816666D01*
X155383333Y-84883333D01*
X155416666Y-84950000D01*
X155450000Y-84983333D01*
X155516666Y-85016666D01*
X155650000Y-85050000D01*
X155816666Y-85050000D01*
X155950000Y-85016666D01*
X156016666Y-84983333D01*
X156050000Y-84950000D01*
X156083333Y-84883333D01*
X155383333Y-84350000D02*
X156083333Y-84350000D01*
X155650000Y-84283333D02*
X155383333Y-84083333D01*
X155850000Y-84083333D02*
X155583333Y-84350000D01*
X155383333Y-83816666D02*
X155383333Y-83650000D01*
X155516666Y-83650000D01*
X155550000Y-83716666D01*
X155616666Y-83783333D01*
X155716666Y-83816666D01*
X155883333Y-83816666D01*
X155983333Y-83783333D01*
X156050000Y-83716666D01*
X156083333Y-83616666D01*
X156083333Y-83483333D01*
X156050000Y-83383333D01*
X155983333Y-83316666D01*
X155883333Y-83283333D01*
X155716666Y-83283333D01*
X155616666Y-83316666D01*
X155550000Y-83383333D01*
X155516666Y-83450000D01*
X155383333Y-83450000D01*
X155383333Y-83283333D01*
X161216666Y-82016666D02*
X161450000Y-81683333D01*
X161616666Y-82016666D02*
X161616666Y-81316666D01*
X161350000Y-81316666D01*
X161283333Y-81350000D01*
X161250000Y-81383333D01*
X161216666Y-81450000D01*
X161216666Y-81550000D01*
X161250000Y-81616666D01*
X161283333Y-81650000D01*
X161350000Y-81683333D01*
X161616666Y-81683333D01*
X160983333Y-81316666D02*
X160516666Y-81316666D01*
X160816666Y-82016666D01*
X162183333Y-85316666D02*
X162183333Y-85716666D01*
X162183333Y-85516666D02*
X162883333Y-85516666D01*
X162783333Y-85583333D01*
X162716666Y-85650000D01*
X162683333Y-85716666D01*
X162883333Y-84883333D02*
X162883333Y-84816666D01*
X162850000Y-84750000D01*
X162816666Y-84716666D01*
X162750000Y-84683333D01*
X162616666Y-84650000D01*
X162450000Y-84650000D01*
X162316666Y-84683333D01*
X162250000Y-84716666D01*
X162216666Y-84750000D01*
X162183333Y-84816666D01*
X162183333Y-84883333D01*
X162216666Y-84950000D01*
X162250000Y-84983333D01*
X162316666Y-85016666D01*
X162450000Y-85050000D01*
X162616666Y-85050000D01*
X162750000Y-85016666D01*
X162816666Y-84983333D01*
X162850000Y-84950000D01*
X162883333Y-84883333D01*
X162183333Y-84350000D02*
X162883333Y-84350000D01*
X162450000Y-84283333D02*
X162183333Y-84083333D01*
X162650000Y-84083333D02*
X162383333Y-84350000D01*
X162183333Y-83816666D02*
X162183333Y-83650000D01*
X162316666Y-83650000D01*
X162350000Y-83716666D01*
X162416666Y-83783333D01*
X162516666Y-83816666D01*
X162683333Y-83816666D01*
X162783333Y-83783333D01*
X162850000Y-83716666D01*
X162883333Y-83616666D01*
X162883333Y-83483333D01*
X162850000Y-83383333D01*
X162783333Y-83316666D01*
X162683333Y-83283333D01*
X162516666Y-83283333D01*
X162416666Y-83316666D01*
X162350000Y-83383333D01*
X162316666Y-83450000D01*
X162183333Y-83450000D01*
X162183333Y-83283333D01*
D13*
X156157142Y-68571428D02*
X156157142Y-69057142D01*
X156128571Y-69114285D01*
X156100000Y-69142857D01*
X156042857Y-69171428D01*
X155928571Y-69171428D01*
X155871428Y-69142857D01*
X155842857Y-69114285D01*
X155814285Y-69057142D01*
X155814285Y-68571428D01*
X155585714Y-68571428D02*
X155214285Y-68571428D01*
X155414285Y-68800000D01*
X155328571Y-68800000D01*
X155271428Y-68828571D01*
X155242857Y-68857142D01*
X155214285Y-68914285D01*
X155214285Y-69057142D01*
X155242857Y-69114285D01*
X155271428Y-69142857D01*
X155328571Y-69171428D01*
X155500000Y-69171428D01*
X155557142Y-69142857D01*
X155585714Y-69114285D01*
D12*
X152136190Y-89685714D02*
X152174285Y-89723809D01*
X152288571Y-89761904D01*
X152364761Y-89761904D01*
X152479047Y-89723809D01*
X152555238Y-89647619D01*
X152593333Y-89571428D01*
X152631428Y-89419047D01*
X152631428Y-89304761D01*
X152593333Y-89152380D01*
X152555238Y-89076190D01*
X152479047Y-89000000D01*
X152364761Y-88961904D01*
X152288571Y-88961904D01*
X152174285Y-89000000D01*
X152136190Y-89038095D01*
X151793333Y-89761904D02*
X151793333Y-88961904D01*
X151602857Y-88961904D01*
X151488571Y-89000000D01*
X151412380Y-89076190D01*
X151374285Y-89152380D01*
X151336190Y-89304761D01*
X151336190Y-89419047D01*
X151374285Y-89571428D01*
X151412380Y-89647619D01*
X151488571Y-89723809D01*
X151602857Y-89761904D01*
X151793333Y-89761904D01*
X150650476Y-89228571D02*
X150650476Y-89761904D01*
X150840952Y-88923809D02*
X151031428Y-89495238D01*
X150536190Y-89495238D01*
X150079047Y-88961904D02*
X150002857Y-88961904D01*
X149926666Y-89000000D01*
X149888571Y-89038095D01*
X149850476Y-89114285D01*
X149812380Y-89266666D01*
X149812380Y-89457142D01*
X149850476Y-89609523D01*
X149888571Y-89685714D01*
X149926666Y-89723809D01*
X150002857Y-89761904D01*
X150079047Y-89761904D01*
X150155238Y-89723809D01*
X150193333Y-89685714D01*
X150231428Y-89609523D01*
X150269523Y-89457142D01*
X150269523Y-89266666D01*
X150231428Y-89114285D01*
X150193333Y-89038095D01*
X150155238Y-89000000D01*
X150079047Y-88961904D01*
X149088571Y-88961904D02*
X149469523Y-88961904D01*
X149507619Y-89342857D01*
X149469523Y-89304761D01*
X149393333Y-89266666D01*
X149202857Y-89266666D01*
X149126666Y-89304761D01*
X149088571Y-89342857D01*
X149050476Y-89419047D01*
X149050476Y-89609523D01*
X149088571Y-89685714D01*
X149126666Y-89723809D01*
X149202857Y-89761904D01*
X149393333Y-89761904D01*
X149469523Y-89723809D01*
X149507619Y-89685714D01*
X148288571Y-89761904D02*
X148745714Y-89761904D01*
X148517142Y-89761904D02*
X148517142Y-88961904D01*
X148593333Y-89076190D01*
X148669523Y-89152380D01*
X148745714Y-89190476D01*
X147679047Y-89342857D02*
X147564761Y-89380952D01*
X147526666Y-89419047D01*
X147488571Y-89495238D01*
X147488571Y-89609523D01*
X147526666Y-89685714D01*
X147564761Y-89723809D01*
X147640952Y-89761904D01*
X147945714Y-89761904D01*
X147945714Y-88961904D01*
X147679047Y-88961904D01*
X147602857Y-89000000D01*
X147564761Y-89038095D01*
X147526666Y-89114285D01*
X147526666Y-89190476D01*
X147564761Y-89266666D01*
X147602857Y-89304761D01*
X147679047Y-89342857D01*
X147945714Y-89342857D01*
X157650000Y-87516666D02*
X157616666Y-87550000D01*
X157583333Y-87650000D01*
X157583333Y-87716666D01*
X157616666Y-87816666D01*
X157683333Y-87883333D01*
X157750000Y-87916666D01*
X157883333Y-87950000D01*
X157983333Y-87950000D01*
X158116666Y-87916666D01*
X158183333Y-87883333D01*
X158250000Y-87816666D01*
X158283333Y-87716666D01*
X158283333Y-87650000D01*
X158250000Y-87550000D01*
X158216666Y-87516666D01*
X158050000Y-86916666D02*
X157583333Y-86916666D01*
X158316666Y-87083333D02*
X157816666Y-87250000D01*
X157816666Y-86816666D01*
X156383333Y-87533333D02*
X156383333Y-87933333D01*
X156383333Y-87733333D02*
X157083333Y-87733333D01*
X156983333Y-87800000D01*
X156916666Y-87866666D01*
X156883333Y-87933333D01*
X157083333Y-87100000D02*
X157083333Y-87033333D01*
X157050000Y-86966666D01*
X157016666Y-86933333D01*
X156950000Y-86900000D01*
X156816666Y-86866666D01*
X156650000Y-86866666D01*
X156516666Y-86900000D01*
X156450000Y-86933333D01*
X156416666Y-86966666D01*
X156383333Y-87033333D01*
X156383333Y-87100000D01*
X156416666Y-87166666D01*
X156450000Y-87200000D01*
X156516666Y-87233333D01*
X156650000Y-87266666D01*
X156816666Y-87266666D01*
X156950000Y-87233333D01*
X157016666Y-87200000D01*
X157050000Y-87166666D01*
X157083333Y-87100000D01*
X155850000Y-87900000D02*
X155150000Y-87900000D01*
X155483333Y-87566666D02*
X155416666Y-87533333D01*
X155383333Y-87466666D01*
X155483333Y-87900000D02*
X155416666Y-87866666D01*
X155383333Y-87800000D01*
X155383333Y-87666666D01*
X155416666Y-87600000D01*
X155483333Y-87566666D01*
X155850000Y-87566666D01*
X155750000Y-86933333D02*
X155750000Y-87166666D01*
X155383333Y-87166666D02*
X156083333Y-87166666D01*
X156083333Y-86833333D01*
X160935000Y-78027064D02*
X160935000Y-77572936D01*
X159465000Y-78027064D02*
X159465000Y-77572936D01*
X140735000Y-82027064D02*
X140735000Y-81572936D01*
X139265000Y-82027064D02*
X139265000Y-81572936D01*
X140227064Y-74065000D02*
X139772936Y-74065000D01*
X140227064Y-75535000D02*
X139772936Y-75535000D01*
X159835000Y-84727064D02*
X159835000Y-84272936D01*
X158365000Y-84727064D02*
X158365000Y-84272936D01*
X161835000Y-84272936D02*
X161835000Y-84727064D01*
X160365000Y-84272936D02*
X160365000Y-84727064D01*
X151060000Y-88705000D02*
G75*
G03*
X149060000Y-88705000I-1000000J0D01*
G01*
X149060000Y-88705000D02*
X147410000Y-88705000D01*
X147410000Y-68265000D02*
X152710000Y-68265000D01*
X147410000Y-88705000D02*
X147410000Y-68265000D01*
X152710000Y-68265000D02*
X152710000Y-88705000D01*
X152710000Y-88705000D02*
X151060000Y-88705000D01*
X159838748Y-88135000D02*
X160361252Y-88135000D01*
X159838748Y-86665000D02*
X160361252Y-86665000D01*
%LPC*%
D14*
X148800000Y-93100000D03*
D15*
X151340000Y-93100000D03*
D16*
X143045000Y-70780000D03*
D17*
X143045000Y-72780000D03*
X143045000Y-74780000D03*
X143045000Y-76780000D03*
X143045000Y-78780000D03*
X143045000Y-80780000D03*
X143045000Y-82780000D03*
X143045000Y-84780000D03*
X157045000Y-84780000D03*
X157045000Y-82780000D03*
X157045000Y-80780000D03*
X157045000Y-78780000D03*
X157045000Y-76780000D03*
X157045000Y-74780000D03*
X157045000Y-72780000D03*
D18*
X157045000Y-70780000D03*
D19*
X160200000Y-89650000D03*
D20*
X160200000Y-92190000D03*
X157660000Y-89650000D03*
X157660000Y-92190000D03*
X155120000Y-89650000D03*
X155120000Y-92190000D03*
D21*
X162466726Y-71666726D03*
X162950000Y-70500000D03*
X162466726Y-69333274D03*
X161300000Y-72150000D03*
X160133274Y-71666726D03*
X161300000Y-68850000D03*
X159650000Y-70500000D03*
D22*
X161300000Y-70500000D03*
D21*
X160133274Y-69333274D03*
X139966726Y-71666726D03*
X140450000Y-70500000D03*
X137633274Y-71666726D03*
X139966726Y-69333274D03*
X137150000Y-70500000D03*
X138800000Y-72150000D03*
X137633274Y-69333274D03*
X138800000Y-68850000D03*
D22*
X138800000Y-70500000D03*
D23*
X160200000Y-78712500D03*
X160200000Y-76887500D03*
X140000000Y-82712500D03*
X140000000Y-80887500D03*
D24*
X140912500Y-74800000D03*
X139087500Y-74800000D03*
D23*
X159100000Y-85412500D03*
X159100000Y-83587500D03*
D25*
X161100000Y-83587500D03*
X161100000Y-85412500D03*
D26*
X153870000Y-87375000D03*
X153870000Y-84835000D03*
X153870000Y-82295000D03*
X153870000Y-79755000D03*
X153870000Y-77215000D03*
X153870000Y-74675000D03*
X153870000Y-72135000D03*
X153870000Y-69595000D03*
X146250000Y-69595000D03*
X146250000Y-72135000D03*
X146250000Y-74675000D03*
X146250000Y-77215000D03*
X146250000Y-79755000D03*
X146250000Y-82295000D03*
X146250000Y-84835000D03*
D27*
X146250000Y-87375000D03*
D28*
X159150000Y-87400000D03*
X161050000Y-87400000D03*
M02*
