G04 #@! TF.GenerationSoftware,KiCad,Pcbnew,(6.0.2)*
G04 #@! TF.CreationDate,2022-09-28T01:57:24+02:00*
G04 #@! TF.ProjectId,Tiny-Power-Meter,54696e79-2d50-46f7-9765-722d4d657465,rev?*
G04 #@! TF.SameCoordinates,Original*
G04 #@! TF.FileFunction,Legend,Top*
G04 #@! TF.FilePolarity,Positive*
%FSLAX46Y46*%
G04 Gerber Fmt 4.6, Leading zero omitted, Abs format (unit mm)*
G04 Created by KiCad (PCBNEW (6.0.2)) date 2022-09-28 01:57:24*
%MOMM*%
%LPD*%
G01*
G04 APERTURE LIST*
G04 Aperture macros list*
%AMRoundRect*
0 Rectangle with rounded corners*
0 $1 Rounding radius*
0 $2 $3 $4 $5 $6 $7 $8 $9 X,Y pos of 4 corners*
0 Add a 4 corners polygon primitive as box body*
4,1,4,$2,$3,$4,$5,$6,$7,$8,$9,$2,$3,0*
0 Add four circle primitives for the rounded corners*
1,1,$1+$1,$2,$3*
1,1,$1+$1,$4,$5*
1,1,$1+$1,$6,$7*
1,1,$1+$1,$8,$9*
0 Add four rect primitives between the rounded corners*
20,1,$1+$1,$2,$3,$4,$5,0*
20,1,$1+$1,$4,$5,$6,$7,0*
20,1,$1+$1,$6,$7,$8,$9,0*
20,1,$1+$1,$8,$9,$2,$3,0*%
G04 Aperture macros list end*
%ADD10C,0.120000*%
%ADD11C,0.150000*%
%ADD12C,0.110000*%
%ADD13C,0.100000*%
%ADD14C,0.010000*%
%ADD15RoundRect,0.250000X0.250000X0.475000X-0.250000X0.475000X-0.250000X-0.475000X0.250000X-0.475000X0*%
%ADD16RoundRect,0.250000X-0.262500X-0.450000X0.262500X-0.450000X0.262500X0.450000X-0.262500X0.450000X0*%
%ADD17RoundRect,0.250000X0.450000X-0.262500X0.450000X0.262500X-0.450000X0.262500X-0.450000X-0.262500X0*%
%ADD18R,1.500000X2.000000*%
%ADD19R,3.800000X2.000000*%
%ADD20R,2.200000X2.200000*%
%ADD21C,2.200000*%
%ADD22RoundRect,0.250000X0.475000X-0.250000X0.475000X0.250000X-0.475000X0.250000X-0.475000X-0.250000X0*%
%ADD23R,1.350000X1.350000*%
%ADD24O,1.350000X1.350000*%
%ADD25C,1.350000*%
%ADD26R,1.700000X1.700000*%
%ADD27O,1.700000X1.700000*%
%ADD28C,0.700000*%
%ADD29C,4.400000*%
%ADD30O,1.600000X1.600000*%
%ADD31R,1.600000X1.600000*%
G04 APERTURE END LIST*
D10*
X161675000Y-91200000D02*
X162625000Y-91200000D01*
D11*
X151190476Y-88900000D02*
X151114285Y-88861904D01*
X151000000Y-88861904D01*
X150885714Y-88900000D01*
X150809523Y-88976190D01*
X150771428Y-89052380D01*
X150733333Y-89204761D01*
X150733333Y-89319047D01*
X150771428Y-89471428D01*
X150809523Y-89547619D01*
X150885714Y-89623809D01*
X151000000Y-89661904D01*
X151076190Y-89661904D01*
X151190476Y-89623809D01*
X151228571Y-89585714D01*
X151228571Y-89319047D01*
X151076190Y-89319047D01*
X151571428Y-89661904D02*
X151571428Y-88861904D01*
X152028571Y-89661904D01*
X152028571Y-88861904D01*
X152409523Y-89661904D02*
X152409523Y-88861904D01*
X152600000Y-88861904D01*
X152714285Y-88900000D01*
X152790476Y-88976190D01*
X152828571Y-89052380D01*
X152866666Y-89204761D01*
X152866666Y-89319047D01*
X152828571Y-89471428D01*
X152790476Y-89547619D01*
X152714285Y-89623809D01*
X152600000Y-89661904D01*
X152409523Y-89661904D01*
X147271428Y-89357142D02*
X147880952Y-89357142D01*
X147576190Y-89661904D02*
X147576190Y-89052380D01*
X148642857Y-88861904D02*
X148261904Y-88861904D01*
X148223809Y-89242857D01*
X148261904Y-89204761D01*
X148338095Y-89166666D01*
X148528571Y-89166666D01*
X148604761Y-89204761D01*
X148642857Y-89242857D01*
X148680952Y-89319047D01*
X148680952Y-89509523D01*
X148642857Y-89585714D01*
X148604761Y-89623809D01*
X148528571Y-89661904D01*
X148338095Y-89661904D01*
X148261904Y-89623809D01*
X148223809Y-89585714D01*
X148909523Y-88861904D02*
X149176190Y-89661904D01*
X149442857Y-88861904D01*
D12*
X148628571Y-79557142D02*
X148828571Y-79557142D01*
X148914285Y-79871428D02*
X148628571Y-79871428D01*
X148628571Y-79271428D01*
X148914285Y-79271428D01*
X149142857Y-79842857D02*
X149228571Y-79871428D01*
X149371428Y-79871428D01*
X149428571Y-79842857D01*
X149457142Y-79814285D01*
X149485714Y-79757142D01*
X149485714Y-79700000D01*
X149457142Y-79642857D01*
X149428571Y-79614285D01*
X149371428Y-79585714D01*
X149257142Y-79557142D01*
X149200000Y-79528571D01*
X149171428Y-79500000D01*
X149142857Y-79442857D01*
X149142857Y-79385714D01*
X149171428Y-79328571D01*
X149200000Y-79300000D01*
X149257142Y-79271428D01*
X149400000Y-79271428D01*
X149485714Y-79300000D01*
X149742857Y-79871428D02*
X149742857Y-79271428D01*
X149971428Y-79271428D01*
X150028571Y-79300000D01*
X150057142Y-79328571D01*
X150085714Y-79385714D01*
X150085714Y-79471428D01*
X150057142Y-79528571D01*
X150028571Y-79557142D01*
X149971428Y-79585714D01*
X149742857Y-79585714D01*
X150342857Y-79642857D02*
X150800000Y-79642857D01*
X151171428Y-79528571D02*
X151114285Y-79500000D01*
X151085714Y-79471428D01*
X151057142Y-79414285D01*
X151057142Y-79385714D01*
X151085714Y-79328571D01*
X151114285Y-79300000D01*
X151171428Y-79271428D01*
X151285714Y-79271428D01*
X151342857Y-79300000D01*
X151371428Y-79328571D01*
X151400000Y-79385714D01*
X151400000Y-79414285D01*
X151371428Y-79471428D01*
X151342857Y-79500000D01*
X151285714Y-79528571D01*
X151171428Y-79528571D01*
X151114285Y-79557142D01*
X151085714Y-79585714D01*
X151057142Y-79642857D01*
X151057142Y-79757142D01*
X151085714Y-79814285D01*
X151114285Y-79842857D01*
X151171428Y-79871428D01*
X151285714Y-79871428D01*
X151342857Y-79842857D01*
X151371428Y-79814285D01*
X151400000Y-79757142D01*
X151400000Y-79642857D01*
X151371428Y-79585714D01*
X151342857Y-79557142D01*
X151285714Y-79528571D01*
X149185714Y-77071428D02*
X149300000Y-77471428D01*
X149414285Y-77185714D01*
X149528571Y-77471428D01*
X149642857Y-77071428D01*
X149871428Y-77471428D02*
X149871428Y-77071428D01*
X149871428Y-76871428D02*
X149842857Y-76900000D01*
X149871428Y-76928571D01*
X149900000Y-76900000D01*
X149871428Y-76871428D01*
X149871428Y-76928571D01*
X150071428Y-77071428D02*
X150300000Y-77071428D01*
X150157142Y-76871428D02*
X150157142Y-77385714D01*
X150185714Y-77442857D01*
X150242857Y-77471428D01*
X150300000Y-77471428D01*
X150500000Y-77471428D02*
X150500000Y-76871428D01*
X150757142Y-77471428D02*
X150757142Y-77157142D01*
X150728571Y-77100000D01*
X150671428Y-77071428D01*
X150585714Y-77071428D01*
X150528571Y-77100000D01*
X150500000Y-77128571D01*
X148628571Y-78357142D02*
X148828571Y-78357142D01*
X148914285Y-78671428D02*
X148628571Y-78671428D01*
X148628571Y-78071428D01*
X148914285Y-78071428D01*
X149142857Y-78642857D02*
X149228571Y-78671428D01*
X149371428Y-78671428D01*
X149428571Y-78642857D01*
X149457142Y-78614285D01*
X149485714Y-78557142D01*
X149485714Y-78500000D01*
X149457142Y-78442857D01*
X149428571Y-78414285D01*
X149371428Y-78385714D01*
X149257142Y-78357142D01*
X149200000Y-78328571D01*
X149171428Y-78300000D01*
X149142857Y-78242857D01*
X149142857Y-78185714D01*
X149171428Y-78128571D01*
X149200000Y-78100000D01*
X149257142Y-78071428D01*
X149400000Y-78071428D01*
X149485714Y-78100000D01*
X149742857Y-78671428D02*
X149742857Y-78071428D01*
X149971428Y-78071428D01*
X150028571Y-78100000D01*
X150057142Y-78128571D01*
X150085714Y-78185714D01*
X150085714Y-78271428D01*
X150057142Y-78328571D01*
X150028571Y-78357142D01*
X149971428Y-78385714D01*
X149742857Y-78385714D01*
X150342857Y-78442857D02*
X150800000Y-78442857D01*
X151028571Y-78071428D02*
X151428571Y-78071428D01*
X151171428Y-78671428D01*
X148342857Y-80757142D02*
X148542857Y-80757142D01*
X148628571Y-81071428D02*
X148342857Y-81071428D01*
X148342857Y-80471428D01*
X148628571Y-80471428D01*
X148857142Y-81042857D02*
X148942857Y-81071428D01*
X149085714Y-81071428D01*
X149142857Y-81042857D01*
X149171428Y-81014285D01*
X149200000Y-80957142D01*
X149200000Y-80900000D01*
X149171428Y-80842857D01*
X149142857Y-80814285D01*
X149085714Y-80785714D01*
X148971428Y-80757142D01*
X148914285Y-80728571D01*
X148885714Y-80700000D01*
X148857142Y-80642857D01*
X148857142Y-80585714D01*
X148885714Y-80528571D01*
X148914285Y-80500000D01*
X148971428Y-80471428D01*
X149114285Y-80471428D01*
X149200000Y-80500000D01*
X149457142Y-81071428D02*
X149457142Y-80471428D01*
X149685714Y-80471428D01*
X149742857Y-80500000D01*
X149771428Y-80528571D01*
X149800000Y-80585714D01*
X149800000Y-80671428D01*
X149771428Y-80728571D01*
X149742857Y-80757142D01*
X149685714Y-80785714D01*
X149457142Y-80785714D01*
X150057142Y-80842857D02*
X150514285Y-80842857D01*
X151114285Y-81071428D02*
X150771428Y-81071428D01*
X150942857Y-81071428D02*
X150942857Y-80471428D01*
X150885714Y-80557142D01*
X150828571Y-80614285D01*
X150771428Y-80642857D01*
X151342857Y-80528571D02*
X151371428Y-80500000D01*
X151428571Y-80471428D01*
X151571428Y-80471428D01*
X151628571Y-80500000D01*
X151657142Y-80528571D01*
X151685714Y-80585714D01*
X151685714Y-80642857D01*
X151657142Y-80728571D01*
X151314285Y-81071428D01*
X151685714Y-81071428D01*
X147971428Y-76214285D02*
X147942857Y-76242857D01*
X147857142Y-76271428D01*
X147800000Y-76271428D01*
X147714285Y-76242857D01*
X147657142Y-76185714D01*
X147628571Y-76128571D01*
X147600000Y-76014285D01*
X147600000Y-75928571D01*
X147628571Y-75814285D01*
X147657142Y-75757142D01*
X147714285Y-75700000D01*
X147800000Y-75671428D01*
X147857142Y-75671428D01*
X147942857Y-75700000D01*
X147971428Y-75728571D01*
X148314285Y-76271428D02*
X148257142Y-76242857D01*
X148228571Y-76214285D01*
X148200000Y-76157142D01*
X148200000Y-75985714D01*
X148228571Y-75928571D01*
X148257142Y-75900000D01*
X148314285Y-75871428D01*
X148400000Y-75871428D01*
X148457142Y-75900000D01*
X148485714Y-75928571D01*
X148514285Y-75985714D01*
X148514285Y-76157142D01*
X148485714Y-76214285D01*
X148457142Y-76242857D01*
X148400000Y-76271428D01*
X148314285Y-76271428D01*
X148771428Y-76271428D02*
X148771428Y-75871428D01*
X148771428Y-75928571D02*
X148800000Y-75900000D01*
X148857142Y-75871428D01*
X148942857Y-75871428D01*
X149000000Y-75900000D01*
X149028571Y-75957142D01*
X149028571Y-76271428D01*
X149028571Y-75957142D02*
X149057142Y-75900000D01*
X149114285Y-75871428D01*
X149200000Y-75871428D01*
X149257142Y-75900000D01*
X149285714Y-75957142D01*
X149285714Y-76271428D01*
X149571428Y-75871428D02*
X149571428Y-76471428D01*
X149571428Y-75900000D02*
X149628571Y-75871428D01*
X149742857Y-75871428D01*
X149800000Y-75900000D01*
X149828571Y-75928571D01*
X149857142Y-75985714D01*
X149857142Y-76157142D01*
X149828571Y-76214285D01*
X149800000Y-76242857D01*
X149742857Y-76271428D01*
X149628571Y-76271428D01*
X149571428Y-76242857D01*
X150371428Y-76271428D02*
X150371428Y-75957142D01*
X150342857Y-75900000D01*
X150285714Y-75871428D01*
X150171428Y-75871428D01*
X150114285Y-75900000D01*
X150371428Y-76242857D02*
X150314285Y-76271428D01*
X150171428Y-76271428D01*
X150114285Y-76242857D01*
X150085714Y-76185714D01*
X150085714Y-76128571D01*
X150114285Y-76071428D01*
X150171428Y-76042857D01*
X150314285Y-76042857D01*
X150371428Y-76014285D01*
X150571428Y-75871428D02*
X150800000Y-75871428D01*
X150657142Y-75671428D02*
X150657142Y-76185714D01*
X150685714Y-76242857D01*
X150742857Y-76271428D01*
X150800000Y-76271428D01*
X151000000Y-76271428D02*
X151000000Y-75871428D01*
X151000000Y-75671428D02*
X150971428Y-75700000D01*
X151000000Y-75728571D01*
X151028571Y-75700000D01*
X151000000Y-75671428D01*
X151000000Y-75728571D01*
X151285714Y-76271428D02*
X151285714Y-75671428D01*
X151285714Y-75900000D02*
X151342857Y-75871428D01*
X151457142Y-75871428D01*
X151514285Y-75900000D01*
X151542857Y-75928571D01*
X151571428Y-75985714D01*
X151571428Y-76157142D01*
X151542857Y-76214285D01*
X151514285Y-76242857D01*
X151457142Y-76271428D01*
X151342857Y-76271428D01*
X151285714Y-76242857D01*
X151914285Y-76271428D02*
X151857142Y-76242857D01*
X151828571Y-76185714D01*
X151828571Y-75671428D01*
X152371428Y-76242857D02*
X152314285Y-76271428D01*
X152200000Y-76271428D01*
X152142857Y-76242857D01*
X152114285Y-76185714D01*
X152114285Y-75957142D01*
X152142857Y-75900000D01*
X152200000Y-75871428D01*
X152314285Y-75871428D01*
X152371428Y-75900000D01*
X152400000Y-75957142D01*
X152400000Y-76014285D01*
X152114285Y-76071428D01*
D10*
X137350000Y-86416666D02*
X137383333Y-86450000D01*
X137416666Y-86550000D01*
X137416666Y-86616666D01*
X137383333Y-86716666D01*
X137316666Y-86783333D01*
X137250000Y-86816666D01*
X137116666Y-86850000D01*
X137016666Y-86850000D01*
X136883333Y-86816666D01*
X136816666Y-86783333D01*
X136750000Y-86716666D01*
X136716666Y-86616666D01*
X136716666Y-86550000D01*
X136750000Y-86450000D01*
X136783333Y-86416666D01*
X136783333Y-86150000D02*
X136750000Y-86116666D01*
X136716666Y-86050000D01*
X136716666Y-85883333D01*
X136750000Y-85816666D01*
X136783333Y-85783333D01*
X136850000Y-85750000D01*
X136916666Y-85750000D01*
X137016666Y-85783333D01*
X137416666Y-86183333D01*
X137416666Y-85750000D01*
X138050000Y-83883333D02*
X138083333Y-83850000D01*
X138150000Y-83816666D01*
X138316666Y-83816666D01*
X138383333Y-83850000D01*
X138416666Y-83883333D01*
X138450000Y-83950000D01*
X138450000Y-84016666D01*
X138416666Y-84116666D01*
X138016666Y-84516666D01*
X138450000Y-84516666D01*
X138716666Y-83883333D02*
X138750000Y-83850000D01*
X138816666Y-83816666D01*
X138983333Y-83816666D01*
X139050000Y-83850000D01*
X139083333Y-83883333D01*
X139116666Y-83950000D01*
X139116666Y-84016666D01*
X139083333Y-84116666D01*
X138683333Y-84516666D01*
X139116666Y-84516666D01*
X139416666Y-84050000D02*
X139416666Y-84750000D01*
X139750000Y-84416666D02*
X139783333Y-84483333D01*
X139850000Y-84516666D01*
X139416666Y-84416666D02*
X139450000Y-84483333D01*
X139516666Y-84516666D01*
X139650000Y-84516666D01*
X139716666Y-84483333D01*
X139750000Y-84416666D01*
X139750000Y-84050000D01*
X140383333Y-84150000D02*
X140150000Y-84150000D01*
X140150000Y-84516666D02*
X140150000Y-83816666D01*
X140483333Y-83816666D01*
X137516666Y-74916666D02*
X137183333Y-75150000D01*
X137516666Y-75316666D02*
X136816666Y-75316666D01*
X136816666Y-75050000D01*
X136850000Y-74983333D01*
X136883333Y-74950000D01*
X136950000Y-74916666D01*
X137050000Y-74916666D01*
X137116666Y-74950000D01*
X137150000Y-74983333D01*
X137183333Y-75050000D01*
X137183333Y-75316666D01*
X136816666Y-74683333D02*
X136816666Y-74250000D01*
X137083333Y-74483333D01*
X137083333Y-74383333D01*
X137116666Y-74316666D01*
X137150000Y-74283333D01*
X137216666Y-74250000D01*
X137383333Y-74250000D01*
X137450000Y-74283333D01*
X137483333Y-74316666D01*
X137516666Y-74383333D01*
X137516666Y-74583333D01*
X137483333Y-74650000D01*
X137450000Y-74683333D01*
X138483333Y-76616666D02*
X138083333Y-76616666D01*
X138283333Y-76616666D02*
X138283333Y-75916666D01*
X138216666Y-76016666D01*
X138150000Y-76083333D01*
X138083333Y-76116666D01*
X138916666Y-75916666D02*
X138983333Y-75916666D01*
X139050000Y-75950000D01*
X139083333Y-75983333D01*
X139116666Y-76050000D01*
X139150000Y-76183333D01*
X139150000Y-76350000D01*
X139116666Y-76483333D01*
X139083333Y-76550000D01*
X139050000Y-76583333D01*
X138983333Y-76616666D01*
X138916666Y-76616666D01*
X138850000Y-76583333D01*
X138816666Y-76550000D01*
X138783333Y-76483333D01*
X138750000Y-76350000D01*
X138750000Y-76183333D01*
X138783333Y-76050000D01*
X138816666Y-75983333D01*
X138850000Y-75950000D01*
X138916666Y-75916666D01*
X139450000Y-76616666D02*
X139450000Y-75916666D01*
X139516666Y-76350000D02*
X139716666Y-76616666D01*
X139716666Y-76150000D02*
X139450000Y-76416666D01*
X139983333Y-76616666D02*
X140150000Y-76616666D01*
X140150000Y-76483333D01*
X140083333Y-76450000D01*
X140016666Y-76383333D01*
X139983333Y-76283333D01*
X139983333Y-76116666D01*
X140016666Y-76016666D01*
X140083333Y-75950000D01*
X140183333Y-75916666D01*
X140316666Y-75916666D01*
X140416666Y-75950000D01*
X140483333Y-76016666D01*
X140516666Y-76116666D01*
X140516666Y-76283333D01*
X140483333Y-76383333D01*
X140416666Y-76450000D01*
X140350000Y-76483333D01*
X140350000Y-76616666D01*
X140516666Y-76616666D01*
X160083333Y-76016666D02*
X159850000Y-75683333D01*
X159683333Y-76016666D02*
X159683333Y-75316666D01*
X159950000Y-75316666D01*
X160016666Y-75350000D01*
X160050000Y-75383333D01*
X160083333Y-75450000D01*
X160083333Y-75550000D01*
X160050000Y-75616666D01*
X160016666Y-75650000D01*
X159950000Y-75683333D01*
X159683333Y-75683333D01*
X160683333Y-75550000D02*
X160683333Y-76016666D01*
X160516666Y-75283333D02*
X160350000Y-75783333D01*
X160783333Y-75783333D01*
X162016666Y-78616666D02*
X162016666Y-79016666D01*
X162016666Y-78816666D02*
X161316666Y-78816666D01*
X161416666Y-78883333D01*
X161483333Y-78950000D01*
X161516666Y-79016666D01*
X161316666Y-78183333D02*
X161316666Y-78116666D01*
X161350000Y-78050000D01*
X161383333Y-78016666D01*
X161450000Y-77983333D01*
X161583333Y-77950000D01*
X161750000Y-77950000D01*
X161883333Y-77983333D01*
X161950000Y-78016666D01*
X161983333Y-78050000D01*
X162016666Y-78116666D01*
X162016666Y-78183333D01*
X161983333Y-78250000D01*
X161950000Y-78283333D01*
X161883333Y-78316666D01*
X161750000Y-78350000D01*
X161583333Y-78350000D01*
X161450000Y-78316666D01*
X161383333Y-78283333D01*
X161350000Y-78250000D01*
X161316666Y-78183333D01*
X162016666Y-77650000D02*
X161316666Y-77650000D01*
X161750000Y-77583333D02*
X162016666Y-77383333D01*
X161550000Y-77383333D02*
X161816666Y-77650000D01*
X162016666Y-77116666D02*
X162016666Y-76950000D01*
X161883333Y-76950000D01*
X161850000Y-77016666D01*
X161783333Y-77083333D01*
X161683333Y-77116666D01*
X161516666Y-77116666D01*
X161416666Y-77083333D01*
X161350000Y-77016666D01*
X161316666Y-76916666D01*
X161316666Y-76783333D01*
X161350000Y-76683333D01*
X161416666Y-76616666D01*
X161516666Y-76583333D01*
X161683333Y-76583333D01*
X161783333Y-76616666D01*
X161850000Y-76683333D01*
X161883333Y-76750000D01*
X162016666Y-76750000D01*
X162016666Y-76583333D01*
X139883333Y-78016666D02*
X139650000Y-77683333D01*
X139483333Y-78016666D02*
X139483333Y-77316666D01*
X139750000Y-77316666D01*
X139816666Y-77350000D01*
X139850000Y-77383333D01*
X139883333Y-77450000D01*
X139883333Y-77550000D01*
X139850000Y-77616666D01*
X139816666Y-77650000D01*
X139750000Y-77683333D01*
X139483333Y-77683333D01*
X140550000Y-78016666D02*
X140150000Y-78016666D01*
X140350000Y-78016666D02*
X140350000Y-77316666D01*
X140283333Y-77416666D01*
X140216666Y-77483333D01*
X140150000Y-77516666D01*
X138916666Y-80616666D02*
X138916666Y-81016666D01*
X138916666Y-80816666D02*
X138216666Y-80816666D01*
X138316666Y-80883333D01*
X138383333Y-80950000D01*
X138416666Y-81016666D01*
X138216666Y-80183333D02*
X138216666Y-80116666D01*
X138250000Y-80050000D01*
X138283333Y-80016666D01*
X138350000Y-79983333D01*
X138483333Y-79950000D01*
X138650000Y-79950000D01*
X138783333Y-79983333D01*
X138850000Y-80016666D01*
X138883333Y-80050000D01*
X138916666Y-80116666D01*
X138916666Y-80183333D01*
X138883333Y-80250000D01*
X138850000Y-80283333D01*
X138783333Y-80316666D01*
X138650000Y-80350000D01*
X138483333Y-80350000D01*
X138350000Y-80316666D01*
X138283333Y-80283333D01*
X138250000Y-80250000D01*
X138216666Y-80183333D01*
X138916666Y-79650000D02*
X138216666Y-79650000D01*
X138650000Y-79583333D02*
X138916666Y-79383333D01*
X138450000Y-79383333D02*
X138716666Y-79650000D01*
X138916666Y-79116666D02*
X138916666Y-78950000D01*
X138783333Y-78950000D01*
X138750000Y-79016666D01*
X138683333Y-79083333D01*
X138583333Y-79116666D01*
X138416666Y-79116666D01*
X138316666Y-79083333D01*
X138250000Y-79016666D01*
X138216666Y-78916666D01*
X138216666Y-78783333D01*
X138250000Y-78683333D01*
X138316666Y-78616666D01*
X138416666Y-78583333D01*
X138583333Y-78583333D01*
X138683333Y-78616666D01*
X138750000Y-78683333D01*
X138783333Y-78750000D01*
X138916666Y-78750000D01*
X138916666Y-78583333D01*
D13*
X137842857Y-89071428D02*
X137842857Y-89557142D01*
X137871428Y-89614285D01*
X137900000Y-89642857D01*
X137957142Y-89671428D01*
X138071428Y-89671428D01*
X138128571Y-89642857D01*
X138157142Y-89614285D01*
X138185714Y-89557142D01*
X138185714Y-89071428D01*
X138785714Y-89671428D02*
X138442857Y-89671428D01*
X138614285Y-89671428D02*
X138614285Y-89071428D01*
X138557142Y-89157142D01*
X138500000Y-89214285D01*
X138442857Y-89242857D01*
X153400000Y-89971428D02*
X153400000Y-90400000D01*
X153371428Y-90485714D01*
X153314285Y-90542857D01*
X153228571Y-90571428D01*
X153171428Y-90571428D01*
X154000000Y-90571428D02*
X153657142Y-90571428D01*
X153828571Y-90571428D02*
X153828571Y-89971428D01*
X153771428Y-90057142D01*
X153714285Y-90114285D01*
X153657142Y-90142857D01*
D10*
X145683333Y-89350000D02*
X145650000Y-89383333D01*
X145550000Y-89416666D01*
X145483333Y-89416666D01*
X145383333Y-89383333D01*
X145316666Y-89316666D01*
X145283333Y-89250000D01*
X145250000Y-89116666D01*
X145250000Y-89016666D01*
X145283333Y-88883333D01*
X145316666Y-88816666D01*
X145383333Y-88750000D01*
X145483333Y-88716666D01*
X145550000Y-88716666D01*
X145650000Y-88750000D01*
X145683333Y-88783333D01*
X146350000Y-89416666D02*
X145950000Y-89416666D01*
X146150000Y-89416666D02*
X146150000Y-88716666D01*
X146083333Y-88816666D01*
X146016666Y-88883333D01*
X145950000Y-88916666D01*
X145666666Y-90616666D02*
X145266666Y-90616666D01*
X145466666Y-90616666D02*
X145466666Y-89916666D01*
X145400000Y-90016666D01*
X145333333Y-90083333D01*
X145266666Y-90116666D01*
X146100000Y-89916666D02*
X146166666Y-89916666D01*
X146233333Y-89950000D01*
X146266666Y-89983333D01*
X146300000Y-90050000D01*
X146333333Y-90183333D01*
X146333333Y-90350000D01*
X146300000Y-90483333D01*
X146266666Y-90550000D01*
X146233333Y-90583333D01*
X146166666Y-90616666D01*
X146100000Y-90616666D01*
X146033333Y-90583333D01*
X146000000Y-90550000D01*
X145966666Y-90483333D01*
X145933333Y-90350000D01*
X145933333Y-90183333D01*
X145966666Y-90050000D01*
X146000000Y-89983333D01*
X146033333Y-89950000D01*
X146100000Y-89916666D01*
X145300000Y-91150000D02*
X145300000Y-91850000D01*
X145633333Y-91516666D02*
X145666666Y-91583333D01*
X145733333Y-91616666D01*
X145300000Y-91516666D02*
X145333333Y-91583333D01*
X145400000Y-91616666D01*
X145533333Y-91616666D01*
X145600000Y-91583333D01*
X145633333Y-91516666D01*
X145633333Y-91150000D01*
X146266666Y-91250000D02*
X146033333Y-91250000D01*
X146033333Y-91616666D02*
X146033333Y-90916666D01*
X146366666Y-90916666D01*
D13*
X141342857Y-68271428D02*
X141342857Y-68757142D01*
X141371428Y-68814285D01*
X141400000Y-68842857D01*
X141457142Y-68871428D01*
X141571428Y-68871428D01*
X141628571Y-68842857D01*
X141657142Y-68814285D01*
X141685714Y-68757142D01*
X141685714Y-68271428D01*
X141942857Y-68328571D02*
X141971428Y-68300000D01*
X142028571Y-68271428D01*
X142171428Y-68271428D01*
X142228571Y-68300000D01*
X142257142Y-68328571D01*
X142285714Y-68385714D01*
X142285714Y-68442857D01*
X142257142Y-68528571D01*
X141914285Y-68871428D01*
X142285714Y-68871428D01*
X161975000Y-95071428D02*
X161975000Y-95500000D01*
X161946428Y-95585714D01*
X161889285Y-95642857D01*
X161803571Y-95671428D01*
X161746428Y-95671428D01*
X162232142Y-95128571D02*
X162260714Y-95100000D01*
X162317857Y-95071428D01*
X162460714Y-95071428D01*
X162517857Y-95100000D01*
X162546428Y-95128571D01*
X162575000Y-95185714D01*
X162575000Y-95242857D01*
X162546428Y-95328571D01*
X162203571Y-95671428D01*
X162575000Y-95671428D01*
D10*
X159816666Y-88050000D02*
X159783333Y-88083333D01*
X159683333Y-88116666D01*
X159616666Y-88116666D01*
X159516666Y-88083333D01*
X159450000Y-88016666D01*
X159416666Y-87950000D01*
X159383333Y-87816666D01*
X159383333Y-87716666D01*
X159416666Y-87583333D01*
X159450000Y-87516666D01*
X159516666Y-87450000D01*
X159616666Y-87416666D01*
X159683333Y-87416666D01*
X159783333Y-87450000D01*
X159816666Y-87483333D01*
X160016666Y-87416666D02*
X160416666Y-87416666D01*
X160216666Y-88116666D02*
X160216666Y-87416666D01*
X161016666Y-88116666D02*
X160616666Y-88116666D01*
X160816666Y-88116666D02*
X160816666Y-87416666D01*
X160750000Y-87516666D01*
X160683333Y-87583333D01*
X160616666Y-87616666D01*
X155266666Y-87816666D02*
X155700000Y-87816666D01*
X155466666Y-88083333D01*
X155566666Y-88083333D01*
X155633333Y-88116666D01*
X155666666Y-88150000D01*
X155700000Y-88216666D01*
X155700000Y-88383333D01*
X155666666Y-88450000D01*
X155633333Y-88483333D01*
X155566666Y-88516666D01*
X155366666Y-88516666D01*
X155300000Y-88483333D01*
X155266666Y-88450000D01*
X162491666Y-92700000D02*
X162158333Y-92933333D01*
X162491666Y-93100000D02*
X161791666Y-93100000D01*
X161791666Y-92833333D01*
X161825000Y-92766666D01*
X161858333Y-92733333D01*
X161925000Y-92700000D01*
X162025000Y-92700000D01*
X162091666Y-92733333D01*
X162125000Y-92766666D01*
X162158333Y-92833333D01*
X162158333Y-93100000D01*
X162458333Y-92133333D02*
X162491666Y-92200000D01*
X162491666Y-92333333D01*
X162458333Y-92400000D01*
X162391666Y-92433333D01*
X162125000Y-92433333D01*
X162058333Y-92400000D01*
X162025000Y-92333333D01*
X162025000Y-92200000D01*
X162058333Y-92133333D01*
X162125000Y-92100000D01*
X162191666Y-92100000D01*
X162258333Y-92433333D01*
X162491666Y-91500000D02*
X161791666Y-91500000D01*
X162458333Y-91500000D02*
X162491666Y-91566666D01*
X162491666Y-91700000D01*
X162458333Y-91766666D01*
X162425000Y-91800000D01*
X162358333Y-91833333D01*
X162158333Y-91833333D01*
X162091666Y-91800000D01*
X162058333Y-91766666D01*
X162025000Y-91700000D01*
X162025000Y-91566666D01*
X162058333Y-91500000D01*
X157276666Y-88050000D02*
X157243333Y-88083333D01*
X157143333Y-88116666D01*
X157076666Y-88116666D01*
X156976666Y-88083333D01*
X156910000Y-88016666D01*
X156876666Y-87950000D01*
X156843333Y-87816666D01*
X156843333Y-87716666D01*
X156876666Y-87583333D01*
X156910000Y-87516666D01*
X156976666Y-87450000D01*
X157076666Y-87416666D01*
X157143333Y-87416666D01*
X157243333Y-87450000D01*
X157276666Y-87483333D01*
X157476666Y-87416666D02*
X157876666Y-87416666D01*
X157676666Y-88116666D02*
X157676666Y-87416666D01*
X158076666Y-87483333D02*
X158110000Y-87450000D01*
X158176666Y-87416666D01*
X158343333Y-87416666D01*
X158410000Y-87450000D01*
X158443333Y-87483333D01*
X158476666Y-87550000D01*
X158476666Y-87616666D01*
X158443333Y-87716666D01*
X158043333Y-88116666D01*
X158476666Y-88116666D01*
X161791666Y-90933333D02*
X162491666Y-90766666D01*
X161991666Y-90633333D01*
X162491666Y-90500000D01*
X161791666Y-90333333D01*
X162491666Y-90066666D02*
X161791666Y-90066666D01*
X162491666Y-89766666D02*
X162125000Y-89766666D01*
X162058333Y-89800000D01*
X162025000Y-89866666D01*
X162025000Y-89966666D01*
X162058333Y-90033333D01*
X162091666Y-90066666D01*
X162491666Y-89433333D02*
X162025000Y-89433333D01*
X161791666Y-89433333D02*
X161825000Y-89466666D01*
X161858333Y-89433333D01*
X161825000Y-89400000D01*
X161791666Y-89433333D01*
X161858333Y-89433333D01*
X162025000Y-89200000D02*
X162025000Y-88933333D01*
X161791666Y-89100000D02*
X162391666Y-89100000D01*
X162458333Y-89066666D01*
X162491666Y-89000000D01*
X162491666Y-88933333D01*
X162458333Y-88433333D02*
X162491666Y-88500000D01*
X162491666Y-88633333D01*
X162458333Y-88700000D01*
X162391666Y-88733333D01*
X162125000Y-88733333D01*
X162058333Y-88700000D01*
X162025000Y-88633333D01*
X162025000Y-88500000D01*
X162058333Y-88433333D01*
X162125000Y-88400000D01*
X162191666Y-88400000D01*
X162258333Y-88733333D01*
X155505000Y-87450000D02*
X155471666Y-87483333D01*
X155371666Y-87516666D01*
X155305000Y-87516666D01*
X155205000Y-87483333D01*
X155138333Y-87416666D01*
X155105000Y-87350000D01*
X155071666Y-87216666D01*
X155071666Y-87116666D01*
X155105000Y-86983333D01*
X155138333Y-86916666D01*
X155205000Y-86850000D01*
X155305000Y-86816666D01*
X155371666Y-86816666D01*
X155471666Y-86850000D01*
X155505000Y-86883333D01*
X155705000Y-86816666D02*
X156105000Y-86816666D01*
X155905000Y-87516666D02*
X155905000Y-86816666D01*
X162433333Y-73516666D02*
X162433333Y-72816666D01*
X162666666Y-73316666D01*
X162900000Y-72816666D01*
X162900000Y-73516666D01*
X163200000Y-72883333D02*
X163233333Y-72850000D01*
X163300000Y-72816666D01*
X163466666Y-72816666D01*
X163533333Y-72850000D01*
X163566666Y-72883333D01*
X163600000Y-72950000D01*
X163600000Y-73016666D01*
X163566666Y-73116666D01*
X163166666Y-73516666D01*
X163600000Y-73516666D01*
X136533333Y-73516666D02*
X136533333Y-72816666D01*
X136766666Y-73316666D01*
X137000000Y-72816666D01*
X137000000Y-73516666D01*
X137300000Y-72883333D02*
X137333333Y-72850000D01*
X137400000Y-72816666D01*
X137566666Y-72816666D01*
X137633333Y-72850000D01*
X137666666Y-72883333D01*
X137700000Y-72950000D01*
X137700000Y-73016666D01*
X137666666Y-73116666D01*
X137266666Y-73516666D01*
X137700000Y-73516666D01*
X139511252Y-87035000D02*
X138988748Y-87035000D01*
X139511252Y-85565000D02*
X138988748Y-85565000D01*
X139072936Y-74065000D02*
X139527064Y-74065000D01*
X139072936Y-75535000D02*
X139527064Y-75535000D01*
X159465000Y-78027064D02*
X159465000Y-77572936D01*
X160935000Y-78027064D02*
X160935000Y-77572936D01*
X140735000Y-80027064D02*
X140735000Y-79572936D01*
X139265000Y-80027064D02*
X139265000Y-79572936D01*
X144610000Y-93650000D02*
X144610000Y-89890000D01*
X144610000Y-89890000D02*
X143350000Y-89890000D01*
X137790000Y-89890000D02*
X139050000Y-89890000D01*
X137790000Y-95900000D02*
X137790000Y-89890000D01*
X147240000Y-90400000D02*
X152900000Y-90400000D01*
X147240000Y-95700000D02*
X152900000Y-95700000D01*
X147240000Y-89940000D02*
X152900000Y-89940000D01*
X147240000Y-89940000D02*
X147240000Y-96260000D01*
X152900000Y-89940000D02*
X152900000Y-96260000D01*
X147240000Y-96260000D02*
X152900000Y-96260000D01*
X145065000Y-94561252D02*
X145065000Y-94038748D01*
X146535000Y-94561252D02*
X146535000Y-94038748D01*
X152795000Y-69080000D02*
X147295000Y-69080000D01*
X155985000Y-69700500D02*
X155985000Y-85840000D01*
X144105000Y-69700500D02*
X144105000Y-85840000D01*
X145195000Y-69080000D02*
X141295000Y-69080000D01*
X155985000Y-85840000D02*
X158105000Y-85840000D01*
X155985000Y-69700500D02*
X158105000Y-69700500D01*
X158795000Y-86530000D02*
X158795000Y-69080000D01*
X141985000Y-85840000D02*
X144105000Y-85840000D01*
X158795000Y-86530000D02*
X154595000Y-86530000D01*
X158795000Y-69080000D02*
X154895000Y-69080000D01*
X145095000Y-86530000D02*
X141295000Y-86530000D01*
X141295000Y-86530000D02*
X141295000Y-69080000D01*
X153095000Y-86530000D02*
X147395000Y-86530000D01*
X158105000Y-69700500D02*
X158105000Y-85840000D01*
X141985000Y-69700500D02*
X144105000Y-69700500D01*
X141985000Y-69700500D02*
X141985000Y-85840000D01*
D14*
X160630100Y-83396650D02*
X160395150Y-83396650D01*
X160395150Y-83396650D02*
X160395150Y-83161700D01*
X160395150Y-83161700D02*
X160630100Y-83161700D01*
X160630100Y-83161700D02*
X160630100Y-83396650D01*
X160630100Y-83396650D02*
X160630100Y-83396650D01*
G36*
X160630100Y-83396650D02*
G01*
X160395150Y-83396650D01*
X160395150Y-83161700D01*
X160630100Y-83161700D01*
X160630100Y-83396650D01*
G37*
X160630100Y-83396650D02*
X160395150Y-83396650D01*
X160395150Y-83161700D01*
X160630100Y-83161700D01*
X160630100Y-83396650D01*
X160395150Y-83631600D02*
X160630100Y-83631600D01*
X160630100Y-83631600D02*
X160630100Y-84336450D01*
X160630100Y-84336450D02*
X160395150Y-84336450D01*
X160395150Y-84336450D02*
X160395150Y-84571400D01*
X160395150Y-84571400D02*
X159690300Y-84571400D01*
X159690300Y-84571400D02*
X159690300Y-84101500D01*
X159690300Y-84101500D02*
X159925250Y-84101500D01*
X159925250Y-84101500D02*
X159925250Y-83631600D01*
X159925250Y-83631600D02*
X160160200Y-83631600D01*
X160160200Y-83631600D02*
X160160200Y-83396650D01*
X160160200Y-83396650D02*
X160395150Y-83396650D01*
X160395150Y-83396650D02*
X160395150Y-83631600D01*
X160395150Y-83631600D02*
X160395150Y-83631600D01*
G36*
X160395150Y-83631600D02*
G01*
X160630100Y-83631600D01*
X160630100Y-84336450D01*
X160395150Y-84336450D01*
X160395150Y-84571400D01*
X159690300Y-84571400D01*
X159690300Y-84101500D01*
X159925250Y-84101500D01*
X159925250Y-83631600D01*
X160160200Y-83631600D01*
X160160200Y-83396650D01*
X160395150Y-83396650D01*
X160395150Y-83631600D01*
G37*
X160395150Y-83631600D02*
X160630100Y-83631600D01*
X160630100Y-84336450D01*
X160395150Y-84336450D01*
X160395150Y-84571400D01*
X159690300Y-84571400D01*
X159690300Y-84101500D01*
X159925250Y-84101500D01*
X159925250Y-83631600D01*
X160160200Y-83631600D01*
X160160200Y-83396650D01*
X160395150Y-83396650D01*
X160395150Y-83631600D01*
X160630100Y-86451000D02*
X160160200Y-86451000D01*
X160160200Y-86451000D02*
X160160200Y-86216050D01*
X160160200Y-86216050D02*
X160630100Y-86216050D01*
X160630100Y-86216050D02*
X160630100Y-86451000D01*
X160630100Y-86451000D02*
X160630100Y-86451000D01*
G36*
X160630100Y-86451000D02*
G01*
X160160200Y-86451000D01*
X160160200Y-86216050D01*
X160630100Y-86216050D01*
X160630100Y-86451000D01*
G37*
X160630100Y-86451000D02*
X160160200Y-86451000D01*
X160160200Y-86216050D01*
X160630100Y-86216050D01*
X160630100Y-86451000D01*
X161569900Y-86685950D02*
X160630100Y-86685950D01*
X160630100Y-86685950D02*
X160630100Y-86451000D01*
X160630100Y-86451000D02*
X161569900Y-86451000D01*
X161569900Y-86451000D02*
X161569900Y-86685950D01*
X161569900Y-86685950D02*
X161569900Y-86685950D01*
G36*
X161569900Y-86685950D02*
G01*
X160630100Y-86685950D01*
X160630100Y-86451000D01*
X161569900Y-86451000D01*
X161569900Y-86685950D01*
G37*
X161569900Y-86685950D02*
X160630100Y-86685950D01*
X160630100Y-86451000D01*
X161569900Y-86451000D01*
X161569900Y-86685950D01*
X161569900Y-84806350D02*
X161804850Y-84806350D01*
X161804850Y-84806350D02*
X161804850Y-85511200D01*
X161804850Y-85511200D02*
X161569900Y-85511200D01*
X161569900Y-85511200D02*
X161569900Y-85746150D01*
X161569900Y-85746150D02*
X160865050Y-85746150D01*
X160865050Y-85746150D02*
X160865050Y-85511200D01*
X160865050Y-85511200D02*
X160630100Y-85511200D01*
X160630100Y-85511200D02*
X160630100Y-84806350D01*
X160630100Y-84806350D02*
X160865050Y-84806350D01*
X160865050Y-84806350D02*
X160865050Y-84571400D01*
X160865050Y-84571400D02*
X161569900Y-84571400D01*
X161569900Y-84571400D02*
X161569900Y-84806350D01*
X161569900Y-84806350D02*
X161569900Y-84806350D01*
G36*
X161569900Y-84806350D02*
G01*
X161804850Y-84806350D01*
X161804850Y-85511200D01*
X161569900Y-85511200D01*
X161569900Y-85746150D01*
X160865050Y-85746150D01*
X160865050Y-85511200D01*
X160630100Y-85511200D01*
X160630100Y-84806350D01*
X160865050Y-84806350D01*
X160865050Y-84571400D01*
X161569900Y-84571400D01*
X161569900Y-84806350D01*
G37*
X161569900Y-84806350D02*
X161804850Y-84806350D01*
X161804850Y-85511200D01*
X161569900Y-85511200D01*
X161569900Y-85746150D01*
X160865050Y-85746150D01*
X160865050Y-85511200D01*
X160630100Y-85511200D01*
X160630100Y-84806350D01*
X160865050Y-84806350D01*
X160865050Y-84571400D01*
X161569900Y-84571400D01*
X161569900Y-84806350D01*
X159690300Y-85041300D02*
X160160200Y-85041300D01*
X160160200Y-85041300D02*
X160160200Y-85276250D01*
X160160200Y-85276250D02*
X160395150Y-85276250D01*
X160395150Y-85276250D02*
X160395150Y-85981100D01*
X160395150Y-85981100D02*
X160160200Y-85981100D01*
X160160200Y-85981100D02*
X160160200Y-86216050D01*
X160160200Y-86216050D02*
X159925250Y-86216050D01*
X159925250Y-86216050D02*
X159925250Y-85981100D01*
X159925250Y-85981100D02*
X159690300Y-85981100D01*
X159690300Y-85981100D02*
X159690300Y-85511200D01*
X159690300Y-85511200D02*
X159455350Y-85511200D01*
X159455350Y-85511200D02*
X159455350Y-84571400D01*
X159455350Y-84571400D02*
X159690300Y-84571400D01*
X159690300Y-84571400D02*
X159690300Y-85041300D01*
X159690300Y-85041300D02*
X159690300Y-85041300D01*
G36*
X159690300Y-85041300D02*
G01*
X160160200Y-85041300D01*
X160160200Y-85276250D01*
X160395150Y-85276250D01*
X160395150Y-85981100D01*
X160160200Y-85981100D01*
X160160200Y-86216050D01*
X159925250Y-86216050D01*
X159925250Y-85981100D01*
X159690300Y-85981100D01*
X159690300Y-85511200D01*
X159455350Y-85511200D01*
X159455350Y-84571400D01*
X159690300Y-84571400D01*
X159690300Y-85041300D01*
G37*
X159690300Y-85041300D02*
X160160200Y-85041300D01*
X160160200Y-85276250D01*
X160395150Y-85276250D01*
X160395150Y-85981100D01*
X160160200Y-85981100D01*
X160160200Y-86216050D01*
X159925250Y-86216050D01*
X159925250Y-85981100D01*
X159690300Y-85981100D01*
X159690300Y-85511200D01*
X159455350Y-85511200D01*
X159455350Y-84571400D01*
X159690300Y-84571400D01*
X159690300Y-85041300D01*
X162744650Y-85511200D02*
X162509700Y-85511200D01*
X162509700Y-85511200D02*
X162509700Y-85981100D01*
X162509700Y-85981100D02*
X162274750Y-85981100D01*
X162274750Y-85981100D02*
X162274750Y-86216050D01*
X162274750Y-86216050D02*
X162039800Y-86216050D01*
X162039800Y-86216050D02*
X162039800Y-86451000D01*
X162039800Y-86451000D02*
X161569900Y-86451000D01*
X161569900Y-86451000D02*
X161569900Y-86216050D01*
X161569900Y-86216050D02*
X161804850Y-86216050D01*
X161804850Y-86216050D02*
X161804850Y-85511200D01*
X161804850Y-85511200D02*
X162039800Y-85511200D01*
X162039800Y-85511200D02*
X162039800Y-85276250D01*
X162039800Y-85276250D02*
X162509700Y-85276250D01*
X162509700Y-85276250D02*
X162509700Y-84571400D01*
X162509700Y-84571400D02*
X162744650Y-84571400D01*
X162744650Y-84571400D02*
X162744650Y-85511200D01*
X162744650Y-85511200D02*
X162744650Y-85511200D01*
G36*
X162744650Y-85511200D02*
G01*
X162509700Y-85511200D01*
X162509700Y-85981100D01*
X162274750Y-85981100D01*
X162274750Y-86216050D01*
X162039800Y-86216050D01*
X162039800Y-86451000D01*
X161569900Y-86451000D01*
X161569900Y-86216050D01*
X161804850Y-86216050D01*
X161804850Y-85511200D01*
X162039800Y-85511200D01*
X162039800Y-85276250D01*
X162509700Y-85276250D01*
X162509700Y-84571400D01*
X162744650Y-84571400D01*
X162744650Y-85511200D01*
G37*
X162744650Y-85511200D02*
X162509700Y-85511200D01*
X162509700Y-85981100D01*
X162274750Y-85981100D01*
X162274750Y-86216050D01*
X162039800Y-86216050D01*
X162039800Y-86451000D01*
X161569900Y-86451000D01*
X161569900Y-86216050D01*
X161804850Y-86216050D01*
X161804850Y-85511200D01*
X162039800Y-85511200D01*
X162039800Y-85276250D01*
X162509700Y-85276250D01*
X162509700Y-84571400D01*
X162744650Y-84571400D01*
X162744650Y-85511200D01*
X162509700Y-84571400D02*
X162274750Y-84571400D01*
X162274750Y-84571400D02*
X162274750Y-84101500D01*
X162274750Y-84101500D02*
X162509700Y-84101500D01*
X162509700Y-84101500D02*
X162509700Y-84571400D01*
X162509700Y-84571400D02*
X162509700Y-84571400D01*
G36*
X162509700Y-84571400D02*
G01*
X162274750Y-84571400D01*
X162274750Y-84101500D01*
X162509700Y-84101500D01*
X162509700Y-84571400D01*
G37*
X162509700Y-84571400D02*
X162274750Y-84571400D01*
X162274750Y-84101500D01*
X162509700Y-84101500D01*
X162509700Y-84571400D01*
X161569900Y-83161700D02*
X160630100Y-83161700D01*
X160630100Y-83161700D02*
X160630100Y-82926750D01*
X160630100Y-82926750D02*
X161569900Y-82926750D01*
X161569900Y-82926750D02*
X161569900Y-83161700D01*
X161569900Y-83161700D02*
X161569900Y-83161700D01*
G36*
X161569900Y-83161700D02*
G01*
X160630100Y-83161700D01*
X160630100Y-82926750D01*
X161569900Y-82926750D01*
X161569900Y-83161700D01*
G37*
X161569900Y-83161700D02*
X160630100Y-83161700D01*
X160630100Y-82926750D01*
X161569900Y-82926750D01*
X161569900Y-83161700D01*
X161804850Y-83396650D02*
X162039800Y-83396650D01*
X162039800Y-83396650D02*
X162039800Y-83631600D01*
X162039800Y-83631600D02*
X162274750Y-83631600D01*
X162274750Y-83631600D02*
X162274750Y-84101500D01*
X162274750Y-84101500D02*
X162039800Y-84101500D01*
X162039800Y-84101500D02*
X162039800Y-84336450D01*
X162039800Y-84336450D02*
X161569900Y-84336450D01*
X161569900Y-84336450D02*
X161569900Y-84101500D01*
X161569900Y-84101500D02*
X161334950Y-84101500D01*
X161334950Y-84101500D02*
X161334950Y-83396650D01*
X161334950Y-83396650D02*
X161569900Y-83396650D01*
X161569900Y-83396650D02*
X161569900Y-83161700D01*
X161569900Y-83161700D02*
X161804850Y-83161700D01*
X161804850Y-83161700D02*
X161804850Y-83396650D01*
X161804850Y-83396650D02*
X161804850Y-83396650D01*
G36*
X161804850Y-83396650D02*
G01*
X162039800Y-83396650D01*
X162039800Y-83631600D01*
X162274750Y-83631600D01*
X162274750Y-84101500D01*
X162039800Y-84101500D01*
X162039800Y-84336450D01*
X161569900Y-84336450D01*
X161569900Y-84101500D01*
X161334950Y-84101500D01*
X161334950Y-83396650D01*
X161569900Y-83396650D01*
X161569900Y-83161700D01*
X161804850Y-83161700D01*
X161804850Y-83396650D01*
G37*
X161804850Y-83396650D02*
X162039800Y-83396650D01*
X162039800Y-83631600D01*
X162274750Y-83631600D01*
X162274750Y-84101500D01*
X162039800Y-84101500D01*
X162039800Y-84336450D01*
X161569900Y-84336450D01*
X161569900Y-84101500D01*
X161334950Y-84101500D01*
X161334950Y-83396650D01*
X161569900Y-83396650D01*
X161569900Y-83161700D01*
X161804850Y-83161700D01*
X161804850Y-83396650D01*
D10*
X153790000Y-93630000D02*
X153790000Y-96290000D01*
X158040000Y-90692929D02*
X158040000Y-91147071D01*
X155500000Y-93232929D02*
X155500000Y-93630000D01*
X158930000Y-93630000D02*
X158930000Y-96290000D01*
X156390000Y-93630000D02*
X156390000Y-96290000D01*
X157280000Y-90692929D02*
X157280000Y-91147071D01*
X159820000Y-90760000D02*
X159820000Y-91147071D01*
X161530000Y-96290000D02*
X161530000Y-93630000D01*
X160200000Y-88380000D02*
X161470000Y-88380000D01*
X161470000Y-88380000D02*
X161470000Y-89650000D01*
X161530000Y-93630000D02*
X153790000Y-93630000D01*
X155500000Y-90692929D02*
X155500000Y-91147071D01*
X154740000Y-90692929D02*
X154740000Y-91147071D01*
X160580000Y-90760000D02*
X160580000Y-91147071D01*
X159820000Y-93232929D02*
X159820000Y-93630000D01*
X154740000Y-93232929D02*
X154740000Y-93630000D01*
X158040000Y-93232929D02*
X158040000Y-93630000D01*
X157280000Y-93232929D02*
X157280000Y-93630000D01*
X160580000Y-93232929D02*
X160580000Y-93630000D01*
X153790000Y-96290000D02*
X161530000Y-96290000D01*
%LPC*%
D15*
X140200000Y-86300000D03*
X138300000Y-86300000D03*
D16*
X138387500Y-74800000D03*
X140212500Y-74800000D03*
D17*
X160200000Y-78712500D03*
X160200000Y-76887500D03*
X140000000Y-80712500D03*
X140000000Y-78887500D03*
D18*
X138900000Y-94950000D03*
D19*
X141200000Y-88650000D03*
D18*
X141200000Y-94950000D03*
X143500000Y-94950000D03*
D20*
X148800000Y-93100000D03*
D21*
X151340000Y-93100000D03*
D22*
X145800000Y-95250000D03*
X145800000Y-93350000D03*
D23*
X143045000Y-70780000D03*
D24*
X143045000Y-72780000D03*
X143045000Y-74780000D03*
X143045000Y-76780000D03*
X143045000Y-78780000D03*
X143045000Y-80780000D03*
X143045000Y-82780000D03*
X143045000Y-84780000D03*
X157045000Y-84780000D03*
X157045000Y-82780000D03*
X157045000Y-80780000D03*
X157045000Y-78780000D03*
X157045000Y-76780000D03*
X157045000Y-74780000D03*
X157045000Y-72780000D03*
D25*
X157045000Y-70780000D03*
D26*
X160200000Y-89650000D03*
D27*
X160200000Y-92190000D03*
X157660000Y-89650000D03*
X157660000Y-92190000D03*
X155120000Y-89650000D03*
X155120000Y-92190000D03*
D28*
X162466726Y-71666726D03*
X162950000Y-70500000D03*
X162466726Y-69333274D03*
X161300000Y-72150000D03*
X160133274Y-71666726D03*
X161300000Y-68850000D03*
X159650000Y-70500000D03*
D29*
X161300000Y-70500000D03*
D28*
X160133274Y-69333274D03*
X139966726Y-71666726D03*
X140450000Y-70500000D03*
X137633274Y-71666726D03*
X139966726Y-69333274D03*
X137150000Y-70500000D03*
X138800000Y-72150000D03*
X137633274Y-69333274D03*
X138800000Y-68850000D03*
D29*
X138800000Y-70500000D03*
D30*
X153870000Y-87375000D03*
X153870000Y-84835000D03*
X153870000Y-82295000D03*
X153870000Y-79755000D03*
X153870000Y-77215000D03*
X153870000Y-74675000D03*
X153870000Y-72135000D03*
X153870000Y-69595000D03*
X146250000Y-69595000D03*
X146250000Y-72135000D03*
X146250000Y-74675000D03*
X146250000Y-77215000D03*
X146250000Y-79755000D03*
X146250000Y-82295000D03*
X146250000Y-84835000D03*
D31*
X146250000Y-87375000D03*
M02*
