M48
METRIC,TZ
T1C0.400
T2C0.400
T3C0.800
T4C1.000
T5C1.100
T6C2.200
%
G90
G05
T1
X137260Y-94950
X138300Y-85000
X145800Y-92100
X161100Y-82500
T2
X137150Y-70500
X137633Y-69333
X137633Y-71667
X138800Y-68850
X138800Y-72150
X139967Y-69333
X139967Y-71667
X140450Y-70500
X159650Y-70500
X160133Y-69333
X160133Y-71667
X161300Y-68850
X161300Y-72150
X162467Y-69333
X162467Y-71667
X162950Y-70500
T3
X143045Y-70780
X143045Y-72780
X143045Y-74780
X143045Y-76780
X143045Y-78780
X143045Y-80780
X143045Y-82780
X143045Y-84780
X146250Y-69595
X146250Y-72135
X146250Y-74675
X146250Y-77215
X146250Y-79755
X146250Y-82295
X146250Y-84835
X146250Y-87375
X153870Y-69595
X153870Y-72135
X153870Y-74675
X153870Y-77215
X153870Y-79755
X153870Y-82295
X153870Y-84835
X153870Y-87375
X157045Y-70780
X157045Y-72780
X157045Y-74780
X157045Y-76780
X157045Y-78780
X157045Y-80780
X157045Y-82780
X157045Y-84780
T4
X155120Y-89650
X155120Y-92190
X157660Y-89650
X157660Y-92190
X160200Y-89650
X160200Y-92190
T5
X148800Y-93100
X151340Y-93100
T6
X138800Y-70500
X161300Y-70500
T0
M30
