G04 #@! TF.GenerationSoftware,KiCad,Pcbnew,(6.0.2)*
G04 #@! TF.CreationDate,2022-09-28T01:57:45+02:00*
G04 #@! TF.ProjectId,Tiny-Power-Meter,54696e79-2d50-46f7-9765-722d4d657465,rev?*
G04 #@! TF.SameCoordinates,Original*
G04 #@! TF.FileFunction,AssemblyDrawing,Bot*
%FSLAX46Y46*%
G04 Gerber Fmt 4.6, Leading zero omitted, Abs format (unit mm)*
G04 Created by KiCad (PCBNEW (6.0.2)) date 2022-09-28 01:57:45*
%MOMM*%
%LPD*%
G01*
G04 APERTURE LIST*
%ADD10C,0.080000*%
%ADD11C,0.150000*%
%ADD12C,0.100000*%
G04 APERTURE END LIST*
D10*
X160426190Y-77716666D02*
X160188095Y-77550000D01*
X160426190Y-77430952D02*
X159926190Y-77430952D01*
X159926190Y-77621428D01*
X159950000Y-77669047D01*
X159973809Y-77692857D01*
X160021428Y-77716666D01*
X160092857Y-77716666D01*
X160140476Y-77692857D01*
X160164285Y-77669047D01*
X160188095Y-77621428D01*
X160188095Y-77430952D01*
X159973809Y-77907142D02*
X159950000Y-77930952D01*
X159926190Y-77978571D01*
X159926190Y-78097619D01*
X159950000Y-78145238D01*
X159973809Y-78169047D01*
X160021428Y-78192857D01*
X160069047Y-78192857D01*
X160140476Y-78169047D01*
X160426190Y-77883333D01*
X160426190Y-78192857D01*
X140226190Y-81716666D02*
X139988095Y-81550000D01*
X140226190Y-81430952D02*
X139726190Y-81430952D01*
X139726190Y-81621428D01*
X139750000Y-81669047D01*
X139773809Y-81692857D01*
X139821428Y-81716666D01*
X139892857Y-81716666D01*
X139940476Y-81692857D01*
X139964285Y-81669047D01*
X139988095Y-81621428D01*
X139988095Y-81430952D01*
X139726190Y-82169047D02*
X139726190Y-81930952D01*
X139964285Y-81907142D01*
X139940476Y-81930952D01*
X139916666Y-81978571D01*
X139916666Y-82097619D01*
X139940476Y-82145238D01*
X139964285Y-82169047D01*
X140011904Y-82192857D01*
X140130952Y-82192857D01*
X140178571Y-82169047D01*
X140202380Y-82145238D01*
X140226190Y-82097619D01*
X140226190Y-81978571D01*
X140202380Y-81930952D01*
X140178571Y-81907142D01*
X140083333Y-75026190D02*
X140250000Y-74788095D01*
X140369047Y-75026190D02*
X140369047Y-74526190D01*
X140178571Y-74526190D01*
X140130952Y-74550000D01*
X140107142Y-74573809D01*
X140083333Y-74621428D01*
X140083333Y-74692857D01*
X140107142Y-74740476D01*
X140130952Y-74764285D01*
X140178571Y-74788095D01*
X140369047Y-74788095D01*
X139654761Y-74526190D02*
X139750000Y-74526190D01*
X139797619Y-74550000D01*
X139821428Y-74573809D01*
X139869047Y-74645238D01*
X139892857Y-74740476D01*
X139892857Y-74930952D01*
X139869047Y-74978571D01*
X139845238Y-75002380D01*
X139797619Y-75026190D01*
X139702380Y-75026190D01*
X139654761Y-75002380D01*
X139630952Y-74978571D01*
X139607142Y-74930952D01*
X139607142Y-74811904D01*
X139630952Y-74764285D01*
X139654761Y-74740476D01*
X139702380Y-74716666D01*
X139797619Y-74716666D01*
X139845238Y-74740476D01*
X139869047Y-74764285D01*
X139892857Y-74811904D01*
X159326190Y-84416666D02*
X159088095Y-84250000D01*
X159326190Y-84130952D02*
X158826190Y-84130952D01*
X158826190Y-84321428D01*
X158850000Y-84369047D01*
X158873809Y-84392857D01*
X158921428Y-84416666D01*
X158992857Y-84416666D01*
X159040476Y-84392857D01*
X159064285Y-84369047D01*
X159088095Y-84321428D01*
X159088095Y-84130952D01*
X159040476Y-84702380D02*
X159016666Y-84654761D01*
X158992857Y-84630952D01*
X158945238Y-84607142D01*
X158921428Y-84607142D01*
X158873809Y-84630952D01*
X158850000Y-84654761D01*
X158826190Y-84702380D01*
X158826190Y-84797619D01*
X158850000Y-84845238D01*
X158873809Y-84869047D01*
X158921428Y-84892857D01*
X158945238Y-84892857D01*
X158992857Y-84869047D01*
X159016666Y-84845238D01*
X159040476Y-84797619D01*
X159040476Y-84702380D01*
X159064285Y-84654761D01*
X159088095Y-84630952D01*
X159135714Y-84607142D01*
X159230952Y-84607142D01*
X159278571Y-84630952D01*
X159302380Y-84654761D01*
X159326190Y-84702380D01*
X159326190Y-84797619D01*
X159302380Y-84845238D01*
X159278571Y-84869047D01*
X159230952Y-84892857D01*
X159135714Y-84892857D01*
X159088095Y-84869047D01*
X159064285Y-84845238D01*
X159040476Y-84797619D01*
X161326190Y-84416666D02*
X161088095Y-84250000D01*
X161326190Y-84130952D02*
X160826190Y-84130952D01*
X160826190Y-84321428D01*
X160850000Y-84369047D01*
X160873809Y-84392857D01*
X160921428Y-84416666D01*
X160992857Y-84416666D01*
X161040476Y-84392857D01*
X161064285Y-84369047D01*
X161088095Y-84321428D01*
X161088095Y-84130952D01*
X160826190Y-84583333D02*
X160826190Y-84916666D01*
X161326190Y-84702380D01*
D11*
X150861904Y-71252380D02*
X150861904Y-72061904D01*
X150814285Y-72157142D01*
X150766666Y-72204761D01*
X150671428Y-72252380D01*
X150480952Y-72252380D01*
X150385714Y-72204761D01*
X150338095Y-72157142D01*
X150290476Y-72061904D01*
X150290476Y-71252380D01*
X149909523Y-71252380D02*
X149290476Y-71252380D01*
X149623809Y-71633333D01*
X149480952Y-71633333D01*
X149385714Y-71680952D01*
X149338095Y-71728571D01*
X149290476Y-71823809D01*
X149290476Y-72061904D01*
X149338095Y-72157142D01*
X149385714Y-72204761D01*
X149480952Y-72252380D01*
X149766666Y-72252380D01*
X149861904Y-72204761D01*
X149909523Y-72157142D01*
D10*
X160183333Y-87578571D02*
X160207142Y-87602380D01*
X160278571Y-87626190D01*
X160326190Y-87626190D01*
X160397619Y-87602380D01*
X160445238Y-87554761D01*
X160469047Y-87507142D01*
X160492857Y-87411904D01*
X160492857Y-87340476D01*
X160469047Y-87245238D01*
X160445238Y-87197619D01*
X160397619Y-87150000D01*
X160326190Y-87126190D01*
X160278571Y-87126190D01*
X160207142Y-87150000D01*
X160183333Y-87173809D01*
X159754761Y-87292857D02*
X159754761Y-87626190D01*
X159873809Y-87102380D02*
X159992857Y-87459523D01*
X159683333Y-87459523D01*
D12*
X159575000Y-78800000D02*
X160825000Y-78800000D01*
X160825000Y-76800000D02*
X159575000Y-76800000D01*
X160825000Y-78800000D02*
X160825000Y-76800000D01*
X159575000Y-76800000D02*
X159575000Y-78800000D01*
X140625000Y-80800000D02*
X139375000Y-80800000D01*
X139375000Y-82800000D02*
X140625000Y-82800000D01*
X139375000Y-80800000D02*
X139375000Y-82800000D01*
X140625000Y-82800000D02*
X140625000Y-80800000D01*
X139000000Y-75425000D02*
X141000000Y-75425000D01*
X139000000Y-74175000D02*
X139000000Y-75425000D01*
X141000000Y-74175000D02*
X139000000Y-74175000D01*
X141000000Y-75425000D02*
X141000000Y-74175000D01*
X158475000Y-83500000D02*
X158475000Y-85500000D01*
X158475000Y-85500000D02*
X159725000Y-85500000D01*
X159725000Y-83500000D02*
X158475000Y-83500000D01*
X159725000Y-85500000D02*
X159725000Y-83500000D01*
X160475000Y-85500000D02*
X161725000Y-85500000D01*
X161725000Y-85500000D02*
X161725000Y-83500000D01*
X160475000Y-83500000D02*
X160475000Y-85500000D01*
X161725000Y-83500000D02*
X160475000Y-83500000D01*
X146885000Y-68325000D02*
X146885000Y-87645000D01*
X147885000Y-88645000D02*
X153235000Y-88645000D01*
X146885000Y-87645000D02*
X147885000Y-88645000D01*
X153235000Y-88645000D02*
X153235000Y-68325000D01*
X153235000Y-68325000D02*
X146885000Y-68325000D01*
X159100000Y-88025000D02*
X161100000Y-88025000D01*
X161100000Y-86775000D02*
X159100000Y-86775000D01*
X159100000Y-86775000D02*
X159100000Y-88025000D01*
X161100000Y-88025000D02*
X161100000Y-86775000D01*
M02*
