G04 #@! TF.GenerationSoftware,KiCad,Pcbnew,(6.0.2)*
G04 #@! TF.CreationDate,2022-09-28T01:57:45+02:00*
G04 #@! TF.ProjectId,Tiny-Power-Meter,54696e79-2d50-46f7-9765-722d4d657465,rev?*
G04 #@! TF.SameCoordinates,Original*
G04 #@! TF.FileFunction,Copper,L2,Bot*
G04 #@! TF.FilePolarity,Positive*
%FSLAX46Y46*%
G04 Gerber Fmt 4.6, Leading zero omitted, Abs format (unit mm)*
G04 Created by KiCad (PCBNEW (6.0.2)) date 2022-09-28 01:57:45*
%MOMM*%
%LPD*%
G01*
G04 APERTURE LIST*
G04 Aperture macros list*
%AMRoundRect*
0 Rectangle with rounded corners*
0 $1 Rounding radius*
0 $2 $3 $4 $5 $6 $7 $8 $9 X,Y pos of 4 corners*
0 Add a 4 corners polygon primitive as box body*
4,1,4,$2,$3,$4,$5,$6,$7,$8,$9,$2,$3,0*
0 Add four circle primitives for the rounded corners*
1,1,$1+$1,$2,$3*
1,1,$1+$1,$4,$5*
1,1,$1+$1,$6,$7*
1,1,$1+$1,$8,$9*
0 Add four rect primitives between the rounded corners*
20,1,$1+$1,$2,$3,$4,$5,0*
20,1,$1+$1,$4,$5,$6,$7,0*
20,1,$1+$1,$6,$7,$8,$9,0*
20,1,$1+$1,$8,$9,$2,$3,0*%
G04 Aperture macros list end*
G04 #@! TA.AperFunction,ComponentPad*
%ADD10R,2.200000X2.200000*%
G04 #@! TD*
G04 #@! TA.AperFunction,ComponentPad*
%ADD11C,2.200000*%
G04 #@! TD*
G04 #@! TA.AperFunction,ComponentPad*
%ADD12R,1.350000X1.350000*%
G04 #@! TD*
G04 #@! TA.AperFunction,ComponentPad*
%ADD13O,1.350000X1.350000*%
G04 #@! TD*
G04 #@! TA.AperFunction,ComponentPad*
%ADD14C,1.350000*%
G04 #@! TD*
G04 #@! TA.AperFunction,ComponentPad*
%ADD15R,1.700000X1.700000*%
G04 #@! TD*
G04 #@! TA.AperFunction,ComponentPad*
%ADD16O,1.700000X1.700000*%
G04 #@! TD*
G04 #@! TA.AperFunction,ComponentPad*
%ADD17C,0.700000*%
G04 #@! TD*
G04 #@! TA.AperFunction,ComponentPad*
%ADD18C,4.400000*%
G04 #@! TD*
G04 #@! TA.AperFunction,SMDPad,CuDef*
%ADD19RoundRect,0.250000X0.450000X-0.262500X0.450000X0.262500X-0.450000X0.262500X-0.450000X-0.262500X0*%
G04 #@! TD*
G04 #@! TA.AperFunction,SMDPad,CuDef*
%ADD20RoundRect,0.250000X0.262500X0.450000X-0.262500X0.450000X-0.262500X-0.450000X0.262500X-0.450000X0*%
G04 #@! TD*
G04 #@! TA.AperFunction,SMDPad,CuDef*
%ADD21RoundRect,0.250000X-0.450000X0.262500X-0.450000X-0.262500X0.450000X-0.262500X0.450000X0.262500X0*%
G04 #@! TD*
G04 #@! TA.AperFunction,ComponentPad*
%ADD22O,1.600000X1.600000*%
G04 #@! TD*
G04 #@! TA.AperFunction,ComponentPad*
%ADD23R,1.600000X1.600000*%
G04 #@! TD*
G04 #@! TA.AperFunction,SMDPad,CuDef*
%ADD24RoundRect,0.250000X-0.250000X-0.475000X0.250000X-0.475000X0.250000X0.475000X-0.250000X0.475000X0*%
G04 #@! TD*
G04 #@! TA.AperFunction,ViaPad*
%ADD25C,0.600000*%
G04 #@! TD*
G04 #@! TA.AperFunction,Conductor*
%ADD26C,1.000000*%
G04 #@! TD*
G04 #@! TA.AperFunction,Conductor*
%ADD27C,0.600000*%
G04 #@! TD*
G04 #@! TA.AperFunction,Conductor*
%ADD28C,0.500000*%
G04 #@! TD*
G04 APERTURE END LIST*
D10*
X148800000Y-93100000D03*
D11*
X151340000Y-93100000D03*
D12*
X143045000Y-70780000D03*
D13*
X143045000Y-72780000D03*
X143045000Y-74780000D03*
X143045000Y-76780000D03*
X143045000Y-78780000D03*
X143045000Y-80780000D03*
X143045000Y-82780000D03*
X143045000Y-84780000D03*
X157045000Y-84780000D03*
X157045000Y-82780000D03*
X157045000Y-80780000D03*
X157045000Y-78780000D03*
X157045000Y-76780000D03*
X157045000Y-74780000D03*
X157045000Y-72780000D03*
D14*
X157045000Y-70780000D03*
D15*
X160200000Y-89650000D03*
D16*
X160200000Y-92190000D03*
X157660000Y-89650000D03*
X157660000Y-92190000D03*
X155120000Y-89650000D03*
X155120000Y-92190000D03*
D17*
X162466726Y-71666726D03*
X162950000Y-70500000D03*
X162466726Y-69333274D03*
X161300000Y-72150000D03*
X160133274Y-71666726D03*
X161300000Y-68850000D03*
X159650000Y-70500000D03*
D18*
X161300000Y-70500000D03*
D17*
X160133274Y-69333274D03*
X139966726Y-71666726D03*
X140450000Y-70500000D03*
X137633274Y-71666726D03*
X139966726Y-69333274D03*
X137150000Y-70500000D03*
X138800000Y-72150000D03*
X137633274Y-69333274D03*
X138800000Y-68850000D03*
D18*
X138800000Y-70500000D03*
D19*
X160200000Y-78712500D03*
X160200000Y-76887500D03*
X140000000Y-82712500D03*
X140000000Y-80887500D03*
D20*
X140912500Y-74800000D03*
X139087500Y-74800000D03*
D19*
X159100000Y-85412500D03*
X159100000Y-83587500D03*
D21*
X161100000Y-83587500D03*
X161100000Y-85412500D03*
D22*
X153870000Y-87375000D03*
X153870000Y-84835000D03*
X153870000Y-82295000D03*
X153870000Y-79755000D03*
X153870000Y-77215000D03*
X153870000Y-74675000D03*
X153870000Y-72135000D03*
X153870000Y-69595000D03*
X146250000Y-69595000D03*
X146250000Y-72135000D03*
X146250000Y-74675000D03*
X146250000Y-77215000D03*
X146250000Y-79755000D03*
X146250000Y-82295000D03*
X146250000Y-84835000D03*
D23*
X146250000Y-87375000D03*
D24*
X159150000Y-87400000D03*
X161050000Y-87400000D03*
D25*
X145800000Y-92100000D03*
X137260000Y-94950000D03*
X138300000Y-85000000D03*
X161100000Y-82500000D03*
D26*
X157651713Y-84173287D02*
X157045000Y-84780000D01*
X159100000Y-83587500D02*
X159065927Y-83587500D01*
X159065927Y-83587501D02*
G75*
G03*
X157651714Y-84173288I0J-1999999D01*
G01*
D27*
X161100000Y-83587500D02*
X161100000Y-82500000D01*
D28*
X140000000Y-84221573D02*
X140000000Y-82800000D01*
X143714213Y-85785787D02*
X143685786Y-85814214D01*
X140764213Y-85814213D02*
X140585786Y-85635786D01*
X142271573Y-86400000D02*
X142178427Y-86400000D01*
X144300000Y-84328427D02*
X144300000Y-84371573D01*
X146250000Y-82295000D02*
X145505000Y-82295000D01*
X145505000Y-82295000D02*
X144885786Y-82914214D01*
X140764213Y-85814213D02*
G75*
G03*
X142178427Y-86400000I1414214J1414213D01*
G01*
X143714213Y-85785787D02*
G75*
G03*
X144300000Y-84371573I-1414213J1414214D01*
G01*
X140585786Y-85635786D02*
G75*
G02*
X140000000Y-84221573I1414214J1414213D01*
G01*
X144300001Y-84328427D02*
G75*
G02*
X144885787Y-82914215I1999999J0D01*
G01*
X142271573Y-86399999D02*
G75*
G03*
X143685785Y-85814213I0J1999999D01*
G01*
X141000000Y-74800000D02*
X141025000Y-74800000D01*
X140000000Y-76628427D02*
X140000000Y-80800000D01*
X141025000Y-74800000D02*
X143045000Y-72780000D01*
X141000000Y-74800000D02*
X140585786Y-75214214D01*
X140585786Y-75214214D02*
G75*
G03*
X140000000Y-76628427I1414214J-1414213D01*
G01*
X155500000Y-84753427D02*
X155500000Y-86661573D01*
X153870000Y-82295000D02*
X154914214Y-83339214D01*
X156085787Y-88075787D02*
X157660000Y-89650000D01*
X156085787Y-88075787D02*
G75*
G02*
X155500000Y-86661573I1414213J1414214D01*
G01*
X155499999Y-84753427D02*
G75*
G03*
X154914213Y-83339215I-1999999J0D01*
G01*
X160200000Y-78796573D02*
X160200000Y-78712500D01*
X157045000Y-82780000D02*
X159614214Y-80210786D01*
X160199999Y-78796573D02*
G75*
G02*
X159614213Y-80210785I-1999999J0D01*
G01*
X146250000Y-74675000D02*
X145978427Y-74675000D01*
X144564213Y-75260787D02*
X143045000Y-76780000D01*
X144564213Y-75260787D02*
G75*
G02*
X145978427Y-74675000I1414214J-1414213D01*
G01*
X160200000Y-92190000D02*
X157660000Y-92190000D01*
X161050000Y-87400000D02*
X161114214Y-87464214D01*
X161100000Y-87350000D02*
X161050000Y-87400000D01*
X155120000Y-92190000D02*
X157660000Y-92190000D01*
X161100000Y-85412500D02*
X161100000Y-87350000D01*
X161700000Y-88878427D02*
X161700000Y-89861573D01*
X159100000Y-85412500D02*
X161100000Y-85412500D01*
X161114213Y-91275787D02*
X160200000Y-92190000D01*
X161699999Y-88878427D02*
G75*
G03*
X161114213Y-87464215I-1999999J0D01*
G01*
X161114213Y-91275787D02*
G75*
G03*
X161700000Y-89861573I-1414213J1414214D01*
G01*
X153870000Y-69595000D02*
X154914214Y-70639214D01*
X156085787Y-79820787D02*
X157045000Y-80780000D01*
X155500000Y-72053427D02*
X155500000Y-78406573D01*
X156085787Y-79820787D02*
G75*
G02*
X155500000Y-78406573I1414213J1414214D01*
G01*
X154914214Y-70639214D02*
G75*
G02*
X155500000Y-72053427I-1414214J-1414213D01*
G01*
G04 #@! TA.AperFunction,Conductor*
G36*
X145251140Y-68528002D02*
G01*
X145297633Y-68581658D01*
X145307737Y-68651932D01*
X145278243Y-68716512D01*
X145272114Y-68723095D01*
X145248084Y-68747125D01*
X145241028Y-68755533D01*
X145116069Y-68933993D01*
X145110586Y-68943489D01*
X145047591Y-69078583D01*
X145045474Y-69092523D01*
X145049262Y-69095000D01*
X147441949Y-69095000D01*
X147455480Y-69091027D01*
X147456123Y-69086550D01*
X147389414Y-68943489D01*
X147383931Y-68933993D01*
X147258972Y-68755533D01*
X147251916Y-68747125D01*
X147227886Y-68723095D01*
X147193860Y-68660783D01*
X147198925Y-68589968D01*
X147241472Y-68533132D01*
X147307992Y-68508321D01*
X147316981Y-68508000D01*
X152802312Y-68508000D01*
X152870433Y-68528002D01*
X152916926Y-68581658D01*
X152927030Y-68651932D01*
X152897536Y-68716512D01*
X152891407Y-68723095D01*
X152863802Y-68750700D01*
X152732477Y-68938251D01*
X152730154Y-68943233D01*
X152730151Y-68943238D01*
X152663324Y-69086550D01*
X152635716Y-69145757D01*
X152634294Y-69151065D01*
X152634293Y-69151067D01*
X152615500Y-69221204D01*
X152576457Y-69366913D01*
X152556502Y-69595000D01*
X152576457Y-69823087D01*
X152577881Y-69828400D01*
X152577881Y-69828402D01*
X152624542Y-70002540D01*
X152635716Y-70044243D01*
X152638039Y-70049224D01*
X152638039Y-70049225D01*
X152730151Y-70246762D01*
X152730154Y-70246767D01*
X152732477Y-70251749D01*
X152735634Y-70256257D01*
X152855112Y-70426889D01*
X152863802Y-70439300D01*
X153025700Y-70601198D01*
X153030208Y-70604355D01*
X153030211Y-70604357D01*
X153082801Y-70641181D01*
X153213251Y-70732523D01*
X153218233Y-70734846D01*
X153218238Y-70734849D01*
X153252457Y-70750805D01*
X153305742Y-70797722D01*
X153325203Y-70865999D01*
X153304661Y-70933959D01*
X153252457Y-70979195D01*
X153218238Y-70995151D01*
X153218233Y-70995154D01*
X153213251Y-70997477D01*
X153127578Y-71057466D01*
X153030211Y-71125643D01*
X153030208Y-71125645D01*
X153025700Y-71128802D01*
X152863802Y-71290700D01*
X152732477Y-71478251D01*
X152730154Y-71483233D01*
X152730151Y-71483238D01*
X152663324Y-71626550D01*
X152635716Y-71685757D01*
X152634294Y-71691065D01*
X152634293Y-71691067D01*
X152584441Y-71877116D01*
X152576457Y-71906913D01*
X152556502Y-72135000D01*
X152576457Y-72363087D01*
X152577881Y-72368400D01*
X152577881Y-72368402D01*
X152625899Y-72547604D01*
X152635716Y-72584243D01*
X152638039Y-72589224D01*
X152638039Y-72589225D01*
X152730151Y-72786762D01*
X152730154Y-72786767D01*
X152732477Y-72791749D01*
X152863802Y-72979300D01*
X153025700Y-73141198D01*
X153030208Y-73144355D01*
X153030211Y-73144357D01*
X153031972Y-73145590D01*
X153213251Y-73272523D01*
X153218233Y-73274846D01*
X153218238Y-73274849D01*
X153252457Y-73290805D01*
X153305742Y-73337722D01*
X153325203Y-73405999D01*
X153304661Y-73473959D01*
X153252457Y-73519195D01*
X153218238Y-73535151D01*
X153218233Y-73535154D01*
X153213251Y-73537477D01*
X153135617Y-73591837D01*
X153030211Y-73665643D01*
X153030208Y-73665645D01*
X153025700Y-73668802D01*
X152863802Y-73830700D01*
X152860645Y-73835208D01*
X152860643Y-73835211D01*
X152838007Y-73867539D01*
X152732477Y-74018251D01*
X152730154Y-74023233D01*
X152730151Y-74023238D01*
X152703683Y-74080000D01*
X152635716Y-74225757D01*
X152634294Y-74231065D01*
X152634293Y-74231067D01*
X152577881Y-74441598D01*
X152576457Y-74446913D01*
X152556502Y-74675000D01*
X152576457Y-74903087D01*
X152635716Y-75124243D01*
X152638039Y-75129224D01*
X152638039Y-75129225D01*
X152730151Y-75326762D01*
X152730154Y-75326767D01*
X152732477Y-75331749D01*
X152863802Y-75519300D01*
X153025700Y-75681198D01*
X153030208Y-75684355D01*
X153030211Y-75684357D01*
X153076933Y-75717072D01*
X153213251Y-75812523D01*
X153218233Y-75814846D01*
X153218238Y-75814849D01*
X153252457Y-75830805D01*
X153305742Y-75877722D01*
X153325203Y-75945999D01*
X153304661Y-76013959D01*
X153252457Y-76059195D01*
X153218238Y-76075151D01*
X153218233Y-76075154D01*
X153213251Y-76077477D01*
X153140920Y-76128124D01*
X153030211Y-76205643D01*
X153030208Y-76205645D01*
X153025700Y-76208802D01*
X152863802Y-76370700D01*
X152860645Y-76375208D01*
X152860643Y-76375211D01*
X152852038Y-76387500D01*
X152732477Y-76558251D01*
X152730154Y-76563233D01*
X152730151Y-76563238D01*
X152640894Y-76754653D01*
X152635716Y-76765757D01*
X152634294Y-76771065D01*
X152634293Y-76771067D01*
X152580578Y-76971534D01*
X152576457Y-76986913D01*
X152556502Y-77215000D01*
X152576457Y-77443087D01*
X152577881Y-77448400D01*
X152577881Y-77448402D01*
X152624970Y-77624137D01*
X152635716Y-77664243D01*
X152638039Y-77669224D01*
X152638039Y-77669225D01*
X152730151Y-77866762D01*
X152730154Y-77866767D01*
X152732477Y-77871749D01*
X152863802Y-78059300D01*
X153025700Y-78221198D01*
X153030208Y-78224355D01*
X153030211Y-78224357D01*
X153108389Y-78279098D01*
X153213251Y-78352523D01*
X153218233Y-78354846D01*
X153218238Y-78354849D01*
X153252457Y-78370805D01*
X153305742Y-78417722D01*
X153325203Y-78485999D01*
X153304661Y-78553959D01*
X153252457Y-78599195D01*
X153218238Y-78615151D01*
X153218233Y-78615154D01*
X153213251Y-78617477D01*
X153181892Y-78639435D01*
X153030211Y-78745643D01*
X153030208Y-78745645D01*
X153025700Y-78748802D01*
X152863802Y-78910700D01*
X152732477Y-79098251D01*
X152730154Y-79103233D01*
X152730151Y-79103238D01*
X152655451Y-79263435D01*
X152635716Y-79305757D01*
X152634294Y-79311065D01*
X152634293Y-79311067D01*
X152595014Y-79457659D01*
X152576457Y-79526913D01*
X152556502Y-79755000D01*
X152576457Y-79983087D01*
X152577881Y-79988400D01*
X152577881Y-79988402D01*
X152624115Y-80160946D01*
X152635716Y-80204243D01*
X152638039Y-80209224D01*
X152638039Y-80209225D01*
X152730151Y-80406762D01*
X152730154Y-80406767D01*
X152732477Y-80411749D01*
X152778151Y-80476978D01*
X152848794Y-80577866D01*
X152863802Y-80599300D01*
X153025700Y-80761198D01*
X153030208Y-80764355D01*
X153030211Y-80764357D01*
X153068376Y-80791080D01*
X153213251Y-80892523D01*
X153218233Y-80894846D01*
X153218238Y-80894849D01*
X153252457Y-80910805D01*
X153305742Y-80957722D01*
X153325203Y-81025999D01*
X153304661Y-81093959D01*
X153252457Y-81139195D01*
X153218238Y-81155151D01*
X153218233Y-81155154D01*
X153213251Y-81157477D01*
X153108389Y-81230902D01*
X153030211Y-81285643D01*
X153030208Y-81285645D01*
X153025700Y-81288802D01*
X152863802Y-81450700D01*
X152860645Y-81455208D01*
X152860643Y-81455211D01*
X152805902Y-81533389D01*
X152732477Y-81638251D01*
X152730154Y-81643233D01*
X152730151Y-81643238D01*
X152648460Y-81818427D01*
X152635716Y-81845757D01*
X152634294Y-81851065D01*
X152634293Y-81851067D01*
X152599242Y-81981880D01*
X152576457Y-82066913D01*
X152556502Y-82295000D01*
X152576457Y-82523087D01*
X152577881Y-82528400D01*
X152577881Y-82528402D01*
X152632132Y-82730866D01*
X152635716Y-82744243D01*
X152638039Y-82749224D01*
X152638039Y-82749225D01*
X152730151Y-82946762D01*
X152730154Y-82946767D01*
X152732477Y-82951749D01*
X152786324Y-83028650D01*
X152857193Y-83129861D01*
X152863802Y-83139300D01*
X153025700Y-83301198D01*
X153030208Y-83304355D01*
X153030211Y-83304357D01*
X153031381Y-83305176D01*
X153213251Y-83432523D01*
X153218233Y-83434846D01*
X153218238Y-83434849D01*
X153252457Y-83450805D01*
X153305742Y-83497722D01*
X153325203Y-83565999D01*
X153304661Y-83633959D01*
X153252457Y-83679195D01*
X153218238Y-83695151D01*
X153218233Y-83695154D01*
X153213251Y-83697477D01*
X153124628Y-83759532D01*
X153030211Y-83825643D01*
X153030208Y-83825645D01*
X153025700Y-83828802D01*
X152863802Y-83990700D01*
X152860645Y-83995208D01*
X152860643Y-83995211D01*
X152836549Y-84029621D01*
X152732477Y-84178251D01*
X152730154Y-84183233D01*
X152730151Y-84183238D01*
X152664351Y-84324348D01*
X152635716Y-84385757D01*
X152634294Y-84391065D01*
X152634293Y-84391067D01*
X152630318Y-84405901D01*
X152576457Y-84606913D01*
X152556502Y-84835000D01*
X152576457Y-85063087D01*
X152577881Y-85068400D01*
X152577881Y-85068402D01*
X152626899Y-85251336D01*
X152635716Y-85284243D01*
X152638039Y-85289224D01*
X152638039Y-85289225D01*
X152730151Y-85486762D01*
X152730154Y-85486767D01*
X152732477Y-85491749D01*
X152774605Y-85551914D01*
X152859734Y-85673490D01*
X152863802Y-85679300D01*
X153025700Y-85841198D01*
X153030208Y-85844355D01*
X153030211Y-85844357D01*
X153040664Y-85851676D01*
X153213251Y-85972523D01*
X153218233Y-85974846D01*
X153218238Y-85974849D01*
X153252457Y-85990805D01*
X153305742Y-86037722D01*
X153325203Y-86105999D01*
X153304661Y-86173959D01*
X153252457Y-86219195D01*
X153218238Y-86235151D01*
X153218233Y-86235154D01*
X153213251Y-86237477D01*
X153155170Y-86278146D01*
X153030211Y-86365643D01*
X153030208Y-86365645D01*
X153025700Y-86368802D01*
X152863802Y-86530700D01*
X152732477Y-86718251D01*
X152730154Y-86723233D01*
X152730151Y-86723238D01*
X152638039Y-86920775D01*
X152635716Y-86925757D01*
X152634294Y-86931065D01*
X152634293Y-86931067D01*
X152586881Y-87108009D01*
X152576457Y-87146913D01*
X152556502Y-87375000D01*
X152576457Y-87603087D01*
X152577881Y-87608400D01*
X152577881Y-87608402D01*
X152634237Y-87818722D01*
X152635716Y-87824243D01*
X152638039Y-87829224D01*
X152638039Y-87829225D01*
X152730151Y-88026762D01*
X152730154Y-88026767D01*
X152732477Y-88031749D01*
X152763961Y-88076712D01*
X152847461Y-88195962D01*
X152863802Y-88219300D01*
X153025700Y-88381198D01*
X153030208Y-88384355D01*
X153030211Y-88384357D01*
X153062032Y-88406638D01*
X153213251Y-88512523D01*
X153218233Y-88514846D01*
X153218238Y-88514849D01*
X153300687Y-88553295D01*
X153420757Y-88609284D01*
X153426065Y-88610706D01*
X153426067Y-88610707D01*
X153636598Y-88667119D01*
X153636600Y-88667119D01*
X153641913Y-88668543D01*
X153870000Y-88688498D01*
X153875475Y-88688019D01*
X153875485Y-88688019D01*
X153882970Y-88687364D01*
X153952575Y-88701351D01*
X154003568Y-88750750D01*
X154019759Y-88819876D01*
X153998043Y-88883886D01*
X153934743Y-88976680D01*
X153840688Y-89179305D01*
X153780989Y-89394570D01*
X153757251Y-89616695D01*
X153770110Y-89839715D01*
X153771247Y-89844761D01*
X153771248Y-89844767D01*
X153785315Y-89907184D01*
X153819222Y-90057639D01*
X153903266Y-90264616D01*
X153940685Y-90325678D01*
X154017291Y-90450688D01*
X154019987Y-90455088D01*
X154166250Y-90623938D01*
X154338126Y-90766632D01*
X154408595Y-90807811D01*
X154411445Y-90809476D01*
X154460169Y-90861114D01*
X154473240Y-90930897D01*
X154446509Y-90996669D01*
X154406055Y-91030027D01*
X154393607Y-91036507D01*
X154389474Y-91039610D01*
X154389471Y-91039612D01*
X154219100Y-91167530D01*
X154214965Y-91170635D01*
X154060629Y-91332138D01*
X154057720Y-91336403D01*
X154057714Y-91336411D01*
X154018900Y-91393311D01*
X153934743Y-91516680D01*
X153888666Y-91615944D01*
X153843208Y-91713877D01*
X153840688Y-91719305D01*
X153780989Y-91934570D01*
X153757251Y-92156695D01*
X153757548Y-92161848D01*
X153757548Y-92161851D01*
X153763011Y-92256590D01*
X153770110Y-92379715D01*
X153771247Y-92384761D01*
X153771248Y-92384767D01*
X153791119Y-92472939D01*
X153819222Y-92597639D01*
X153903266Y-92804616D01*
X154019987Y-92995088D01*
X154166250Y-93163938D01*
X154338126Y-93306632D01*
X154531000Y-93419338D01*
X154739692Y-93499030D01*
X154744760Y-93500061D01*
X154744763Y-93500062D01*
X154852017Y-93521883D01*
X154958597Y-93543567D01*
X154963772Y-93543757D01*
X154963774Y-93543757D01*
X155176673Y-93551564D01*
X155176677Y-93551564D01*
X155181837Y-93551753D01*
X155186957Y-93551097D01*
X155186959Y-93551097D01*
X155398288Y-93524025D01*
X155398289Y-93524025D01*
X155403416Y-93523368D01*
X155408366Y-93521883D01*
X155612429Y-93460661D01*
X155612434Y-93460659D01*
X155617384Y-93459174D01*
X155817994Y-93360896D01*
X155999860Y-93231173D01*
X156158096Y-93073489D01*
X156210203Y-93000974D01*
X156266198Y-92957326D01*
X156312526Y-92948500D01*
X156462491Y-92948500D01*
X156530612Y-92968502D01*
X156559402Y-92995595D01*
X156559987Y-92995088D01*
X156706250Y-93163938D01*
X156878126Y-93306632D01*
X157071000Y-93419338D01*
X157279692Y-93499030D01*
X157284760Y-93500061D01*
X157284763Y-93500062D01*
X157392017Y-93521883D01*
X157498597Y-93543567D01*
X157503772Y-93543757D01*
X157503774Y-93543757D01*
X157716673Y-93551564D01*
X157716677Y-93551564D01*
X157721837Y-93551753D01*
X157726957Y-93551097D01*
X157726959Y-93551097D01*
X157938288Y-93524025D01*
X157938289Y-93524025D01*
X157943416Y-93523368D01*
X157948366Y-93521883D01*
X158152429Y-93460661D01*
X158152434Y-93460659D01*
X158157384Y-93459174D01*
X158357994Y-93360896D01*
X158539860Y-93231173D01*
X158698096Y-93073489D01*
X158750203Y-93000974D01*
X158806198Y-92957326D01*
X158852526Y-92948500D01*
X159002491Y-92948500D01*
X159070612Y-92968502D01*
X159099402Y-92995595D01*
X159099987Y-92995088D01*
X159246250Y-93163938D01*
X159418126Y-93306632D01*
X159611000Y-93419338D01*
X159819692Y-93499030D01*
X159824760Y-93500061D01*
X159824763Y-93500062D01*
X159932017Y-93521883D01*
X160038597Y-93543567D01*
X160043772Y-93543757D01*
X160043774Y-93543757D01*
X160256673Y-93551564D01*
X160256677Y-93551564D01*
X160261837Y-93551753D01*
X160266957Y-93551097D01*
X160266959Y-93551097D01*
X160478288Y-93524025D01*
X160478289Y-93524025D01*
X160483416Y-93523368D01*
X160488366Y-93521883D01*
X160692429Y-93460661D01*
X160692434Y-93460659D01*
X160697384Y-93459174D01*
X160897994Y-93360896D01*
X161079860Y-93231173D01*
X161238096Y-93073489D01*
X161297594Y-92990689D01*
X161365435Y-92896277D01*
X161368453Y-92892077D01*
X161467430Y-92691811D01*
X161532370Y-92478069D01*
X161561529Y-92256590D01*
X161563156Y-92190000D01*
X161545870Y-91979747D01*
X161560223Y-91910219D01*
X161582351Y-91880330D01*
X161606603Y-91856078D01*
X161619869Y-91844545D01*
X161620831Y-91843820D01*
X161638665Y-91830381D01*
X161653947Y-91815521D01*
X161666157Y-91800226D01*
X161671230Y-91794264D01*
X161834921Y-91613658D01*
X161863223Y-91575498D01*
X161994532Y-91398447D01*
X161996375Y-91395962D01*
X162135714Y-91163490D01*
X162163975Y-91103738D01*
X162250275Y-90921270D01*
X162250275Y-90921269D01*
X162251595Y-90918479D01*
X162342904Y-90663289D01*
X162353740Y-90620031D01*
X162408009Y-90403373D01*
X162408759Y-90400379D01*
X162448528Y-90132280D01*
X162452195Y-90057639D01*
X162456820Y-89963487D01*
X162457413Y-89957576D01*
X162457808Y-89955963D01*
X162458500Y-89944809D01*
X162458500Y-89932379D01*
X162458652Y-89926193D01*
X162459306Y-89912889D01*
X162460380Y-89901542D01*
X162462449Y-89886819D01*
X162462450Y-89886807D01*
X162463001Y-89882886D01*
X162463299Y-89861573D01*
X162459285Y-89825786D01*
X162458500Y-89811742D01*
X162458500Y-88940578D01*
X162459726Y-88923042D01*
X162462452Y-88903648D01*
X162462452Y-88903645D01*
X162463001Y-88899740D01*
X162463299Y-88878427D01*
X162461117Y-88858973D01*
X162460484Y-88851112D01*
X162448679Y-88610810D01*
X162448679Y-88610805D01*
X162448527Y-88607721D01*
X162408758Y-88339622D01*
X162387983Y-88256684D01*
X162343655Y-88079712D01*
X162343652Y-88079702D01*
X162342903Y-88076712D01*
X162326607Y-88031166D01*
X162252635Y-87824429D01*
X162251595Y-87821522D01*
X162135713Y-87576512D01*
X162076426Y-87477597D01*
X162058500Y-87412820D01*
X162058500Y-86874600D01*
X162058163Y-86871350D01*
X162048238Y-86775692D01*
X162048237Y-86775688D01*
X162047526Y-86768834D01*
X162023882Y-86697963D01*
X161993868Y-86608002D01*
X161991550Y-86601054D01*
X161920355Y-86486004D01*
X161901517Y-86417553D01*
X161922678Y-86349784D01*
X161961196Y-86312558D01*
X162018120Y-86277332D01*
X162024348Y-86273478D01*
X162149305Y-86148303D01*
X162154026Y-86140644D01*
X162238275Y-86003968D01*
X162238276Y-86003966D01*
X162242115Y-85997738D01*
X162274841Y-85899071D01*
X162295632Y-85836389D01*
X162295632Y-85836387D01*
X162297797Y-85829861D01*
X162298717Y-85820887D01*
X162305640Y-85753311D01*
X162308500Y-85725400D01*
X162308500Y-85099600D01*
X162307524Y-85090190D01*
X162298238Y-85000692D01*
X162298237Y-85000688D01*
X162297526Y-84993834D01*
X162288218Y-84965933D01*
X162243868Y-84833002D01*
X162241550Y-84826054D01*
X162148478Y-84675652D01*
X162061891Y-84589216D01*
X162027812Y-84526934D01*
X162032815Y-84456114D01*
X162061736Y-84411025D01*
X162144134Y-84328483D01*
X162149305Y-84323303D01*
X162168979Y-84291386D01*
X162238275Y-84178968D01*
X162238276Y-84178966D01*
X162242115Y-84172738D01*
X162297797Y-84004861D01*
X162301741Y-83966373D01*
X162303243Y-83951712D01*
X162308500Y-83900400D01*
X162308500Y-83274600D01*
X162297526Y-83168834D01*
X162286702Y-83136389D01*
X162243868Y-83008002D01*
X162241550Y-83001054D01*
X162148478Y-82850652D01*
X162023303Y-82725695D01*
X162017075Y-82721856D01*
X162017070Y-82721852D01*
X161968383Y-82691841D01*
X161920890Y-82639069D01*
X161908500Y-82584582D01*
X161908500Y-82565676D01*
X161909726Y-82548140D01*
X161912748Y-82526639D01*
X161912748Y-82526636D01*
X161913299Y-82522717D01*
X161913616Y-82500000D01*
X161893397Y-82319745D01*
X161891080Y-82313091D01*
X161836064Y-82155106D01*
X161836062Y-82155103D01*
X161833745Y-82148448D01*
X161737626Y-81994624D01*
X161727762Y-81984691D01*
X161614778Y-81870915D01*
X161614774Y-81870912D01*
X161609815Y-81865918D01*
X161598697Y-81858862D01*
X161534981Y-81818427D01*
X161456666Y-81768727D01*
X161427463Y-81758328D01*
X161292425Y-81710243D01*
X161292420Y-81710242D01*
X161285790Y-81707881D01*
X161278802Y-81707048D01*
X161278799Y-81707047D01*
X161131593Y-81689494D01*
X161105680Y-81686404D01*
X161098677Y-81687140D01*
X161098676Y-81687140D01*
X160932288Y-81704628D01*
X160932286Y-81704629D01*
X160925288Y-81705364D01*
X160753579Y-81763818D01*
X160747575Y-81767512D01*
X160605095Y-81855166D01*
X160605092Y-81855168D01*
X160599088Y-81858862D01*
X160594053Y-81863793D01*
X160594050Y-81863795D01*
X160474525Y-81980843D01*
X160469493Y-81985771D01*
X160371235Y-82138238D01*
X160368826Y-82144858D01*
X160368824Y-82144861D01*
X160361802Y-82164155D01*
X160309197Y-82308685D01*
X160286463Y-82488640D01*
X160289189Y-82516443D01*
X160290899Y-82533882D01*
X160291500Y-82546177D01*
X160291500Y-82584631D01*
X160271498Y-82652752D01*
X160231807Y-82691772D01*
X160175652Y-82726522D01*
X160175271Y-82726904D01*
X160112044Y-82752494D01*
X160042280Y-82739322D01*
X160021497Y-82725991D01*
X160016757Y-82722247D01*
X159878757Y-82637184D01*
X159865576Y-82631037D01*
X159711290Y-82579862D01*
X159697914Y-82576995D01*
X159613523Y-82568348D01*
X159602876Y-82571475D01*
X159601671Y-82572865D01*
X159600000Y-82580548D01*
X159600000Y-83961500D01*
X159579998Y-84029621D01*
X159526342Y-84076114D01*
X159474000Y-84087500D01*
X158726000Y-84087500D01*
X158657879Y-84067498D01*
X158611386Y-84013842D01*
X158600000Y-83961500D01*
X158600000Y-82585116D01*
X158595525Y-82569877D01*
X158586219Y-82561813D01*
X158539545Y-82536327D01*
X158505520Y-82474014D01*
X158510584Y-82403199D01*
X158539545Y-82358136D01*
X160106601Y-80791080D01*
X160119867Y-80779547D01*
X160135506Y-80767762D01*
X160138667Y-80765380D01*
X160141502Y-80762623D01*
X160141508Y-80762618D01*
X160151108Y-80753282D01*
X160151110Y-80753280D01*
X160153948Y-80750520D01*
X160166162Y-80735219D01*
X160171251Y-80729237D01*
X160334921Y-80548656D01*
X160350715Y-80527361D01*
X160494532Y-80333446D01*
X160496375Y-80330961D01*
X160635713Y-80098488D01*
X160700730Y-79961022D01*
X160750271Y-79856278D01*
X160750273Y-79856273D01*
X160751595Y-79853478D01*
X160776764Y-79783135D01*
X160818546Y-79725735D01*
X160855523Y-79706059D01*
X160857667Y-79705344D01*
X160973946Y-79666550D01*
X161124348Y-79573478D01*
X161249305Y-79448303D01*
X161342115Y-79297738D01*
X161382244Y-79176753D01*
X161395632Y-79136389D01*
X161395632Y-79136387D01*
X161397797Y-79129861D01*
X161408500Y-79025400D01*
X161408500Y-78399600D01*
X161407344Y-78388456D01*
X161398238Y-78300692D01*
X161398237Y-78300688D01*
X161397526Y-78293834D01*
X161371993Y-78217301D01*
X161343868Y-78133002D01*
X161341550Y-78126054D01*
X161248478Y-77975652D01*
X161230837Y-77958042D01*
X161161537Y-77888862D01*
X161127458Y-77826579D01*
X161132461Y-77755759D01*
X161161382Y-77710671D01*
X161243739Y-77628171D01*
X161252751Y-77616760D01*
X161337816Y-77478757D01*
X161343963Y-77465576D01*
X161364157Y-77404694D01*
X161364646Y-77390601D01*
X161358435Y-77387500D01*
X159048252Y-77387500D01*
X159034721Y-77391473D01*
X159033740Y-77398299D01*
X159056588Y-77466784D01*
X159062761Y-77479962D01*
X159148063Y-77617807D01*
X159157099Y-77629208D01*
X159238462Y-77710430D01*
X159272541Y-77772713D01*
X159267538Y-77843533D01*
X159238617Y-77888620D01*
X159155870Y-77971512D01*
X159155866Y-77971517D01*
X159150695Y-77976697D01*
X159146855Y-77982927D01*
X159146854Y-77982928D01*
X159099778Y-78059300D01*
X159057885Y-78127262D01*
X159002203Y-78295139D01*
X158991500Y-78399600D01*
X158991500Y-79025400D01*
X158991837Y-79028646D01*
X158991837Y-79028650D01*
X158999059Y-79098251D01*
X159002474Y-79131166D01*
X159058450Y-79298946D01*
X159107990Y-79379001D01*
X159151522Y-79449348D01*
X159149323Y-79450709D01*
X159171407Y-79505288D01*
X159158228Y-79575051D01*
X159141839Y-79599551D01*
X159105544Y-79642047D01*
X159092674Y-79654324D01*
X159092687Y-79654337D01*
X159087631Y-79659254D01*
X159082068Y-79663569D01*
X159077598Y-79669011D01*
X159055244Y-79696225D01*
X159046975Y-79705344D01*
X158358993Y-80393326D01*
X158296681Y-80427352D01*
X158225866Y-80422287D01*
X158169030Y-80379740D01*
X158154799Y-80353970D01*
X158154626Y-80354055D01*
X158058423Y-80158974D01*
X158015240Y-80101144D01*
X157931733Y-79989315D01*
X157931732Y-79989314D01*
X157928280Y-79984691D01*
X157872237Y-79932885D01*
X157806078Y-79871729D01*
X157769633Y-79810800D01*
X157771914Y-79739840D01*
X157811038Y-79682330D01*
X157827053Y-79669011D01*
X157885446Y-79620446D01*
X158024532Y-79453213D01*
X158104138Y-79311067D01*
X158127989Y-79268478D01*
X158127990Y-79268476D01*
X158130813Y-79263435D01*
X158132669Y-79257968D01*
X158132671Y-79257963D01*
X158198874Y-79062935D01*
X158198875Y-79062930D01*
X158200730Y-79057466D01*
X158231941Y-78842205D01*
X158233570Y-78780000D01*
X158213667Y-78563400D01*
X158211005Y-78553959D01*
X158156195Y-78359619D01*
X158154626Y-78354055D01*
X158058423Y-78158974D01*
X158030091Y-78121032D01*
X157931733Y-77989315D01*
X157931732Y-77989314D01*
X157928280Y-77984691D01*
X157806078Y-77871729D01*
X157769633Y-77810800D01*
X157771914Y-77739840D01*
X157811038Y-77682330D01*
X157826796Y-77669225D01*
X157885446Y-77620446D01*
X158024532Y-77453213D01*
X158130813Y-77263435D01*
X158132669Y-77257968D01*
X158132671Y-77257963D01*
X158198874Y-77062935D01*
X158198875Y-77062930D01*
X158200730Y-77057466D01*
X158231941Y-76842205D01*
X158233570Y-76780000D01*
X158213667Y-76563400D01*
X158212035Y-76557611D01*
X158163184Y-76384399D01*
X159035354Y-76384399D01*
X159041565Y-76387500D01*
X159681885Y-76387500D01*
X159697124Y-76383025D01*
X159698329Y-76381635D01*
X159700000Y-76373952D01*
X159700000Y-76369385D01*
X160700000Y-76369385D01*
X160704475Y-76384624D01*
X160705865Y-76385829D01*
X160713548Y-76387500D01*
X161351748Y-76387500D01*
X161365279Y-76383527D01*
X161366260Y-76376701D01*
X161343412Y-76308216D01*
X161337239Y-76295038D01*
X161251937Y-76157193D01*
X161242901Y-76145792D01*
X161128171Y-76031261D01*
X161116760Y-76022249D01*
X160978757Y-75937184D01*
X160965576Y-75931037D01*
X160811290Y-75879862D01*
X160797914Y-75876995D01*
X160713523Y-75868348D01*
X160702876Y-75871475D01*
X160701671Y-75872865D01*
X160700000Y-75880548D01*
X160700000Y-76369385D01*
X159700000Y-76369385D01*
X159700000Y-75885116D01*
X159695525Y-75869877D01*
X159694135Y-75868672D01*
X159690710Y-75867927D01*
X159600794Y-75877257D01*
X159587400Y-75880149D01*
X159433216Y-75931588D01*
X159420038Y-75937761D01*
X159282193Y-76023063D01*
X159270792Y-76032099D01*
X159156261Y-76146829D01*
X159147249Y-76158240D01*
X159062184Y-76296243D01*
X159056037Y-76309424D01*
X159035843Y-76370306D01*
X159035354Y-76384399D01*
X158163184Y-76384399D01*
X158161013Y-76376701D01*
X158154626Y-76354055D01*
X158058423Y-76158974D01*
X158004142Y-76086282D01*
X157931733Y-75989315D01*
X157931732Y-75989314D01*
X157928280Y-75984691D01*
X157906596Y-75964646D01*
X157806078Y-75871729D01*
X157769633Y-75810800D01*
X157771914Y-75739840D01*
X157811038Y-75682330D01*
X157812400Y-75681198D01*
X157885446Y-75620446D01*
X158024532Y-75453213D01*
X158107051Y-75305865D01*
X158127989Y-75268478D01*
X158127990Y-75268476D01*
X158130813Y-75263435D01*
X158132669Y-75257968D01*
X158132671Y-75257963D01*
X158198874Y-75062935D01*
X158198875Y-75062930D01*
X158200730Y-75057466D01*
X158231941Y-74842205D01*
X158233570Y-74780000D01*
X158213667Y-74563400D01*
X158154626Y-74354055D01*
X158058423Y-74158974D01*
X158031863Y-74123405D01*
X157931733Y-73989315D01*
X157931732Y-73989314D01*
X157928280Y-73984691D01*
X157806078Y-73871729D01*
X157769633Y-73810800D01*
X157771914Y-73739840D01*
X157811038Y-73682330D01*
X157834568Y-73662761D01*
X157885446Y-73620446D01*
X158024532Y-73453213D01*
X158124421Y-73274849D01*
X158127989Y-73268478D01*
X158127990Y-73268476D01*
X158130813Y-73263435D01*
X158132669Y-73257968D01*
X158132671Y-73257963D01*
X158198874Y-73062935D01*
X158198875Y-73062930D01*
X158200730Y-73057466D01*
X158231941Y-72842205D01*
X158233570Y-72780000D01*
X158213667Y-72563400D01*
X158206658Y-72538546D01*
X158156195Y-72359619D01*
X158154626Y-72354055D01*
X158058423Y-72158974D01*
X158036433Y-72129525D01*
X157931733Y-71989315D01*
X157931732Y-71989314D01*
X157928280Y-71984691D01*
X157878506Y-71938680D01*
X157806078Y-71871729D01*
X157769633Y-71810800D01*
X157771914Y-71739840D01*
X157811038Y-71682330D01*
X157881008Y-71624137D01*
X157885446Y-71620446D01*
X158024532Y-71453213D01*
X158130813Y-71263435D01*
X158132669Y-71257968D01*
X158132671Y-71257963D01*
X158198874Y-71062935D01*
X158198875Y-71062930D01*
X158200730Y-71057466D01*
X158231941Y-70842205D01*
X158233570Y-70780000D01*
X158213667Y-70563400D01*
X158195787Y-70500000D01*
X158156195Y-70359619D01*
X158154626Y-70354055D01*
X158061983Y-70166193D01*
X158060978Y-70164155D01*
X158058423Y-70158974D01*
X158048604Y-70145824D01*
X157931733Y-69989315D01*
X157931732Y-69989314D01*
X157928280Y-69984691D01*
X157800641Y-69866703D01*
X157772796Y-69840963D01*
X157772793Y-69840961D01*
X157768556Y-69837044D01*
X157584599Y-69720976D01*
X157382572Y-69640376D01*
X157169239Y-69597941D01*
X157163464Y-69597865D01*
X157163460Y-69597865D01*
X157054419Y-69596438D01*
X156951746Y-69595094D01*
X156946049Y-69596073D01*
X156946048Y-69596073D01*
X156743065Y-69630952D01*
X156743062Y-69630953D01*
X156737375Y-69631930D01*
X156533307Y-69707214D01*
X156346376Y-69818427D01*
X156182842Y-69961842D01*
X156179270Y-69966373D01*
X156059799Y-70117921D01*
X156048181Y-70132658D01*
X155946905Y-70325154D01*
X155945192Y-70330671D01*
X155933674Y-70367764D01*
X155894371Y-70426889D01*
X155829342Y-70455379D01*
X155759232Y-70444189D01*
X155712138Y-70405457D01*
X155636769Y-70303833D01*
X155636766Y-70303829D01*
X155634922Y-70301343D01*
X155521430Y-70176124D01*
X155517670Y-70171525D01*
X155516809Y-70170107D01*
X155513102Y-70165909D01*
X155513098Y-70165904D01*
X155510705Y-70163195D01*
X155510703Y-70163193D01*
X155509412Y-70161731D01*
X155500643Y-70152962D01*
X155496382Y-70148487D01*
X155487403Y-70138581D01*
X155480141Y-70129801D01*
X155468808Y-70114762D01*
X155453948Y-70099480D01*
X155450430Y-70096671D01*
X155425803Y-70077012D01*
X155415317Y-70067636D01*
X155205671Y-69857990D01*
X155171645Y-69795678D01*
X155169245Y-69757913D01*
X155183019Y-69600475D01*
X155183498Y-69595000D01*
X155163543Y-69366913D01*
X155124500Y-69221204D01*
X155105707Y-69151067D01*
X155105706Y-69151065D01*
X155104284Y-69145757D01*
X155076676Y-69086550D01*
X155009849Y-68943238D01*
X155009846Y-68943233D01*
X155007523Y-68938251D01*
X154876198Y-68750700D01*
X154848593Y-68723095D01*
X154814567Y-68660783D01*
X154819632Y-68589968D01*
X154862179Y-68533132D01*
X154928699Y-68508321D01*
X154937688Y-68508000D01*
X159162521Y-68508000D01*
X159230642Y-68528002D01*
X159277135Y-68581658D01*
X159287239Y-68651932D01*
X159261061Y-68712522D01*
X159233744Y-68746803D01*
X159084779Y-68933743D01*
X159079991Y-68939751D01*
X158908626Y-69217757D01*
X158771902Y-69514336D01*
X158770741Y-69517940D01*
X158770741Y-69517941D01*
X158762196Y-69544477D01*
X158671797Y-69825192D01*
X158671079Y-69828903D01*
X158671078Y-69828907D01*
X158610482Y-70142105D01*
X158610481Y-70142114D01*
X158609763Y-70145824D01*
X158609496Y-70149600D01*
X158609495Y-70149605D01*
X158587845Y-70455379D01*
X158586698Y-70471585D01*
X158592937Y-70596916D01*
X158599510Y-70728931D01*
X158602936Y-70797759D01*
X158603577Y-70801490D01*
X158603578Y-70801498D01*
X158637871Y-71001069D01*
X158658241Y-71119619D01*
X158659329Y-71123258D01*
X158659330Y-71123261D01*
X158710851Y-71295533D01*
X158751814Y-71432504D01*
X158753327Y-71435975D01*
X158753329Y-71435981D01*
X158784929Y-71508482D01*
X158882297Y-71731881D01*
X158884220Y-71735152D01*
X158884222Y-71735156D01*
X158926584Y-71807215D01*
X159047802Y-72013414D01*
X159050103Y-72016429D01*
X159243631Y-72270012D01*
X159243636Y-72270017D01*
X159245931Y-72273025D01*
X159473814Y-72506953D01*
X159569772Y-72584243D01*
X159725196Y-72709431D01*
X159725201Y-72709435D01*
X159728149Y-72711809D01*
X160005253Y-72884627D01*
X160301112Y-73022903D01*
X160611440Y-73124634D01*
X160931742Y-73188346D01*
X160935514Y-73188633D01*
X160935522Y-73188634D01*
X161253602Y-73212829D01*
X161253607Y-73212829D01*
X161257379Y-73213116D01*
X161583633Y-73198586D01*
X161643425Y-73188634D01*
X161902037Y-73145590D01*
X161902042Y-73145589D01*
X161905778Y-73144967D01*
X162219149Y-73053034D01*
X162222616Y-73051544D01*
X162222620Y-73051543D01*
X162515721Y-72925616D01*
X162515723Y-72925615D01*
X162519205Y-72924119D01*
X162801601Y-72760091D01*
X163041569Y-72578933D01*
X163059221Y-72565607D01*
X163059222Y-72565606D01*
X163062245Y-72563324D01*
X163078552Y-72547604D01*
X163141477Y-72514726D01*
X163212188Y-72521088D01*
X163268235Y-72564669D01*
X163292000Y-72638317D01*
X163292000Y-94350672D01*
X163290500Y-94370056D01*
X163286814Y-94393730D01*
X163287978Y-94402632D01*
X163287978Y-94402634D01*
X163288805Y-94408959D01*
X163289548Y-94434282D01*
X163280837Y-94556080D01*
X163277457Y-94603343D01*
X163274899Y-94621137D01*
X163256752Y-94704560D01*
X163233480Y-94811538D01*
X163228414Y-94828788D01*
X163160318Y-95011358D01*
X163152851Y-95027710D01*
X163059469Y-95198729D01*
X163049752Y-95213848D01*
X162992016Y-95290975D01*
X162932977Y-95369842D01*
X162921204Y-95383428D01*
X162783428Y-95521204D01*
X162769841Y-95532977D01*
X162613848Y-95649752D01*
X162598734Y-95659466D01*
X162493020Y-95717190D01*
X162427710Y-95752851D01*
X162411358Y-95760318D01*
X162228788Y-95828414D01*
X162211540Y-95833479D01*
X162048022Y-95869051D01*
X162021137Y-95874899D01*
X162003342Y-95877457D01*
X161954443Y-95880954D01*
X161841369Y-95889041D01*
X161823467Y-95888297D01*
X161815142Y-95888195D01*
X161806270Y-95886814D01*
X161797368Y-95887978D01*
X161797365Y-95887978D01*
X161774749Y-95890936D01*
X161758411Y-95892000D01*
X138349328Y-95892000D01*
X138329943Y-95890500D01*
X138329661Y-95890456D01*
X138327117Y-95890060D01*
X138315141Y-95888195D01*
X138315139Y-95888195D01*
X138306270Y-95886814D01*
X138297368Y-95887978D01*
X138297366Y-95887978D01*
X138291041Y-95888805D01*
X138265718Y-95889548D01*
X138096657Y-95877457D01*
X138078863Y-95874899D01*
X138051978Y-95869051D01*
X137888460Y-95833479D01*
X137871212Y-95828414D01*
X137688642Y-95760318D01*
X137672290Y-95752851D01*
X137606980Y-95717190D01*
X137501266Y-95659466D01*
X137486152Y-95649752D01*
X137330159Y-95532977D01*
X137316572Y-95521204D01*
X137178796Y-95383428D01*
X137167023Y-95369842D01*
X137107984Y-95290975D01*
X137050248Y-95213848D01*
X137040531Y-95198729D01*
X136947149Y-95027710D01*
X136939682Y-95011358D01*
X136871586Y-94828788D01*
X136866520Y-94811538D01*
X136843249Y-94704560D01*
X136825101Y-94621137D01*
X136822543Y-94603342D01*
X136814160Y-94486123D01*
X136810959Y-94441369D01*
X136811703Y-94423467D01*
X136811805Y-94415142D01*
X136813186Y-94406270D01*
X136811547Y-94393730D01*
X136809064Y-94374749D01*
X136808000Y-94358411D01*
X136808000Y-94248134D01*
X147191500Y-94248134D01*
X147198255Y-94310316D01*
X147249385Y-94446705D01*
X147336739Y-94563261D01*
X147453295Y-94650615D01*
X147589684Y-94701745D01*
X147651866Y-94708500D01*
X149948134Y-94708500D01*
X150010316Y-94701745D01*
X150146705Y-94650615D01*
X150263261Y-94563261D01*
X150321073Y-94486123D01*
X150377932Y-94443608D01*
X150448751Y-94438582D01*
X150487734Y-94454255D01*
X150607149Y-94527433D01*
X150615943Y-94531914D01*
X150839471Y-94624502D01*
X150848856Y-94627551D01*
X151084118Y-94684033D01*
X151093865Y-94685576D01*
X151335070Y-94704560D01*
X151344930Y-94704560D01*
X151498757Y-94692453D01*
X151509634Y-94688308D01*
X151504168Y-94678382D01*
X150445405Y-93619619D01*
X150411379Y-93557307D01*
X150408500Y-93530524D01*
X150408500Y-93101132D01*
X152759412Y-93101132D01*
X152759543Y-93102965D01*
X152763794Y-93109580D01*
X152918220Y-93264006D01*
X152928439Y-93269586D01*
X152932435Y-93258988D01*
X152944560Y-93104930D01*
X152944560Y-93095070D01*
X152932453Y-92941243D01*
X152928308Y-92930366D01*
X152918382Y-92935832D01*
X152767026Y-93087188D01*
X152759412Y-93101132D01*
X150408500Y-93101132D01*
X150408500Y-92669476D01*
X150428502Y-92601355D01*
X150445405Y-92580381D01*
X151504006Y-91521780D01*
X151509586Y-91511561D01*
X151498988Y-91507565D01*
X151344930Y-91495440D01*
X151335070Y-91495440D01*
X151093865Y-91514424D01*
X151084118Y-91515967D01*
X150848856Y-91572449D01*
X150839471Y-91575498D01*
X150615943Y-91668086D01*
X150607149Y-91672567D01*
X150487734Y-91745745D01*
X150419201Y-91764283D01*
X150351524Y-91742827D01*
X150321073Y-91713877D01*
X150268643Y-91643920D01*
X150268642Y-91643919D01*
X150263261Y-91636739D01*
X150146705Y-91549385D01*
X150010316Y-91498255D01*
X149948134Y-91491500D01*
X147651866Y-91491500D01*
X147589684Y-91498255D01*
X147453295Y-91549385D01*
X147336739Y-91636739D01*
X147249385Y-91753295D01*
X147198255Y-91889684D01*
X147191500Y-91951866D01*
X147191500Y-94248134D01*
X136808000Y-94248134D01*
X136808000Y-83025400D01*
X138791500Y-83025400D01*
X138791837Y-83028646D01*
X138791837Y-83028650D01*
X138792567Y-83035680D01*
X138802474Y-83131166D01*
X138804655Y-83137702D01*
X138804655Y-83137704D01*
X138806488Y-83143197D01*
X138858450Y-83298946D01*
X138951522Y-83449348D01*
X138956704Y-83454521D01*
X138985191Y-83482958D01*
X139076697Y-83574305D01*
X139173474Y-83633959D01*
X139181616Y-83638978D01*
X139229109Y-83691750D01*
X139241500Y-83746238D01*
X139241500Y-84165590D01*
X139240506Y-84181382D01*
X139236775Y-84210916D01*
X139238232Y-84225776D01*
X139238677Y-84231834D01*
X139251472Y-84492279D01*
X139291241Y-84760378D01*
X139291991Y-84763372D01*
X139356344Y-85020289D01*
X139356347Y-85020299D01*
X139357096Y-85023289D01*
X139358133Y-85026188D01*
X139358136Y-85026197D01*
X139384246Y-85099168D01*
X139448404Y-85278478D01*
X139449720Y-85281261D01*
X139449724Y-85281270D01*
X139520667Y-85431265D01*
X139564286Y-85523489D01*
X139565869Y-85526130D01*
X139702035Y-85753311D01*
X139702041Y-85753320D01*
X139703624Y-85755961D01*
X139705467Y-85758446D01*
X139861896Y-85969366D01*
X139865078Y-85973657D01*
X139978580Y-86098887D01*
X139982328Y-86103472D01*
X139983191Y-86104893D01*
X139990589Y-86113270D01*
X139999357Y-86122038D01*
X140003618Y-86126513D01*
X140012597Y-86136419D01*
X140019859Y-86145199D01*
X140031192Y-86160238D01*
X140046052Y-86175520D01*
X140049154Y-86177997D01*
X140049157Y-86177999D01*
X140074197Y-86197988D01*
X140084683Y-86207364D01*
X140183922Y-86306603D01*
X140195455Y-86319869D01*
X140209619Y-86338665D01*
X140224479Y-86353947D01*
X140239774Y-86366157D01*
X140245736Y-86371230D01*
X140426342Y-86534921D01*
X140428828Y-86536765D01*
X140428832Y-86536768D01*
X140526798Y-86609424D01*
X140644038Y-86696375D01*
X140876510Y-86835714D01*
X140879288Y-86837028D01*
X140879292Y-86837030D01*
X140939337Y-86865429D01*
X141121521Y-86951595D01*
X141376711Y-87042904D01*
X141639621Y-87108759D01*
X141907720Y-87148528D01*
X141910804Y-87148679D01*
X141910809Y-87148680D01*
X142076513Y-87156820D01*
X142082424Y-87157413D01*
X142084037Y-87157808D01*
X142091462Y-87158269D01*
X142093252Y-87158380D01*
X142093262Y-87158380D01*
X142095191Y-87158500D01*
X142107621Y-87158500D01*
X142113799Y-87158652D01*
X142119440Y-87158929D01*
X142127111Y-87159306D01*
X142138458Y-87160380D01*
X142153181Y-87162449D01*
X142153193Y-87162450D01*
X142157114Y-87163001D01*
X142167650Y-87163148D01*
X142174465Y-87163244D01*
X142174471Y-87163244D01*
X142178427Y-87163299D01*
X142203738Y-87160460D01*
X142235317Y-87160901D01*
X142250260Y-87163001D01*
X142258609Y-87163118D01*
X142267612Y-87163244D01*
X142267618Y-87163244D01*
X142271573Y-87163299D01*
X142291027Y-87161117D01*
X142298887Y-87160484D01*
X142347396Y-87158101D01*
X142539190Y-87148679D01*
X142539195Y-87148679D01*
X142542279Y-87148527D01*
X142810378Y-87108758D01*
X142834179Y-87102796D01*
X143070288Y-87043655D01*
X143070298Y-87043652D01*
X143073288Y-87042903D01*
X143076187Y-87041866D01*
X143076196Y-87041863D01*
X143325571Y-86952635D01*
X143328478Y-86951595D01*
X143331273Y-86950273D01*
X143331278Y-86950271D01*
X143510659Y-86865429D01*
X143573488Y-86835713D01*
X143805961Y-86696375D01*
X143925118Y-86608002D01*
X144021166Y-86536768D01*
X144021170Y-86536765D01*
X144023656Y-86534921D01*
X144148883Y-86421423D01*
X144153467Y-86417675D01*
X144154893Y-86416809D01*
X144163270Y-86409411D01*
X144172053Y-86400628D01*
X144176529Y-86396365D01*
X144186411Y-86387408D01*
X144195196Y-86380143D01*
X144210238Y-86368808D01*
X144225520Y-86353948D01*
X144227995Y-86350848D01*
X144229387Y-86349313D01*
X144238254Y-86340691D01*
X144238665Y-86340381D01*
X144241499Y-86337625D01*
X144241504Y-86337621D01*
X144251106Y-86328284D01*
X144251109Y-86328280D01*
X144253947Y-86325521D01*
X144266157Y-86310226D01*
X144271230Y-86304264D01*
X144434921Y-86123658D01*
X144442626Y-86113270D01*
X144594532Y-85908447D01*
X144596375Y-85905962D01*
X144735714Y-85673490D01*
X144851595Y-85428479D01*
X144851930Y-85428637D01*
X144895316Y-85374797D01*
X144962679Y-85352375D01*
X145031471Y-85369933D01*
X145081373Y-85425046D01*
X145110149Y-85486758D01*
X145110153Y-85486764D01*
X145112477Y-85491749D01*
X145154605Y-85551914D01*
X145239734Y-85673490D01*
X145243802Y-85679300D01*
X145405700Y-85841198D01*
X145410211Y-85844357D01*
X145414424Y-85847892D01*
X145413473Y-85849026D01*
X145453471Y-85899071D01*
X145460776Y-85969690D01*
X145428742Y-86033049D01*
X145367538Y-86069030D01*
X145350483Y-86072082D01*
X145339684Y-86073255D01*
X145203295Y-86124385D01*
X145086739Y-86211739D01*
X144999385Y-86328295D01*
X144948255Y-86464684D01*
X144941500Y-86526866D01*
X144941500Y-88223134D01*
X144948255Y-88285316D01*
X144999385Y-88421705D01*
X145086739Y-88538261D01*
X145203295Y-88625615D01*
X145339684Y-88676745D01*
X145401866Y-88683500D01*
X147098134Y-88683500D01*
X147160316Y-88676745D01*
X147296705Y-88625615D01*
X147413261Y-88538261D01*
X147500615Y-88421705D01*
X147551745Y-88285316D01*
X147558500Y-88223134D01*
X147558500Y-86526866D01*
X147551745Y-86464684D01*
X147500615Y-86328295D01*
X147413261Y-86211739D01*
X147296705Y-86124385D01*
X147160316Y-86073255D01*
X147149526Y-86072083D01*
X147147394Y-86071197D01*
X147144778Y-86070575D01*
X147144879Y-86070152D01*
X147083965Y-86044845D01*
X147043537Y-85986483D01*
X147041078Y-85915529D01*
X147077371Y-85854510D01*
X147086031Y-85847511D01*
X147089793Y-85844354D01*
X147094300Y-85841198D01*
X147256198Y-85679300D01*
X147260267Y-85673490D01*
X147345395Y-85551914D01*
X147387523Y-85491749D01*
X147389846Y-85486767D01*
X147389849Y-85486762D01*
X147481961Y-85289225D01*
X147481961Y-85289224D01*
X147484284Y-85284243D01*
X147493102Y-85251336D01*
X147542119Y-85068402D01*
X147542119Y-85068400D01*
X147543543Y-85063087D01*
X147563498Y-84835000D01*
X147543543Y-84606913D01*
X147489682Y-84405901D01*
X147485707Y-84391067D01*
X147485706Y-84391065D01*
X147484284Y-84385757D01*
X147455649Y-84324348D01*
X147389849Y-84183238D01*
X147389846Y-84183233D01*
X147387523Y-84178251D01*
X147283451Y-84029621D01*
X147259357Y-83995211D01*
X147259355Y-83995208D01*
X147256198Y-83990700D01*
X147094300Y-83828802D01*
X147089792Y-83825645D01*
X147089789Y-83825643D01*
X146995372Y-83759532D01*
X146906749Y-83697477D01*
X146901767Y-83695154D01*
X146901762Y-83695151D01*
X146867543Y-83679195D01*
X146814258Y-83632278D01*
X146794797Y-83564001D01*
X146815339Y-83496041D01*
X146867543Y-83450805D01*
X146901762Y-83434849D01*
X146901767Y-83434846D01*
X146906749Y-83432523D01*
X147088619Y-83305176D01*
X147089789Y-83304357D01*
X147089792Y-83304355D01*
X147094300Y-83301198D01*
X147256198Y-83139300D01*
X147262808Y-83129861D01*
X147333676Y-83028650D01*
X147387523Y-82951749D01*
X147389846Y-82946767D01*
X147389849Y-82946762D01*
X147481961Y-82749225D01*
X147481961Y-82749224D01*
X147484284Y-82744243D01*
X147487869Y-82730866D01*
X147542119Y-82528402D01*
X147542119Y-82528400D01*
X147543543Y-82523087D01*
X147563498Y-82295000D01*
X147543543Y-82066913D01*
X147520758Y-81981880D01*
X147485707Y-81851067D01*
X147485706Y-81851065D01*
X147484284Y-81845757D01*
X147471540Y-81818427D01*
X147389849Y-81643238D01*
X147389846Y-81643233D01*
X147387523Y-81638251D01*
X147314098Y-81533389D01*
X147259357Y-81455211D01*
X147259355Y-81455208D01*
X147256198Y-81450700D01*
X147094300Y-81288802D01*
X147089792Y-81285645D01*
X147089789Y-81285643D01*
X147011611Y-81230902D01*
X146906749Y-81157477D01*
X146901767Y-81155154D01*
X146901762Y-81155151D01*
X146867543Y-81139195D01*
X146814258Y-81092278D01*
X146794797Y-81024001D01*
X146815339Y-80956041D01*
X146867543Y-80910805D01*
X146901762Y-80894849D01*
X146901767Y-80894846D01*
X146906749Y-80892523D01*
X147051624Y-80791080D01*
X147089789Y-80764357D01*
X147089792Y-80764355D01*
X147094300Y-80761198D01*
X147256198Y-80599300D01*
X147271207Y-80577866D01*
X147341849Y-80476978D01*
X147387523Y-80411749D01*
X147389846Y-80406767D01*
X147389849Y-80406762D01*
X147481961Y-80209225D01*
X147481961Y-80209224D01*
X147484284Y-80204243D01*
X147495886Y-80160946D01*
X147542119Y-79988402D01*
X147542119Y-79988400D01*
X147543543Y-79983087D01*
X147563498Y-79755000D01*
X147543543Y-79526913D01*
X147524986Y-79457659D01*
X147485707Y-79311067D01*
X147485706Y-79311065D01*
X147484284Y-79305757D01*
X147464549Y-79263435D01*
X147389849Y-79103238D01*
X147389846Y-79103233D01*
X147387523Y-79098251D01*
X147256198Y-78910700D01*
X147094300Y-78748802D01*
X147089792Y-78745645D01*
X147089789Y-78745643D01*
X146938108Y-78639435D01*
X146906749Y-78617477D01*
X146901767Y-78615154D01*
X146901762Y-78615151D01*
X146867543Y-78599195D01*
X146814258Y-78552278D01*
X146794797Y-78484001D01*
X146815339Y-78416041D01*
X146867543Y-78370805D01*
X146901762Y-78354849D01*
X146901767Y-78354846D01*
X146906749Y-78352523D01*
X147011611Y-78279098D01*
X147089789Y-78224357D01*
X147089792Y-78224355D01*
X147094300Y-78221198D01*
X147256198Y-78059300D01*
X147387523Y-77871749D01*
X147389846Y-77866767D01*
X147389849Y-77866762D01*
X147481961Y-77669225D01*
X147481961Y-77669224D01*
X147484284Y-77664243D01*
X147495031Y-77624137D01*
X147542119Y-77448402D01*
X147542119Y-77448400D01*
X147543543Y-77443087D01*
X147563498Y-77215000D01*
X147543543Y-76986913D01*
X147539422Y-76971534D01*
X147485707Y-76771067D01*
X147485706Y-76771065D01*
X147484284Y-76765757D01*
X147479106Y-76754653D01*
X147389849Y-76563238D01*
X147389846Y-76563233D01*
X147387523Y-76558251D01*
X147267962Y-76387500D01*
X147259357Y-76375211D01*
X147259355Y-76375208D01*
X147256198Y-76370700D01*
X147094300Y-76208802D01*
X147089792Y-76205645D01*
X147089789Y-76205643D01*
X146979080Y-76128124D01*
X146906749Y-76077477D01*
X146901767Y-76075154D01*
X146901762Y-76075151D01*
X146867543Y-76059195D01*
X146814258Y-76012278D01*
X146794797Y-75944001D01*
X146815339Y-75876041D01*
X146867543Y-75830805D01*
X146901762Y-75814849D01*
X146901767Y-75814846D01*
X146906749Y-75812523D01*
X147043067Y-75717072D01*
X147089789Y-75684357D01*
X147089792Y-75684355D01*
X147094300Y-75681198D01*
X147256198Y-75519300D01*
X147387523Y-75331749D01*
X147389846Y-75326767D01*
X147389849Y-75326762D01*
X147481961Y-75129225D01*
X147481961Y-75129224D01*
X147484284Y-75124243D01*
X147543543Y-74903087D01*
X147563498Y-74675000D01*
X147543543Y-74446913D01*
X147542119Y-74441598D01*
X147485707Y-74231067D01*
X147485706Y-74231065D01*
X147484284Y-74225757D01*
X147416317Y-74080000D01*
X147389849Y-74023238D01*
X147389846Y-74023233D01*
X147387523Y-74018251D01*
X147281993Y-73867539D01*
X147259357Y-73835211D01*
X147259355Y-73835208D01*
X147256198Y-73830700D01*
X147094300Y-73668802D01*
X147089792Y-73665645D01*
X147089789Y-73665643D01*
X146984383Y-73591837D01*
X146906749Y-73537477D01*
X146901767Y-73535154D01*
X146901762Y-73535151D01*
X146866951Y-73518919D01*
X146813666Y-73472002D01*
X146794205Y-73403725D01*
X146814747Y-73335765D01*
X146866951Y-73290529D01*
X146901511Y-73274414D01*
X146911007Y-73268931D01*
X147089467Y-73143972D01*
X147097875Y-73136916D01*
X147251916Y-72982875D01*
X147258972Y-72974467D01*
X147383931Y-72796007D01*
X147389414Y-72786511D01*
X147452409Y-72651417D01*
X147454526Y-72637477D01*
X147450738Y-72635000D01*
X145058051Y-72635000D01*
X145044520Y-72638973D01*
X145043877Y-72643450D01*
X145110586Y-72786511D01*
X145116069Y-72796007D01*
X145241028Y-72974467D01*
X145248084Y-72982875D01*
X145402125Y-73136916D01*
X145410533Y-73143972D01*
X145588993Y-73268931D01*
X145598489Y-73274414D01*
X145633049Y-73290529D01*
X145686334Y-73337446D01*
X145705795Y-73405723D01*
X145685253Y-73473683D01*
X145633049Y-73518919D01*
X145598238Y-73535151D01*
X145598233Y-73535154D01*
X145593251Y-73537477D01*
X145515617Y-73591837D01*
X145410211Y-73665643D01*
X145410208Y-73665645D01*
X145405700Y-73668802D01*
X145243802Y-73830700D01*
X145240645Y-73835208D01*
X145240643Y-73835211D01*
X145115633Y-74013743D01*
X145115630Y-74013747D01*
X145112477Y-74018251D01*
X145110152Y-74023238D01*
X145109503Y-74024362D01*
X145058121Y-74073357D01*
X145042830Y-74080000D01*
X144921521Y-74123405D01*
X144755163Y-74202086D01*
X144693888Y-74231067D01*
X144676510Y-74239286D01*
X144444038Y-74378625D01*
X144441553Y-74380468D01*
X144357158Y-74443059D01*
X144290527Y-74467573D01*
X144221221Y-74452172D01*
X144171244Y-74401746D01*
X144160831Y-74376057D01*
X144156194Y-74359616D01*
X144154626Y-74354055D01*
X144058423Y-74158974D01*
X144031863Y-74123405D01*
X143931733Y-73989315D01*
X143931732Y-73989314D01*
X143928280Y-73984691D01*
X143806078Y-73871729D01*
X143769633Y-73810800D01*
X143771914Y-73739840D01*
X143811038Y-73682330D01*
X143834568Y-73662761D01*
X143885446Y-73620446D01*
X144024532Y-73453213D01*
X144124421Y-73274849D01*
X144127989Y-73268478D01*
X144127990Y-73268476D01*
X144130813Y-73263435D01*
X144132669Y-73257968D01*
X144132671Y-73257963D01*
X144198874Y-73062935D01*
X144198875Y-73062930D01*
X144200730Y-73057466D01*
X144231941Y-72842205D01*
X144233570Y-72780000D01*
X144213667Y-72563400D01*
X144206658Y-72538546D01*
X144156195Y-72359619D01*
X144154626Y-72354055D01*
X144058423Y-72158974D01*
X144036433Y-72129525D01*
X143979465Y-72053236D01*
X143954733Y-71986686D01*
X143969907Y-71917330D01*
X144004858Y-71877021D01*
X144076080Y-71823643D01*
X144076081Y-71823642D01*
X144083261Y-71818261D01*
X144170615Y-71701705D01*
X144221745Y-71565316D01*
X144228500Y-71503134D01*
X144228500Y-70103450D01*
X145043877Y-70103450D01*
X145110586Y-70246511D01*
X145116069Y-70256007D01*
X145241028Y-70434467D01*
X145248084Y-70442875D01*
X145402125Y-70596916D01*
X145410533Y-70603972D01*
X145588993Y-70728931D01*
X145598489Y-70734414D01*
X145633641Y-70750805D01*
X145686926Y-70797722D01*
X145706387Y-70865999D01*
X145685845Y-70933959D01*
X145633641Y-70979195D01*
X145598489Y-70995586D01*
X145588993Y-71001069D01*
X145410533Y-71126028D01*
X145402125Y-71133084D01*
X145248084Y-71287125D01*
X145241028Y-71295533D01*
X145116069Y-71473993D01*
X145110586Y-71483489D01*
X145047591Y-71618583D01*
X145045474Y-71632523D01*
X145049262Y-71635000D01*
X145731885Y-71635000D01*
X145747124Y-71630525D01*
X145748329Y-71629135D01*
X145750000Y-71621452D01*
X145750000Y-71616885D01*
X146750000Y-71616885D01*
X146754475Y-71632124D01*
X146755865Y-71633329D01*
X146763548Y-71635000D01*
X147441949Y-71635000D01*
X147455480Y-71631027D01*
X147456123Y-71626550D01*
X147389414Y-71483489D01*
X147383931Y-71473993D01*
X147258972Y-71295533D01*
X147251916Y-71287125D01*
X147097875Y-71133084D01*
X147089467Y-71126028D01*
X146911007Y-71001069D01*
X146901511Y-70995586D01*
X146866359Y-70979195D01*
X146813074Y-70932278D01*
X146793613Y-70864001D01*
X146814155Y-70796041D01*
X146866359Y-70750805D01*
X146901511Y-70734414D01*
X146911007Y-70728931D01*
X147089467Y-70603972D01*
X147097875Y-70596916D01*
X147251916Y-70442875D01*
X147258972Y-70434467D01*
X147383931Y-70256007D01*
X147389414Y-70246511D01*
X147452409Y-70111417D01*
X147454526Y-70097477D01*
X147450738Y-70095000D01*
X146768115Y-70095000D01*
X146752876Y-70099475D01*
X146751671Y-70100865D01*
X146750000Y-70108548D01*
X146750000Y-70786949D01*
X146763469Y-70832820D01*
X146763469Y-70903816D01*
X146750261Y-70932438D01*
X146750000Y-70934201D01*
X146750000Y-71616885D01*
X145750000Y-71616885D01*
X145750000Y-70943051D01*
X145736531Y-70897180D01*
X145736531Y-70826184D01*
X145749739Y-70797562D01*
X145750000Y-70795799D01*
X145750000Y-70113115D01*
X145745525Y-70097876D01*
X145744135Y-70096671D01*
X145736452Y-70095000D01*
X145058051Y-70095000D01*
X145044520Y-70098973D01*
X145043877Y-70103450D01*
X144228500Y-70103450D01*
X144228500Y-70056866D01*
X144221745Y-69994684D01*
X144170615Y-69858295D01*
X144083261Y-69741739D01*
X143966705Y-69654385D01*
X143830316Y-69603255D01*
X143768134Y-69596500D01*
X142321866Y-69596500D01*
X142259684Y-69603255D01*
X142123295Y-69654385D01*
X142006739Y-69741739D01*
X141919385Y-69858295D01*
X141868255Y-69994684D01*
X141861500Y-70056866D01*
X141861500Y-71503134D01*
X141868255Y-71565316D01*
X141919385Y-71701705D01*
X142006739Y-71818261D01*
X142013919Y-71823642D01*
X142085269Y-71877116D01*
X142127784Y-71933975D01*
X142132810Y-72004794D01*
X142108654Y-72055948D01*
X142051755Y-72128124D01*
X142048181Y-72132658D01*
X141946905Y-72325154D01*
X141945192Y-72330671D01*
X141888041Y-72514726D01*
X141882403Y-72532882D01*
X141856837Y-72748887D01*
X141857215Y-72754653D01*
X141862120Y-72829499D01*
X141846616Y-72898782D01*
X141825485Y-72926834D01*
X141197724Y-73554595D01*
X141135412Y-73588621D01*
X141108629Y-73591500D01*
X140599600Y-73591500D01*
X140596354Y-73591837D01*
X140596350Y-73591837D01*
X140500692Y-73601762D01*
X140500688Y-73601763D01*
X140493834Y-73602474D01*
X140487298Y-73604655D01*
X140487296Y-73604655D01*
X140397178Y-73634721D01*
X140326054Y-73658450D01*
X140175652Y-73751522D01*
X140170479Y-73756704D01*
X140088862Y-73838463D01*
X140026579Y-73872542D01*
X139955759Y-73867539D01*
X139910671Y-73838618D01*
X139828171Y-73756261D01*
X139816760Y-73747249D01*
X139678757Y-73662184D01*
X139665576Y-73656037D01*
X139604694Y-73635843D01*
X139590601Y-73635354D01*
X139587500Y-73641565D01*
X139587500Y-75252912D01*
X139569572Y-75317692D01*
X139564286Y-75326511D01*
X139562972Y-75329290D01*
X139562970Y-75329293D01*
X139449724Y-75568730D01*
X139449720Y-75568739D01*
X139448404Y-75571522D01*
X139432857Y-75614973D01*
X139362173Y-75812523D01*
X139357096Y-75826711D01*
X139356347Y-75829701D01*
X139356344Y-75829711D01*
X139314131Y-75998238D01*
X139291241Y-76089622D01*
X139251472Y-76357721D01*
X139251320Y-76360807D01*
X139251320Y-76360811D01*
X139243179Y-76526520D01*
X139242587Y-76532422D01*
X139242192Y-76534037D01*
X139241500Y-76545191D01*
X139241500Y-76557611D01*
X139241348Y-76563795D01*
X139240156Y-76588054D01*
X139239315Y-76597660D01*
X139236775Y-76617770D01*
X139237462Y-76624777D01*
X139237462Y-76624780D01*
X139240899Y-76659829D01*
X139241500Y-76672125D01*
X139241500Y-79853689D01*
X139221498Y-79921810D01*
X139181804Y-79960833D01*
X139075652Y-80026522D01*
X138950695Y-80151697D01*
X138857885Y-80302262D01*
X138802203Y-80470139D01*
X138791500Y-80574600D01*
X138791500Y-81200400D01*
X138791837Y-81203646D01*
X138791837Y-81203650D01*
X138801077Y-81292699D01*
X138802474Y-81306166D01*
X138858450Y-81473946D01*
X138951522Y-81624348D01*
X139032680Y-81705364D01*
X139038109Y-81710784D01*
X139072188Y-81773066D01*
X139067185Y-81843886D01*
X139038264Y-81888975D01*
X138965524Y-81961842D01*
X138950695Y-81976697D01*
X138946855Y-81982927D01*
X138946854Y-81982928D01*
X138939645Y-81994624D01*
X138857885Y-82127262D01*
X138802203Y-82295139D01*
X138801503Y-82301975D01*
X138801502Y-82301978D01*
X138797783Y-82338280D01*
X138791500Y-82399600D01*
X138791500Y-83025400D01*
X136808000Y-83025400D01*
X136808000Y-75309290D01*
X138067927Y-75309290D01*
X138077257Y-75399206D01*
X138080149Y-75412600D01*
X138131588Y-75566784D01*
X138137761Y-75579962D01*
X138223063Y-75717807D01*
X138232099Y-75729208D01*
X138346829Y-75843739D01*
X138358240Y-75852751D01*
X138496243Y-75937816D01*
X138509424Y-75943963D01*
X138570306Y-75964157D01*
X138584399Y-75964646D01*
X138587500Y-75958435D01*
X138587500Y-75318115D01*
X138583025Y-75302876D01*
X138581635Y-75301671D01*
X138573952Y-75300000D01*
X138085116Y-75300000D01*
X138069877Y-75304475D01*
X138068672Y-75305865D01*
X138067927Y-75309290D01*
X136808000Y-75309290D01*
X136808000Y-74286477D01*
X138068348Y-74286477D01*
X138071475Y-74297124D01*
X138072865Y-74298329D01*
X138080548Y-74300000D01*
X138569385Y-74300000D01*
X138584624Y-74295525D01*
X138585829Y-74294135D01*
X138587500Y-74286452D01*
X138587500Y-73648252D01*
X138583527Y-73634721D01*
X138576701Y-73633740D01*
X138508216Y-73656588D01*
X138495038Y-73662761D01*
X138357193Y-73748063D01*
X138345792Y-73757099D01*
X138231261Y-73871829D01*
X138222249Y-73883240D01*
X138137184Y-74021243D01*
X138131037Y-74034424D01*
X138079862Y-74188710D01*
X138076995Y-74202086D01*
X138068348Y-74286477D01*
X136808000Y-74286477D01*
X136808000Y-72636674D01*
X136828002Y-72568553D01*
X136881658Y-72522060D01*
X136951932Y-72511956D01*
X137013037Y-72538546D01*
X137043895Y-72563400D01*
X137225196Y-72709431D01*
X137225201Y-72709435D01*
X137228149Y-72711809D01*
X137505253Y-72884627D01*
X137801112Y-73022903D01*
X138111440Y-73124634D01*
X138431742Y-73188346D01*
X138435514Y-73188633D01*
X138435522Y-73188634D01*
X138753602Y-73212829D01*
X138753607Y-73212829D01*
X138757379Y-73213116D01*
X139083633Y-73198586D01*
X139143425Y-73188634D01*
X139402037Y-73145590D01*
X139402042Y-73145589D01*
X139405778Y-73144967D01*
X139719149Y-73053034D01*
X139722616Y-73051544D01*
X139722620Y-73051543D01*
X140015721Y-72925616D01*
X140015723Y-72925615D01*
X140019205Y-72924119D01*
X140301601Y-72760091D01*
X140541569Y-72578933D01*
X140559221Y-72565607D01*
X140559222Y-72565606D01*
X140562245Y-72563324D01*
X140779329Y-72354055D01*
X140794632Y-72339303D01*
X140794635Y-72339300D01*
X140797363Y-72336670D01*
X140957091Y-72140475D01*
X141001155Y-72086351D01*
X141001158Y-72086347D01*
X141003549Y-72083410D01*
X141094867Y-71938680D01*
X141175788Y-71810428D01*
X141175790Y-71810425D01*
X141177815Y-71807215D01*
X141189420Y-71782721D01*
X141316009Y-71515522D01*
X141317638Y-71512084D01*
X141344188Y-71432504D01*
X141419790Y-71205897D01*
X141419792Y-71205891D01*
X141420992Y-71202293D01*
X141486381Y-70882329D01*
X141487710Y-70865999D01*
X141512674Y-70559061D01*
X141512856Y-70556826D01*
X141513451Y-70500000D01*
X141511510Y-70467796D01*
X141494026Y-70177793D01*
X141494026Y-70177789D01*
X141493798Y-70174015D01*
X141493085Y-70170107D01*
X141435805Y-69856473D01*
X141435804Y-69856469D01*
X141435125Y-69852751D01*
X141427722Y-69828907D01*
X141373531Y-69654385D01*
X141338282Y-69540863D01*
X141204670Y-69242869D01*
X141036226Y-68963084D01*
X141033899Y-68960100D01*
X141033894Y-68960093D01*
X140840010Y-68711487D01*
X140813890Y-68645470D01*
X140827608Y-68575811D01*
X140876809Y-68524627D01*
X140939367Y-68508000D01*
X145183019Y-68508000D01*
X145251140Y-68528002D01*
G37*
G04 #@! TD.AperFunction*
G04 #@! TA.AperFunction,Conductor*
G36*
X157487121Y-84300002D02*
G01*
X157533614Y-84353658D01*
X157545000Y-84406000D01*
X157545000Y-85837848D01*
X157548973Y-85851379D01*
X157551038Y-85851676D01*
X157555134Y-85850288D01*
X157717929Y-85759118D01*
X157718845Y-85760753D01*
X157778241Y-85741302D01*
X157846946Y-85759192D01*
X157895073Y-85811388D01*
X157902032Y-85831313D01*
X157902474Y-85831166D01*
X157958450Y-85998946D01*
X158051522Y-86149348D01*
X158176697Y-86274305D01*
X158182927Y-86278145D01*
X158182928Y-86278146D01*
X158238957Y-86312683D01*
X158286451Y-86365456D01*
X158297874Y-86435527D01*
X158280101Y-86486058D01*
X158212186Y-86596238D01*
X158206037Y-86609424D01*
X158154862Y-86763710D01*
X158151995Y-86777086D01*
X158142328Y-86871438D01*
X158142000Y-86877855D01*
X158142000Y-86881885D01*
X158146475Y-86897124D01*
X158147865Y-86898329D01*
X158155548Y-86900000D01*
X159524000Y-86900000D01*
X159592121Y-86920002D01*
X159638614Y-86973658D01*
X159650000Y-87026000D01*
X159650000Y-87774000D01*
X159629998Y-87842121D01*
X159576342Y-87888614D01*
X159524000Y-87900000D01*
X158160116Y-87900000D01*
X158144877Y-87904475D01*
X158143672Y-87905865D01*
X158142001Y-87913548D01*
X158142001Y-87922095D01*
X158142338Y-87928614D01*
X158152257Y-88024206D01*
X158155149Y-88037600D01*
X158204570Y-88185734D01*
X158207154Y-88256684D01*
X158170970Y-88317767D01*
X158107506Y-88349592D01*
X158042987Y-88344383D01*
X158013091Y-88333796D01*
X158013083Y-88333794D01*
X158008212Y-88332069D01*
X158003119Y-88331162D01*
X158003116Y-88331161D01*
X157793373Y-88293800D01*
X157793367Y-88293799D01*
X157788284Y-88292894D01*
X157717770Y-88292033D01*
X157570082Y-88290228D01*
X157570080Y-88290228D01*
X157564911Y-88290165D01*
X157541156Y-88293800D01*
X157461385Y-88306006D01*
X157391023Y-88296538D01*
X157353232Y-88270551D01*
X156661716Y-87579035D01*
X156651258Y-87567173D01*
X156633004Y-87543641D01*
X156617164Y-87530630D01*
X156601335Y-87515102D01*
X156502043Y-87398846D01*
X156490427Y-87382857D01*
X156398998Y-87233657D01*
X156390022Y-87216042D01*
X156323058Y-87054379D01*
X156316948Y-87035574D01*
X156277543Y-86871438D01*
X156276100Y-86865428D01*
X156273007Y-86845901D01*
X156263353Y-86723238D01*
X156262248Y-86709195D01*
X156262232Y-86689641D01*
X156262450Y-86686804D01*
X156263001Y-86682886D01*
X156263299Y-86661573D01*
X156259285Y-86625786D01*
X156258500Y-86611742D01*
X156258500Y-85913089D01*
X156278502Y-85844968D01*
X156332158Y-85798475D01*
X156402432Y-85788371D01*
X156454503Y-85808324D01*
X156473305Y-85820887D01*
X156483412Y-85826375D01*
X156528356Y-85845684D01*
X156542356Y-85847375D01*
X156545000Y-85843048D01*
X156545000Y-84406000D01*
X156565002Y-84337879D01*
X156618658Y-84291386D01*
X156671000Y-84280000D01*
X157419000Y-84280000D01*
X157487121Y-84300002D01*
G37*
G04 #@! TD.AperFunction*
M02*
